<svg width="24" height="24" viewBox="0 0 24 24" fill="none" xmlns="http://www.w3.org/2000/svg">
<rect opacity="0.01" width="24" height="24" fill="#D8D8D8"/>
<path d="M11.2324 14.3604C11.6322 13.8807 12.3688 13.8806 12.7686 14.3604L17.7686 20.3604C18.3107 21.0116 17.8475 21.9999 17 22H7C6.15233 21.9999 5.68984 21.0116 6.23242 20.3604L11.2324 14.3604ZM9.13477 20H14.8652L12 16.5625L9.13477 20ZM20 2C21.6569 2 23 3.34315 23 5V15C23 16.6569 21.6569 18 20 18H19C18.4477 18 18 17.5523 18 17C18 16.4477 18.4477 16 19 16H20C20.5523 16 21 15.5523 21 15V5C21 4.44772 20.5523 4 20 4H4C3.44772 4 3 4.44772 3 5V15C3 15.5523 3.44772 16 4 16H5C5.55228 16 6 16.4477 6 17C6 17.5523 5.55228 18 5 18H4C2.34315 18 1 16.6569 1 15V5C1 3.34315 2.34315 2 4 2H20Z" fill="black"/>
</svg>
