<svg width="24" height="24" viewBox="0 0 24 24" fill="none" xmlns="http://www.w3.org/2000/svg">
<rect width="24" height="24" fill="white" fill-opacity="0.01"/>
<path d="M16.1396 1C16.4048 1 16.6592 1.10554 16.8467 1.29297L22.707 7.15332C22.8945 7.34084 23 7.59522 23 7.86035V16.1396C23 16.4048 22.8945 16.6592 22.707 16.8467L16.8467 22.707C16.6592 22.8945 16.4048 23 16.1396 23H7.86035C7.59522 23 7.34084 22.8945 7.15332 22.707L1.29297 16.8467C1.10554 16.6592 1 16.4048 1 16.1396V7.86035C1 7.59522 1.10554 7.34084 1.29297 7.15332L7.15332 1.29297C7.34084 1.10554 7.59522 1 7.86035 1H16.1396ZM3 8.27441V15.7256L8.27441 21H15.7256L21 15.7256V8.27441L15.7256 3H8.27441L3 8.27441ZM11.293 15.293C11.6835 14.9024 12.3165 14.9024 12.707 15.293C13.0976 15.6835 13.0976 16.3165 12.707 16.707C12.3165 17.0976 11.6835 17.0976 11.293 16.707C10.9024 16.3165 10.9024 15.6835 11.293 15.293ZM12 7C12.5523 7 13 7.44772 13 8V12C13 12.5523 12.5523 13 12 13C11.4477 13 11 12.5523 11 12V8C11 7.44772 11.4477 7 12 7Z" fill="black"/>
</svg>
