<svg width="24" height="24" viewBox="0 0 24 24" fill="none" xmlns="http://www.w3.org/2000/svg">
<rect width="24" height="24" fill="white" fill-opacity="0.01"/>
<path d="M12 1.89648C13.0485 1.89657 14.0207 2.44444 14.5674 3.3457L23.0459 17.499C23.5789 18.4221 23.5816 19.5593 23.0537 20.4854C22.5258 21.4111 21.5464 21.9872 20.4697 21.999H3.51855C2.45285 21.9872 1.47317 21.4112 0.945312 20.4854C0.417453 19.5593 0.420753 18.4223 0.961914 17.4854L9.43457 3.34082C9.97842 2.44424 10.9514 1.89648 12 1.89648ZM12 3.89648C11.6505 3.89648 11.3259 4.07894 11.1475 4.37305L2.68555 18.499C2.50796 18.8066 2.50693 19.1855 2.68262 19.4941C2.85849 19.8027 3.18516 19.995 3.5293 19.999H20.459C20.8142 19.995 21.1405 19.8028 21.3164 19.4941C21.4922 19.1855 21.4918 18.8065 21.3223 18.5127L12.8545 4.37793C12.6732 4.07918 12.3494 3.89657 12 3.89648ZM11.293 16.292C11.6835 15.9017 12.3166 15.9015 12.707 16.292C13.0975 16.6824 13.0973 17.3155 12.707 17.7061C12.3165 18.0966 11.6835 18.0966 11.293 17.7061C10.9024 17.3155 10.9024 16.6825 11.293 16.292ZM12 7.99902C12.5521 7.99915 12.9999 8.44691 13 8.99902V12.999C13 13.5512 12.5522 13.9989 12 13.999C11.4477 13.999 11 13.5513 11 12.999V8.99902C11.0001 8.44683 11.4478 7.99902 12 7.99902Z" fill="black"/>
</svg>
