<svg width="24" height="24" viewBox="0 0 24 24" fill="none" xmlns="http://www.w3.org/2000/svg">
<rect width="24" height="24" fill="white" fill-opacity="0.01"/>
<path d="M12 1C14.2091 1 16 2.79086 16 5C16 6.86384 14.7252 8.42998 13 8.87402V20.9424C17.1715 20.4811 20.4842 17.1715 20.9453 13H19C18.4477 13 18 12.5523 18 12C18 11.4477 18.4477 11 19 11H22C22.5523 11 23 11.4477 23 12C23 18.0751 18.0751 23 12 23L11.4336 22.9854C5.6217 22.6906 1 17.8852 1 12C1 11.4477 1.44772 11 2 11H5C5.55228 11 6 11.4477 6 12C6 12.5523 5.55228 13 5 13H3.05469C3.51583 17.1715 6.82852 20.4811 11 20.9424V8.87402C9.27477 8.42998 8 6.86384 8 5C8 2.79086 9.79086 1 12 1ZM12 3C10.8954 3 10 3.89543 10 5C10 6.10457 10.8954 7 12 7C13.1046 7 14 6.10457 14 5C14 3.89543 13.1046 3 12 3Z" fill="black"/>
</svg>
