<svg width="24" height="24" viewBox="0 0 24 24" fill="none" xmlns="http://www.w3.org/2000/svg">
<rect width="24" height="24" fill="white" fill-opacity="0.01"/>
<path d="M12 1C12.3939 1 12.7828 1.02115 13.166 1.06152C13.2241 1.06415 13.2823 1.071 13.3398 1.08398C17.2347 1.55709 20.4986 4.06416 22.042 7.5127C22.0693 7.56147 22.0924 7.61263 22.1113 7.66602C22.6822 8.99615 23 10.4608 23 12C23 14.4053 22.2248 16.6281 20.915 18.4385C20.8793 18.5006 20.8373 18.5594 20.7881 18.6133C18.7806 21.2768 15.5922 23 12 23C11.6058 23 11.2165 22.9779 10.833 22.9375C10.7749 22.9348 10.7168 22.9281 10.6592 22.915C6.76435 22.4415 3.50002 19.9352 1.95703 16.4863C1.9298 16.4375 1.90656 16.3864 1.8877 16.333C1.31713 15.0032 1 13.5387 1 12C1 9.5941 1.77462 7.37022 3.08496 5.55957C3.12134 5.49655 3.16365 5.43631 3.21387 5.38184C5.22156 2.72066 8.40958 1 12 1ZM12.5898 20.9775C15.0891 20.8158 17.3087 19.6356 18.8398 17.8457L16.6191 14L12.5898 20.9775ZM4.5166 17C5.84041 18.9774 7.92698 20.3981 10.3555 20.8467L12.5771 17H4.5166ZM20.0723 15.9785C20.6648 14.7786 21 13.4288 21 12C21 10.9479 20.8181 9.93847 20.4863 9H16.042L20.0723 15.9785ZM8.53418 11.999L10.2666 15H13.7324L15.4648 11.999L13.7334 9H10.2676L8.53418 11.999ZM3.92676 8.02051C3.33413 9.2205 3 10.5711 3 12C3 13.0521 3.18191 14.0615 3.51367 15H7.95801L3.92676 8.02051ZM11.4092 3.02148C8.91032 3.18346 6.69018 4.36369 5.15918 6.15332L7.37988 9.99902L11.4092 3.02148ZM11.4229 7H19.4834C18.1594 5.0223 16.0725 3.60069 13.6436 3.15234L11.4229 7Z" fill="black"/>
</svg>
