<svg width="24" height="24" viewBox="0 0 24 24" fill="none" xmlns="http://www.w3.org/2000/svg">
<rect width="24" height="24" fill="white" fill-opacity="0.01"/>
<path d="M16.293 6.29297C16.6835 5.90244 17.3165 5.90244 17.707 6.29297C18.0976 6.68349 18.0976 7.31651 17.707 7.70703L9.41406 16H17C17.5523 16 18 16.4477 18 17C18 17.5523 17.5523 18 17 18H7L6.89746 17.9951C6.87598 17.9929 6.85504 17.9879 6.83398 17.9844C6.82358 17.9826 6.81309 17.9816 6.80273 17.9795C6.79123 17.9772 6.77991 17.9744 6.76855 17.9717C6.74798 17.9668 6.72732 17.9623 6.70703 17.9561C6.65838 17.9412 6.61159 17.9222 6.56641 17.9004C6.52661 17.8812 6.48769 17.8597 6.4502 17.835C6.31255 17.7441 6.19887 17.6203 6.12012 17.4746C6.11269 17.4609 6.10634 17.4466 6.09961 17.4326C6.0778 17.3873 6.05783 17.3408 6.04297 17.292C6.0303 17.2503 6.02176 17.2077 6.01465 17.165C6.00571 17.1113 6 17.0563 6 17V7C6 6.44772 6.44772 6 7 6C7.55228 6 8 6.44772 8 7V14.5859L16.293 6.29297Z" fill="black"/>
</svg>
