<svg width="24" height="24" viewBox="0 0 24 24" fill="none" xmlns="http://www.w3.org/2000/svg">
<rect opacity="0.01" width="24" height="24" fill="#D8D8D8"/>
<path d="M12 1C18.0751 1 23 5.92487 23 12C23 18.0751 18.0751 23 12 23C5.92487 23 1 18.0751 1 12C1 5.92487 5.92487 1 12 1ZM12 3C7.02944 3 3 7.02944 3 12C3 16.9706 7.02944 21 12 21C16.9706 21 21 16.9706 21 12C21 7.02944 16.9706 3 12 3ZM12 7C12.0563 7 12.1113 7.00571 12.165 7.01465C12.1738 7.01611 12.1827 7.01686 12.1914 7.01855L12.2012 7.02051C12.211 7.02252 12.2207 7.02504 12.2305 7.02734C12.251 7.0322 12.2717 7.0368 12.292 7.04297C12.3408 7.05783 12.3873 7.0778 12.4326 7.09961C12.4466 7.10634 12.4609 7.11269 12.4746 7.12012C12.5331 7.15175 12.5879 7.18921 12.6387 7.23145C12.662 7.2509 12.6851 7.27106 12.707 7.29297L16.707 11.293C17.0976 11.6835 17.0976 12.3165 16.707 12.707C16.3165 13.0976 15.6835 13.0976 15.293 12.707L13 10.4141V16C13 16.5523 12.5523 17 12 17C11.4477 17 11 16.5523 11 16V10.4141L8.70703 12.707C8.31651 13.0976 7.68349 13.0976 7.29297 12.707C6.90244 12.3165 6.90244 11.6835 7.29297 11.293L11.293 7.29297C11.3149 7.27106 11.338 7.2509 11.3613 7.23145C11.4119 7.18939 11.4662 7.15167 11.5244 7.12012C11.5382 7.11268 11.5524 7.10635 11.5664 7.09961C11.6117 7.07777 11.6583 7.05787 11.707 7.04297C11.7273 7.03678 11.748 7.03221 11.7686 7.02734C11.7799 7.02465 11.7912 7.02183 11.8027 7.01953C11.8047 7.01914 11.8067 7.01893 11.8086 7.01855L11.8975 7.00488C11.9312 7.00145 11.9654 7 12 7Z" fill="black"/>
</svg>
