<svg width="24" height="24" viewBox="0 0 24 24" fill="none" xmlns="http://www.w3.org/2000/svg">
<rect width="24" height="24" fill="white" fill-opacity="0.01"/>
<path d="M12.707 19.707C12.3165 20.0976 11.6835 20.0976 11.293 19.707C10.9024 19.3165 10.9024 18.6835 11.293 18.293L16.5859 13L5 13C4.44772 13 4 12.5523 4 12C4 11.4477 4.44772 11 5 11L16.5859 11L11.293 5.70703C10.9024 5.31651 10.9024 4.68349 11.293 4.29297C11.6835 3.90244 12.3165 3.90244 12.707 4.29297L19.707 11.293C19.7346 11.3206 19.7595 11.35 19.7832 11.3799C19.8193 11.4255 19.852 11.4739 19.8799 11.5254C19.8873 11.5391 19.8937 11.5534 19.9004 11.5674C19.9222 11.6127 19.9422 11.6592 19.957 11.708C19.9697 11.7497 19.9782 11.7923 19.9854 11.835C19.9943 11.8887 20 11.9437 20 12C20 12.0797 19.9903 12.1571 19.9727 12.2314C19.9678 12.252 19.9632 12.2727 19.957 12.293C19.9421 12.3417 19.9222 12.3883 19.9004 12.4336C19.8812 12.4734 19.8597 12.5123 19.835 12.5498C19.7976 12.6065 19.7548 12.6592 19.707 12.707L12.707 19.707Z" fill="black"/>
</svg>
