<svg width="24" height="24" viewBox="0 0 24 24" fill="none" xmlns="http://www.w3.org/2000/svg">
<rect opacity="0.01" width="24" height="24" fill="#D8D8D8"/>
<path d="M12 4C12.5523 4 13 4.44772 13 5V16.5859L18.293 11.293C18.6835 10.9024 19.3165 10.9024 19.707 11.293C20.0976 11.6835 20.0976 12.3165 19.707 12.707L12.707 19.707C12.6592 19.7548 12.6065 19.7976 12.5498 19.835C12.5121 19.8599 12.4727 19.8811 12.4326 19.9004C12.3874 19.9222 12.3407 19.9412 12.292 19.9561C12.2717 19.9622 12.2511 19.9668 12.2305 19.9717C12.2191 19.9744 12.2078 19.9772 12.1963 19.9795C12.1859 19.9816 12.1754 19.9826 12.165 19.9844C12.1112 19.9933 12.0563 20 12 20C11.9433 20 11.8881 19.9934 11.834 19.9844C11.8236 19.9826 11.8131 19.9816 11.8027 19.9795C11.7912 19.9772 11.7799 19.9744 11.7686 19.9717C11.748 19.9668 11.7273 19.9623 11.707 19.9561C11.6584 19.9412 11.6116 19.9222 11.5664 19.9004C11.5266 19.8812 11.4877 19.8597 11.4502 19.835C11.3935 19.7976 11.3408 19.7548 11.293 19.707L4.29297 12.707C3.90244 12.3165 3.90244 11.6835 4.29297 11.293C4.68349 10.9024 5.31651 10.9024 5.70703 11.293L11 16.5859V5C11 4.44772 11.4477 4 12 4Z" fill="black"/>
</svg>
