<svg width="24" height="24" viewBox="0 0 24 24" fill="none" xmlns="http://www.w3.org/2000/svg">
<rect width="24" height="24" fill="white" fill-opacity="0.01"/>
<path d="M11.293 4.29297C11.6835 3.90244 12.3165 3.90244 12.707 4.29297C13.0976 4.68349 13.0976 5.31651 12.707 5.70703L7.41406 11H19C19.5523 11 20 11.4477 20 12C20 12.5523 19.5523 13 19 13H7.41406L12.707 18.293C13.0976 18.6835 13.0976 19.3165 12.707 19.707C12.3165 20.0976 11.6835 20.0976 11.293 19.707L4.29297 12.707C4.26536 12.6794 4.2405 12.65 4.2168 12.6201C4.18065 12.5745 4.14798 12.5261 4.12012 12.4746C4.11269 12.4609 4.10634 12.4466 4.09961 12.4326C4.0778 12.3873 4.05783 12.3408 4.04297 12.292C4.0303 12.2503 4.02176 12.2077 4.01465 12.165C4.00571 12.1113 4 12.0563 4 12C4 11.9203 4.00973 11.8429 4.02734 11.7686C4.03221 11.748 4.03678 11.7273 4.04297 11.707C4.05787 11.6583 4.07777 11.6117 4.09961 11.5664C4.11877 11.5266 4.1403 11.4877 4.16504 11.4502C4.20242 11.3935 4.24516 11.3408 4.29297 11.293L11.293 4.29297Z" fill="black"/>
</svg>
