<svg width="24" height="24" viewBox="0 0 24 24" fill="none" xmlns="http://www.w3.org/2000/svg">
<rect width="24" height="24" fill="white" fill-opacity="0.01"/>
<path d="M12 4C12.0563 4 12.1113 4.00571 12.165 4.01465C12.1738 4.01611 12.1827 4.01686 12.1914 4.01855L12.2012 4.02051C12.211 4.02252 12.2207 4.02504 12.2305 4.02734C12.251 4.0322 12.2717 4.0368 12.292 4.04297C12.3408 4.05783 12.3873 4.0778 12.4326 4.09961C12.4466 4.10634 12.4609 4.11269 12.4746 4.12012C12.5603 4.16646 12.6387 4.22462 12.707 4.29297L19.707 11.293C20.0976 11.6835 20.0976 12.3165 19.707 12.707C19.3165 13.0976 18.6835 13.0976 18.293 12.707L13 7.41406V19C13 19.5523 12.5523 20 12 20C11.4477 20 11 19.5523 11 19V7.41406L5.70703 12.707C5.31651 13.0976 4.68349 13.0976 4.29297 12.707C3.90244 12.3165 3.90244 11.6835 4.29297 11.293L11.293 4.29297C11.3611 4.22482 11.439 4.16639 11.5244 4.12012C11.5382 4.11268 11.5524 4.10635 11.5664 4.09961C11.6117 4.07777 11.6583 4.05787 11.707 4.04297C11.7273 4.03678 11.748 4.03221 11.7686 4.02734C11.7799 4.02465 11.7912 4.02183 11.8027 4.01953C11.8047 4.01914 11.8067 4.01893 11.8086 4.01855L11.8975 4.00488C11.9312 4.00145 11.9654 4 12 4Z" fill="black"/>
</svg>
