<svg width="24" height="24" viewBox="0 0 24 24" fill="none" xmlns="http://www.w3.org/2000/svg">
<rect width="24" height="24" fill="white" fill-opacity="0.01"/>
<path d="M2.13672 7.13086C4.39975 2.54747 9.52209 0.127382 14.5 1.28906C19.478 2.45077 22.9995 6.88825 23 12V13C23 15.2091 21.2091 17 19 17C17.6545 16.9999 16.4652 16.335 15.7402 15.3164C14.8243 16.3487 13.4886 17 12 17C9.23867 16.9999 7 14.7614 7 12C7.00015 9.23878 9.23877 7.00011 12 7C13.1254 7 14.1644 7.37159 15 7.99902C15.0007 7.44739 15.4482 7.00011 16 7C16.5522 7 16.9998 7.44785 17 8V13C17 14.1045 17.8955 14.9999 19 15C20.1046 15 21 14.1046 21 13V12C20.9996 7.81786 18.1186 4.18691 14.0459 3.23633C9.97295 2.28582 5.78119 4.26636 3.92969 8.0166C2.07825 11.7668 3.055 16.2986 6.28613 18.9541C9.51728 21.6094 14.1522 21.6893 17.4727 19.1465C17.9111 18.8109 18.5382 18.8938 18.874 19.332C19.2098 19.7705 19.1269 20.3986 18.6885 20.7344C14.63 23.8424 8.96482 23.7447 5.01562 20.499C1.0666 17.2533 -0.12619 11.7144 2.13672 7.13086ZM12 9C10.3433 9.00011 9.00015 10.3433 9 12C9 13.6568 10.3432 14.9999 12 15C13.6569 15 15 13.6569 15 12C14.9998 10.3433 13.6568 9 12 9Z" fill="black"/>
</svg>
