<svg width="24" height="24" viewBox="0 0 24 24" fill="none" xmlns="http://www.w3.org/2000/svg">
<rect width="24" height="24" fill="white" fill-opacity="0.01"/>
<path d="M12 0C16.4183 0 20 3.58172 20 8C20 10.5891 18.7688 12.8894 16.8613 14.3516L17.9912 22.8682C18.1013 23.6983 17.2034 24.2883 16.4854 23.8574L12 21.166L7.51465 23.8574C6.79654 24.2883 5.89853 23.6983 6.00879 22.8682L7.13965 14.3525C5.23152 12.8904 4 10.5896 4 8C4 3.58172 7.58172 0 12 0ZM14.9854 15.4209C14.0626 15.7925 13.0558 16 12 16C10.9444 16 9.93734 15.7934 9.01465 15.4219L8.26465 21.0752L11.4854 19.1426C11.802 18.9526 12.198 18.9526 12.5146 19.1426L15.7363 21.0752L14.9854 15.4209ZM12 2C8.68629 2 6 4.68629 6 8C6 11.3137 8.68629 14 12 14C13.1727 14 14.2662 13.6626 15.1904 13.0811C15.2298 13.0515 15.2707 13.0237 15.3145 13C16.9324 11.9253 18 10.088 18 8C18 4.68629 15.3137 2 12 2Z" fill="black"/>
</svg>
