<svg width="24" height="24" viewBox="0 0 24 24" fill="none" xmlns="http://www.w3.org/2000/svg">
<rect width="24" height="24" fill="white" fill-opacity="0.01"/>
<path d="M6.19043 5C6.74248 5.00023 7.19037 5.44791 7.19043 6C7.19043 6.51282 6.80396 6.93538 6.30664 6.99316L6.19043 7H3C2.4872 7 2.06465 7.3865 2.00684 7.88379L2 8V16C2 16.5128 2.38646 16.9354 2.88379 16.9932L3 17H5C5.55225 17 5.99994 17.4478 6 18C6 18.5128 5.61354 18.9354 5.11621 18.9932L5 19H3C1.40248 19 0.0963626 17.7513 0.00488281 16.1768L0 16V8C5.53757e-05 6.40253 1.24869 5.09636 2.82324 5.00488L3 5H6.19043ZM10.168 5.44531C10.4743 4.98586 11.0952 4.86167 11.5547 5.16797C12.0142 5.4743 12.1383 6.09517 11.832 6.55469L8.86816 11H13C13.7987 11 14.275 11.8901 13.832 12.5547L9.83203 18.5547C9.52568 19.0142 8.90484 19.1384 8.44531 18.832C7.98582 18.5257 7.86163 17.9048 8.16797 17.4453L11.1318 13H7C6.2013 13 5.72493 12.1099 6.16797 11.4453L10.168 5.44531ZM17 5C18.5975 5 19.9036 6.24871 19.9951 7.82324L20 8V16C20 17.5975 18.7513 18.9036 17.1768 18.9951L17 19H13.8096C13.2575 18.9998 12.8096 18.5521 12.8096 18C12.8096 17.4872 13.1961 17.0646 13.6934 17.0068L13.8096 17H17C17.5128 17 17.9354 16.6135 17.9932 16.1162L18 16V8C17.9999 7.48721 17.6135 7.0646 17.1162 7.00684L17 7H15C14.4477 7 14 6.55228 14 6C14.0001 5.48721 14.3865 5.0646 14.8838 5.00684L15 5H17ZM23 10C23.5522 10 23.9999 10.4478 24 11V13C24 13.5523 23.5523 14 23 14C22.4477 14 22 13.5523 22 13V11C22.0001 10.4478 22.4478 10 23 10Z" fill="black"/>
</svg>
