<svg width="24" height="24" viewBox="0 0 24 24" fill="none" xmlns="http://www.w3.org/2000/svg">
<rect width="24" height="24" fill="white" fill-opacity="0.01"/>
<path d="M0.292969 0.292969C0.683493 -0.0975555 1.31651 -0.0975555 1.70703 0.292969L6.95898 5.54492C6.96689 5.55267 6.9748 5.56037 6.98242 5.56836L23.707 22.293C24.0976 22.6835 24.0976 23.3165 23.707 23.707C23.3165 24.0976 22.6835 24.0976 22.293 23.707L16.5859 18H3C2.55933 18 2.17067 17.7108 2.04297 17.2891C1.91565 16.8679 2.07867 16.4135 2.44434 16.1689H2.44238L2.48828 16.1318C2.54149 16.0875 2.63072 16.0093 2.74316 15.8906C2.96759 15.6537 3.29028 15.2538 3.62207 14.6455C4.24157 13.5096 4.91103 11.6089 4.99219 8.61328L5 8C4.99901 7.51676 5.04937 7.0352 5.14941 6.56348L0.292969 1.70703C-0.0975555 1.31651 -0.0975555 0.683493 0.292969 0.292969ZM12.8652 20.498C13.1424 20.0205 13.7548 19.8577 14.2324 20.1348C14.7098 20.4119 14.8726 21.0244 14.5957 21.502C14.3321 21.9563 13.9532 22.3334 13.498 22.5957C13.0429 22.8579 12.5262 22.9959 12.001 22.9961C11.4756 22.9961 10.9583 22.8579 10.5029 22.5957C10.0477 22.3334 9.66892 21.9563 9.40527 21.502C9.12816 21.0242 9.29085 20.4119 9.76855 20.1348C10.2462 19.8579 10.8587 20.0205 11.1357 20.498C11.2236 20.6494 11.3493 20.7759 11.501 20.8633C11.6527 20.9506 11.8259 20.9961 12.001 20.9961C12.1758 20.9959 12.3485 20.9506 12.5 20.8633C12.6516 20.7759 12.7774 20.6494 12.8652 20.498ZM6.99414 8.4082C6.93817 11.8286 6.18535 14.1232 5.37793 15.6035C5.30163 15.7434 5.22375 15.875 5.14746 16H14.5859L6.99414 8.4082ZM11.6631 0.998047C12.9295 0.937037 14.1891 1.22142 15.3066 1.82031C16.4243 2.41929 17.3583 3.31096 18.0088 4.39941C18.6592 5.48788 19.0019 6.73296 19 8.00098C19 8.00293 18.999 8.00488 18.999 8.00684C18.999 8.00976 19 8.0127 19 8.01562C18.9745 9.60924 19.1748 11.1988 19.5947 12.7363C19.7402 13.269 19.4261 13.8192 18.8936 13.9648C18.361 14.1101 17.8117 13.7961 17.666 13.2637C17.255 11.7591 17.0314 10.2101 17.001 8.65234L17 7.98438C16.9989 7.08331 16.7543 6.1984 16.292 5.4248C15.8273 4.64742 15.1596 4.0108 14.3613 3.58301C13.5631 3.15531 12.6634 2.95246 11.7588 2.99609C10.8542 3.03978 9.97801 3.3284 9.22461 3.83105C8.76522 4.13733 8.14434 4.01303 7.83789 3.55371C7.53173 3.09435 7.65599 2.47343 8.11523 2.16699C9.17 1.46336 10.3966 1.05915 11.6631 0.998047Z" fill="black"/>
</svg>
