<svg width="24" height="24" viewBox="0 0 24 24" fill="none" xmlns="http://www.w3.org/2000/svg">
<rect width="24" height="24" fill="white" fill-opacity="0.01"/>
<path d="M12.9297 20.4004C13.2292 19.9996 13.788 19.8777 14.2314 20.1348C14.7092 20.4119 14.8718 21.0242 14.5947 21.502C14.058 22.427 13.0695 22.9961 12 22.9961C10.9305 22.9961 9.94201 22.427 9.40527 21.502C9.12815 21.0242 9.29083 20.4119 9.76855 20.1348C10.2462 19.858 10.8577 20.0206 11.1348 20.498L11.2002 20.5967C11.3876 20.8465 11.6832 20.9961 12 20.9961C12.3565 20.9961 12.6864 20.8064 12.8652 20.498L12.9297 20.4004ZM12 1C15.8659 1.00006 19 4.13404 19 8C19 10.8998 19.523 13.0791 20.3779 14.6465C20.6641 15.1711 20.9642 15.5817 21.2568 15.8906C21.415 16.0575 21.5218 16.146 21.5547 16.168L21.6475 16.2373C22.3456 16.8175 21.9498 17.9999 21 18H3C2.01059 18 1.62208 16.7168 2.44531 16.168L2.46777 16.1514C2.51514 16.1142 2.61146 16.0296 2.74316 15.8906C3.03583 15.5817 3.33589 15.1711 3.62207 14.6465C4.477 13.0791 5 10.8998 5 8L5.00391 7.75977C5.13075 4.0052 8.21455 1 12 1ZM12 3C9.23858 3 7 5.23858 7 8L6.99609 8.45605C6.94187 11.4626 6.3493 13.8225 5.37793 15.6035C5.30243 15.7419 5.22644 15.8743 5.15039 16H18.8496C18.7735 15.8743 18.6976 15.7419 18.6221 15.6035C17.6021 13.7334 17 11.2251 17 8C17 5.23861 14.7614 3.00006 12 3Z" fill="black"/>
</svg>
