<svg width="24" height="24" viewBox="0 0 24 24" fill="none" xmlns="http://www.w3.org/2000/svg">
<rect width="24" height="24" fill="white" fill-opacity="0.01"/>
<path d="M13 21C13 22.2917 11.1232 22.332 11.0059 21.1211L11 21H13ZM8 2C9.63574 2 11.0878 2.78565 12 4C12.9122 2.78565 14.3643 2 16 2H22C22.5523 2 23 2.44772 23 3V18C23 18.5523 22.5523 19 22 19H15C13.8954 19 13 19.8954 13 21C13 19.9862 12.6217 19.0614 12 18.3564C11.3783 19.0614 11 19.9862 11 21C11 19.8954 10.1046 19 9 19H2C1.44772 19 1 18.5523 1 18V3C1 2.44772 1.44772 2 2 2H8ZM3 17H9C9.6375 17 10.2405 17.1488 10.7754 17.4141L11 17.5352V7C11 5.34315 9.65685 4 8 4H3V17ZM16 4C14.3431 4 13 5.34315 13 7V17.5352C13.5883 17.1948 14.2714 17 15 17H21V4H16Z" fill="black"/>
</svg>
