<svg width="24" height="24" viewBox="0 0 24 24" fill="none" xmlns="http://www.w3.org/2000/svg">
<rect width="24" height="24" fill="white" fill-opacity="0.01"/>
<path d="M10.5 1.4043C11.4281 0.868521 12.5718 0.867871 13.4961 1.40137L20.5 5.4043C20.8732 5.61979 21.1877 5.90982 21.4316 6.24805C21.4939 6.30948 21.5498 6.37962 21.5957 6.45898C21.6342 6.52554 21.6628 6.59555 21.6846 6.66602C21.8876 7.07376 21.9995 7.52862 22 8V16.001C21.9989 17.0716 21.4271 18.0611 20.4961 18.5986L13.5 22.5957C13.1797 22.7806 12.8333 22.8996 12.4795 22.957C12.337 23.0351 12.1739 23.0801 12 23.0801C11.8263 23.0801 11.6629 23.0359 11.5205 22.958C11.1676 22.9011 10.8225 22.7826 10.5039 22.5986L3.5 18.5957C2.5729 18.0603 2.00113 17.0716 2 16V7.99902C2.00053 7.52753 2.11194 7.07204 2.31543 6.66406C2.33717 6.59421 2.36612 6.52497 2.4043 6.45898C2.45012 6.37983 2.50531 6.30937 2.56738 6.24805C2.81142 5.90967 3.12663 5.61989 3.5 5.4043L10.5 1.4043ZM4 15.999C4.00042 16.3558 4.19108 16.6851 4.49609 16.8613L11 20.5781V12.5869L4 8.53711V15.999ZM13 12.5869V20.5771L19.5 16.8643C19.809 16.6858 19.9996 16.3558 20 16V8.53711L13 12.5869ZM12.5 3.13574C12.1907 2.95728 11.8092 2.95705 11.4961 3.1377L5.03809 6.82715L12 10.8545L18.9609 6.82715L12.5 3.13574Z" fill="black"/>
</svg>
