<svg width="24" height="24" viewBox="0 0 24 24" fill="none" xmlns="http://www.w3.org/2000/svg">
<rect opacity="0.01" width="24" height="24" fill="#D8D8D8"/>
<path d="M14 2C15.6569 2 17 3.34315 17 5V6H20C21.6569 6 23 7.34315 23 9V19C23 20.6569 21.6569 22 20 22H4C2.34315 22 1 20.6569 1 19V9C1 7.34315 2.34315 6 4 6H7V5C7 3.34315 8.34315 2 10 2H14ZM17 20H20C20.5523 20 21 19.5523 21 19V9C21 8.44772 20.5523 8 20 8H17V20ZM9 20H15V8H9V20ZM4 8C3.44772 8 3 8.44772 3 9V19C3 19.5523 3.44772 20 4 20H7V8H4ZM10 4C9.44772 4 9 4.44772 9 5V6H15V5C15 4.44772 14.5523 4 14 4H10Z" fill="black"/>
</svg>
