<svg width="24" height="24" viewBox="0 0 24 24" fill="none" xmlns="http://www.w3.org/2000/svg">
<rect width="24" height="24" fill="white" fill-opacity="0.01"/>
<path d="M0.292969 0.292969C0.683493 -0.0975555 1.31651 -0.0975555 1.70703 0.292969L23.707 22.293C24.0976 22.6835 24.0976 23.3165 23.707 23.707C23.3165 24.0976 22.6835 24.0976 22.293 23.707L20.5859 22H3C1.40248 22 0.0963626 20.7513 0.00488281 19.1768L0 19V8C0 6.40248 1.24866 5.09636 2.82324 5.00488L3 5H3.58594L0.292969 1.70703C-0.0975555 1.31651 -0.0975555 0.683493 0.292969 0.292969ZM3 7C2.48716 7 2.0646 7.38645 2.00684 7.88379L2 8V19C2 19.5128 2.38645 19.9354 2.88379 19.9932L3 20H18.5859L15.3223 16.7363C14.1623 17.7803 12.5593 18.2409 10.9854 17.9219C9.01648 17.5227 7.47729 15.9835 7.07812 14.0146C6.75905 12.4407 7.21871 10.8367 8.2627 9.67676L5.58594 7H3ZM15 2C15.2926 2 15.5683 2.12832 15.7568 2.34668L15.832 2.44531L17.5352 5H21C22.5975 5 23.9036 6.24866 23.9951 7.82324L24 8V17.3398C24 17.8921 23.5523 18.3398 23 18.3398C22.4873 18.3398 22.0648 17.9542 22.0068 17.457L22 17.3398V8C22 7.48716 21.6135 7.0646 21.1162 7.00684L21 7H17C16.7074 7 16.4317 6.87168 16.2432 6.65332L16.168 6.55469L14.4648 4H9C8.44772 4 8 3.55228 8 3C8 2.48716 8.38645 2.0646 8.88379 2.00684L9 2H15ZM9.68066 11.0947C9.10367 11.7835 8.85483 12.7085 9.03906 13.6172C9.27857 14.7985 10.2015 15.7214 11.3828 15.9609C12.2915 16.1452 13.2156 15.8953 13.9043 15.3184L9.68066 11.0947Z" fill="black"/>
</svg>
