<svg width="24" height="24" viewBox="0 0 24 24" fill="none" xmlns="http://www.w3.org/2000/svg">
<rect width="24" height="24" fill="white" fill-opacity="0.01"/>
<path d="M1.29297 19.293C1.68346 18.9025 2.3165 18.9025 2.70703 19.293C3.09756 19.6835 3.09756 20.3165 2.70703 20.707C2.3165 21.0975 1.68346 21.0975 1.29297 20.707C0.902576 20.3165 0.902576 19.6835 1.29297 19.293ZM1.02051 15.9004C1.13089 15.3593 1.65914 15.0099 2.2002 15.1201C4.5571 15.6009 6.40008 17.4429 6.88086 19.7998C6.99114 20.3407 6.64137 20.8689 6.10059 20.9795C5.55959 21.0898 5.03146 20.7411 4.9209 20.2002C4.60044 18.6289 3.372 17.4007 1.80078 17.0801C1.25972 16.9697 0.910305 16.4414 1.02051 15.9004ZM2.11133 11.0557C6.75869 11.5728 10.4274 15.2422 10.9443 19.8896C11.0052 20.4382 10.61 20.9327 10.0615 20.9941C9.51264 21.0552 9.0181 20.6592 8.95703 20.1104C8.54346 16.3924 5.60753 13.4576 1.88965 13.0439C1.34093 12.9827 0.9458 12.4882 1.00684 11.9395C1.06354 11.4299 1.49361 11.0524 1.99414 11.0498L2.11133 11.0557ZM20.001 3C21.5981 3.00041 22.9036 4.24893 22.9951 5.82324L23.001 6V18C23.001 19.5976 21.7514 20.9037 20.1768 20.9951L20.001 21H14.001C13.4487 21 13.001 20.5523 13.001 20C13.001 19.4872 13.3865 19.0647 13.8838 19.0068L14.001 19H20.001C20.5135 18.9996 20.9364 18.6133 20.9941 18.1162L21.001 18V6C21.001 5.48729 20.6143 5.06477 20.1172 5.00684L20.001 5H4.00098C3.48815 5 3.06462 5.38647 3.00684 5.88379L3.00098 6V8C3.00098 8.55202 2.5529 8.99958 2.00098 9C1.48815 9 1.06462 8.61353 1.00684 8.11621L1.00098 8V6C1.00098 4.40233 2.24943 3.09615 3.82422 3.00488L4.00098 3H20.001Z" fill="black"/>
</svg>
