<svg width="24" height="24" viewBox="0 0 24 24" fill="none" xmlns="http://www.w3.org/2000/svg">
<rect width="24" height="24" fill="white" fill-opacity="0.01"/>
<path d="M3.6377 4.84766C6.80285 1.14443 12.0277 -0.0354565 16.4775 1.94727C16.9817 2.17221 17.2081 2.76327 16.9834 3.26758C16.7586 3.77194 16.1675 3.99819 15.6631 3.77344C12.0224 2.15129 7.74784 3.11759 5.1582 6.14746C2.56876 9.17736 2.28087 13.5499 4.4502 16.8936C6.61965 20.237 10.7297 21.7551 14.5518 20.625C18.374 19.4949 20.9977 15.9852 21 12V11.0801C21.0002 10.528 21.4479 10.0801 22 10.0801C22.5522 10.0801 22.9998 10.528 23 11.0801V12.001C22.9972 16.8724 19.7906 21.1616 15.1191 22.543C10.4475 23.9242 5.42394 22.0682 2.77246 17.9814C0.121067 13.8947 0.472689 8.55085 3.6377 4.84766ZM21.293 3.29395C21.6833 2.90327 22.3163 2.90266 22.707 3.29297C23.0975 3.6832 23.098 4.31632 22.708 4.70703L12.708 14.7168C12.3176 15.1076 11.6836 15.1083 11.293 14.7178L8.29297 11.7178C7.90251 11.3273 7.90263 10.6943 8.29297 10.3037C8.68349 9.91319 9.31651 9.91319 9.70703 10.3037L12 12.5957L21.293 3.29395Z" fill="black"/>
</svg>
