<svg width="24" height="24" viewBox="0 0 24 24" fill="none" xmlns="http://www.w3.org/2000/svg">
<rect opacity="0.01" width="24" height="24" fill="#D8D8D8"/>
<path d="M16 2C16.5523 2 17 2.44772 17 3C17 3.55228 16.5523 4 16 4H5C4.44772 4 4 4.44772 4 5V19C4 19.5523 4.44772 20 5 20H19C19.5523 20 20 19.5523 20 19V12C20 11.4477 20.4477 11 21 11C21.5523 11 22 11.4477 22 12V19C22 20.6569 20.6569 22 19 22H5C3.34315 22 2 20.6569 2 19V5C2 3.34315 3.34315 2 5 2H16ZM21.293 3.29297C21.6835 2.90244 22.3165 2.90244 22.707 3.29297C23.0976 3.68349 23.0976 4.31651 22.707 4.70703L12.707 14.707C12.3165 15.0976 11.6835 15.0976 11.293 14.707L8.29297 11.707C7.90244 11.3165 7.90244 10.6835 8.29297 10.293C8.68349 9.90244 9.31651 9.90244 9.70703 10.293L12 12.5859L21.293 3.29297Z" fill="black"/>
</svg>
