<svg width="24" height="24" viewBox="0 0 24 24" fill="none" xmlns="http://www.w3.org/2000/svg">
<rect width="24" height="24" fill="white" fill-opacity="0.01"/>
<path d="M11.293 12.293C11.6835 11.9024 12.3165 11.9024 12.707 12.293L17.707 17.293C18.0976 17.6835 18.0976 18.3165 17.707 18.707C17.3165 19.0976 16.6835 19.0976 16.293 18.707L12 14.4141L7.70703 18.707C7.31651 19.0976 6.68349 19.0976 6.29297 18.707C5.90244 18.3165 5.90244 17.6835 6.29297 17.293L11.293 12.293ZM11.293 5.29297C11.6835 4.90244 12.3165 4.90244 12.707 5.29297L17.707 10.293C18.0976 10.6835 18.0976 11.3165 17.707 11.707C17.3165 12.0976 16.6835 12.0976 16.293 11.707L12 7.41406L7.70703 11.707C7.31651 12.0976 6.68349 12.0976 6.29297 11.707C5.90244 11.3165 5.90244 10.6835 6.29297 10.293L11.293 5.29297Z" fill="black"/>
</svg>
