<svg width="24" height="24" viewBox="0 0 24 24" fill="none" xmlns="http://www.w3.org/2000/svg">
<rect width="24" height="24" fill="white" fill-opacity="0.01"/>
<path d="M10.293 6.29297C10.6835 5.90244 11.3165 5.90244 11.707 6.29297C12.0976 6.68349 12.0976 7.31651 11.707 7.70703L7.41406 12L11.707 16.293C12.0976 16.6835 12.0976 17.3165 11.707 17.707C11.3165 18.0976 10.6835 18.0976 10.293 17.707L5.29297 12.707C4.90244 12.3165 4.90244 11.6835 5.29297 11.293L10.293 6.29297ZM17.293 6.29297C17.6835 5.90244 18.3165 5.90244 18.707 6.29297C19.0976 6.68349 19.0976 7.31651 18.707 7.70703L14.4141 12L18.707 16.293C19.0976 16.6835 19.0976 17.3165 18.707 17.707C18.3165 18.0976 17.6835 18.0976 17.293 17.707L12.293 12.707C11.9024 12.3165 11.9024 11.6835 12.293 11.293L17.293 6.29297Z" fill="black"/>
</svg>
