<svg width="24" height="24" viewBox="0 0 24 24" fill="none" xmlns="http://www.w3.org/2000/svg">
<rect opacity="0.01" width="24" height="24" fill="#D8D8D8"/>
<path d="M18.3633 4.22266C18.7538 3.83213 19.3878 3.83213 19.7783 4.22266C20.1685 4.61312 20.1685 5.24625 19.7783 5.63672L13.4141 12L19.7783 18.3643C20.1688 18.7548 20.1688 19.3888 19.7783 19.7793C19.3878 20.1698 18.7538 20.1698 18.3633 19.7793L11.999 13.415L5.63574 19.7793C5.24527 20.1695 4.61215 20.1695 4.22168 19.7793C3.83116 19.3888 3.83116 18.7548 4.22168 18.3643L10.585 12L4.22168 5.63672C3.83116 5.24619 3.83116 4.61318 4.22168 4.22266C4.6122 3.83213 5.24522 3.83213 5.63574 4.22266L11.999 10.5859L18.3633 4.22266Z" fill="black"/>
</svg>
