<svg width="24" height="24" viewBox="0 0 24 24" fill="none" xmlns="http://www.w3.org/2000/svg">
<rect x="0.00683594" width="24" height="24" fill="white" fill-opacity="0.01"/>
<path fill-rule="evenodd" clip-rule="evenodd" d="M18.0064 8.99916C21.3201 8.99916 24.0064 11.6854 24.0064 14.9992C24.0064 18.3129 21.3201 20.9992 18.0064 20.9992H9.00712C4.32922 21.0026 0.428548 17.4219 0.0326909 12.7608C-0.363166 8.09964 2.87778 3.91236 7.48928 3.12693C11.7501 2.40122 15.8683 4.80325 17.3924 8.74545L17.4861 8.99916H18.0064ZM7.82509 5.09854C4.23837 5.70943 1.71763 8.9662 2.02552 12.5915C2.33341 16.2168 5.36726 19.0019 9.00637 18.9992H18.0064C20.2155 18.9992 22.0064 17.2083 22.0064 14.9992C22.0064 12.79 20.2155 10.9992 18.0064 10.9992H16.7464C16.2904 10.9992 15.8921 10.6907 15.7781 10.2492C14.8685 6.72632 11.4118 4.48764 7.82509 5.09854Z" fill="black"/>
</svg>
