<svg width="24" height="24" viewBox="0 0 24 24" fill="none" xmlns="http://www.w3.org/2000/svg">
<rect x="0.00585938" width="24" height="24" fill="white" fill-opacity="0.01"/>
<path d="M11.2988 21.292C11.6893 20.9019 12.3225 20.9017 12.7129 21.292C13.1034 21.6825 13.1034 22.3165 12.7129 22.707C12.3225 23.0973 11.6893 23.0972 11.2988 22.707C10.9083 22.3165 10.9083 21.6825 11.2988 21.292ZM7.29883 19.292C7.68933 18.9019 8.32247 18.9017 8.71289 19.292C9.10341 19.6825 9.10341 20.3165 8.71289 20.707C8.32247 21.0973 7.68933 21.0972 7.29883 20.707C6.9083 20.3165 6.9083 19.6825 7.29883 19.292ZM15.2988 19.292C15.6893 18.9019 16.3225 18.9017 16.7129 19.292C17.1034 19.6825 17.1034 20.3165 16.7129 20.707C16.3225 21.0973 15.6893 21.0972 15.2988 20.707C14.9083 20.3165 14.9083 19.6825 15.2988 19.292ZM11.2988 17.292C11.6893 16.9019 12.3225 16.9017 12.7129 17.292C13.1034 17.6825 13.1034 18.3165 12.7129 18.707C12.3225 19.0973 11.6893 19.0972 11.2988 18.707C10.9083 18.3165 10.9083 17.6825 11.2988 17.292ZM9.50586 1.01367C13.1528 1.21907 16.2858 3.60242 17.4854 6.99902H18.0068C20.8453 7.00236 23.293 8.99488 23.873 11.7734C24.453 14.5518 23.0069 17.3563 20.4072 18.4951C19.9013 18.7167 19.3114 18.4864 19.0898 17.9805C18.8684 17.4746 19.0986 16.8846 19.6045 16.6631C21.3377 15.9039 22.3017 14.034 21.915 12.1816C21.5282 10.3296 19.8968 9.00134 18.0059 8.99902H16.7461C16.2903 8.99902 15.8915 8.69128 15.7773 8.25C15.0158 5.30085 12.4346 3.18209 9.39355 3.01074C6.35239 2.83949 3.5498 4.65492 2.46191 7.5C1.37409 10.3451 2.25035 13.5673 4.62988 15.4688C5.06116 15.8136 5.13183 16.4426 4.78711 16.874C4.44235 17.3054 3.81327 17.375 3.38184 17.0303C0.3224 14.5855 -0.80496 10.4431 0.59375 6.78516C1.99255 3.12739 5.59592 0.793501 9.50586 1.01367ZM7.29883 15.292C7.68933 14.9019 8.32247 14.9017 8.71289 15.292C9.10341 15.6825 9.10341 16.3165 8.71289 16.707C8.32247 17.0973 7.68933 17.0972 7.29883 16.707C6.9083 16.3165 6.9083 15.6825 7.29883 15.292ZM15.2988 15.292C15.6893 14.9019 16.3225 14.9017 16.7129 15.292C17.1034 15.6825 17.1034 16.3165 16.7129 16.707C16.3225 17.0973 15.6893 17.0972 15.2988 16.707C14.9083 16.3165 14.9083 15.6825 15.2988 15.292Z" fill="black"/>
</svg>
