<svg width="25" height="24" viewBox="0 0 25 24" fill="none" xmlns="http://www.w3.org/2000/svg">
<rect x="0.129883" width="24" height="24" fill="white" fill-opacity="0.01"/>
<path d="M0.422852 0.292969C0.81338 -0.0974995 1.44641 -0.0975369 1.83691 0.292969L23.8369 22.293C24.2274 22.6835 24.2274 23.3165 23.8369 23.707C23.4464 24.0975 22.8134 24.0975 22.4229 23.707L19.5449 20.8291C19.1789 20.9184 18.8049 20.973 18.4277 20.9922L18.1299 21H8.87109C4.85414 20.9432 1.34554 18.2225 0.304688 14.3193C-0.645992 10.7532 0.682085 7.01924 3.55371 4.83789L0.422852 1.70703C0.0323273 1.31651 0.0323273 0.683493 0.422852 0.292969ZM4.98438 6.26855C2.59902 7.93799 1.47387 10.9413 2.2373 13.8047C3.04299 16.8254 5.74933 18.935 8.86914 18.999H17.7148L4.98438 6.26855ZM9.9082 3.00391C13.3554 3.30858 16.288 5.55446 17.5117 8.72559L17.6123 9H18.1289C20.1423 8.99772 22.0227 10.0058 23.1357 11.6836C24.2485 13.3615 24.4453 15.4859 23.6602 17.3398C23.4447 17.8482 22.8581 18.0855 22.3496 17.8701C21.8413 17.6546 21.604 17.068 21.8193 16.5596C22.3426 15.3237 22.2106 13.9076 21.4688 12.7891C20.7704 11.7364 19.6192 11.0783 18.3662 11.0059L18.1299 11H16.8701C16.4127 11 16.0131 10.6894 15.9004 10.2461C15.1682 7.3634 12.6941 5.25779 9.73145 4.99609C9.18162 4.94734 8.77492 4.46195 8.82324 3.91211C8.86851 3.40142 9.29063 3.01378 9.79102 3L9.9082 3.00391Z" fill="black"/>
</svg>
