<svg width="24" height="24" viewBox="0 0 24 24" fill="none" xmlns="http://www.w3.org/2000/svg">
<rect x="0.00634766" width="24" height="24" fill="white" fill-opacity="0.01"/>
<path d="M12.0063 19.999C12.5584 19.9991 13.0061 20.447 13.0063 20.999V22.999C13.0063 23.5512 12.5585 23.9989 12.0063 23.999C11.4541 23.999 11.0063 23.5513 11.0063 22.999V20.999C11.0066 20.447 11.4542 19.999 12.0063 19.999ZM8.00635 17.999C8.55838 17.9991 9.00609 18.447 9.00635 18.999V20.999C9.00635 21.5512 8.55854 21.9989 8.00635 21.999C7.45406 21.999 7.00635 21.5513 7.00635 20.999V18.999C7.00661 18.447 7.45422 17.999 8.00635 17.999ZM16.0063 17.999C16.5584 17.9991 17.0061 18.447 17.0063 18.999V20.999C17.0063 21.5512 16.5585 21.9989 16.0063 21.999C15.4541 21.999 15.0063 21.5513 15.0063 20.999V18.999C15.0066 18.447 15.4542 17.999 16.0063 17.999ZM12.0063 13.999C12.5584 13.9991 13.0061 14.447 13.0063 14.999V16.999C13.0063 17.5512 12.5585 17.9989 12.0063 17.999C11.4541 17.999 11.0063 17.5513 11.0063 16.999V14.999C11.0066 14.447 11.4542 13.999 12.0063 13.999ZM9.50635 0.0136719C13.1533 0.219068 16.2863 2.60242 17.4858 5.99902H18.0073C20.8458 6.00236 23.2935 7.99488 23.8735 10.7734C24.4535 13.5518 23.0074 16.3563 20.4077 17.4951C19.9018 17.7167 19.3119 17.4864 19.0903 16.9805C18.8688 16.4746 19.0991 15.8846 19.605 15.6631C21.3382 14.9039 22.3022 13.034 21.9155 11.1816C21.5287 9.32957 19.8972 8.00134 18.0063 7.99902H16.7466C16.2907 7.99902 15.892 7.69128 15.7778 7.25C15.0162 4.30085 12.4351 2.18209 9.39404 2.01074C6.35288 1.83949 3.55029 3.65492 2.4624 6.5C1.37458 9.34506 2.25084 12.5673 4.63037 14.4688C5.06164 14.8136 5.13232 15.4426 4.7876 15.874C4.44283 16.3054 3.81376 16.375 3.38232 16.0303C0.322888 13.5855 -0.804472 9.44312 0.594238 5.78516C1.99304 2.12739 5.5964 -0.206499 9.50635 0.0136719ZM8.00635 11.999C8.55838 11.9991 9.00609 12.447 9.00635 12.999V14.999C9.00635 15.5512 8.55854 15.9989 8.00635 15.999C7.45406 15.999 7.00635 15.5513 7.00635 14.999V12.999C7.00661 12.447 7.45422 11.999 8.00635 11.999ZM16.0063 11.999C16.5584 11.9991 17.0061 12.447 17.0063 12.999V14.999C17.0063 15.5512 16.5585 15.9989 16.0063 15.999C15.4541 15.999 15.0063 15.5513 15.0063 14.999V12.999C15.0066 12.447 15.4542 11.999 16.0063 11.999Z" fill="black"/>
</svg>
