<svg width="25" height="24" viewBox="0 0 25 24" fill="none" xmlns="http://www.w3.org/2000/svg">
<rect x="0.00683594" width="24" height="24" fill="white" fill-opacity="0.01"/>
<path d="M12.1743 10.4443C12.4807 9.98481 13.1025 9.86064 13.562 10.167C14.0212 10.4733 14.1453 11.0943 13.8394 11.5537L10.8755 15.999H15.0073C15.8056 15.9994 16.2818 16.8893 15.8394 17.5537L11.8394 23.5537C11.533 24.0132 10.9112 24.1374 10.4517 23.8311C9.99253 23.5246 9.86809 22.9037 10.1743 22.4443L13.1382 17.999H9.00732C8.20864 17.999 7.7313 17.1089 8.17432 16.4443L12.1743 10.4443ZM9.00146 0C12.8415 0.000176901 16.227 2.43091 17.4868 5.99902H18.0054C21.0879 5.99593 23.6721 8.32957 23.9819 11.3965C24.2916 14.4633 22.2264 17.2655 19.2056 17.8789C18.6645 17.9887 18.1369 17.6396 18.0269 17.0986C17.917 16.5574 18.2669 16.0288 18.8081 15.9189C20.8217 15.5099 22.198 13.642 21.9917 11.5977C21.7852 9.55321 20.0631 7.9972 18.0073 7.99902H16.7466C16.2907 7.99891 15.8928 7.69042 15.7788 7.24902C14.9805 4.15899 12.1929 2.00019 9.00146 2C5.8098 2 3.02145 4.15883 2.22314 7.24902C1.42497 10.3392 2.81857 13.5782 5.61084 15.124C6.09403 15.3915 6.2689 16.0002 6.00146 16.4834C5.73401 16.9666 5.12529 17.1415 4.64209 16.874C1.05201 14.8866 -0.739606 10.7221 0.286621 6.74902C1.31293 2.77579 4.89781 0 9.00146 0Z" fill="black"/>
</svg>
