<svg width="24" height="24" viewBox="0 0 24 24" fill="none" xmlns="http://www.w3.org/2000/svg">
<rect width="24" height="24" fill="white" fill-opacity="0.01"/>
<path d="M7.29297 5.29297C7.68349 4.90244 8.31651 4.90244 8.70703 5.29297C9.09756 5.68349 9.09756 6.31651 8.70703 6.70703L3.41406 12L8.70703 17.293C9.09756 17.6835 9.09756 18.3165 8.70703 18.707C8.31651 19.0976 7.68349 19.0976 7.29297 18.707L1.29297 12.707C0.902444 12.3165 0.902444 11.6835 1.29297 11.293L7.29297 5.29297ZM15.293 5.29297C15.6835 4.90244 16.3165 4.90244 16.707 5.29297L22.707 11.293C23.0976 11.6835 23.0976 12.3165 22.707 12.707L16.707 18.707C16.3165 19.0976 15.6835 19.0976 15.293 18.707C14.9024 18.3165 14.9024 17.6835 15.293 17.293L20.5859 12L15.293 6.70703C14.9024 6.31651 14.9024 5.68349 15.293 5.29297Z" fill="black"/>
</svg>
