<svg width="24" height="24" viewBox="0 0 24 24" fill="none" xmlns="http://www.w3.org/2000/svg">
<rect width="24" height="24" fill="white" fill-opacity="0.01"/>
<path d="M10.5 1.4043C11.4281 0.868477 12.5718 0.867921 13.4961 1.40137L16.6963 3.23047C16.9052 3.27237 17.1002 3.37963 17.2471 3.54492L20.5 5.4043C20.8732 5.61977 21.1877 5.90986 21.4316 6.24805C21.4939 6.30948 21.5497 6.37962 21.5957 6.45898C21.6335 6.52431 21.6619 6.59299 21.6836 6.66211C21.8878 7.07077 21.9995 7.52723 22 8V16.001C21.9989 17.0717 21.4272 18.0611 20.4961 18.5986L17.2441 20.4561C17.102 20.6148 16.9108 20.7279 16.6934 20.7705L13.5 22.5957C13.1796 22.7807 12.8333 22.8996 12.4795 22.957C12.3371 23.035 12.1738 23.0801 12 23.0801C11.8263 23.08 11.6628 23.0359 11.5205 22.958C11.1676 22.9011 10.8225 22.7825 10.5039 22.5986L7.30469 20.7705C7.08789 20.7275 6.89664 20.6146 6.75488 20.4561L3.5 18.5957C2.57298 18.0603 2.00113 17.0716 2 16V7.99902C2.00053 7.52726 2.11172 7.07125 2.31543 6.66309C2.33714 6.59353 2.36628 6.52471 2.4043 6.45898C2.44975 6.38046 2.50495 6.31098 2.56641 6.25C2.81063 5.91083 3.12596 5.62028 3.5 5.4043L6.75293 3.54492C6.89984 3.37957 7.0948 3.27143 7.30371 3.22949L10.5 1.4043ZM4 11.4229L8 13.7344C8.30924 13.913 8.5 14.2434 8.5 14.6006V19.1494L11 20.5781V12.5869L4 8.53711V11.4229ZM13 12.5869V20.5771L15.5 19.1494V14.6006C15.5 14.2434 15.6908 13.913 16 13.7344L20 11.4229V8.53711L13 12.5869ZM17.5 15.1777V18.0068L19.5 16.8643C19.8091 16.6858 19.9996 16.3558 20 16V13.7324L17.5 15.1777ZM4 15.999C4.00042 16.3557 4.19116 16.6851 4.49609 16.8613L6.5 18.0059V15.1777L4 13.7324V15.999ZM12.5 7.67578C12.1905 7.8545 11.8095 7.85459 11.5 7.67578L7.54883 5.39258L5.03809 6.82715L12 10.8545L18.9609 6.82715L16.4502 5.39258L12.5 7.67578ZM12.5 3.13574C12.1907 2.95733 11.8092 2.957 11.4961 3.1377L9.55762 4.24414L12 5.65527L14.4404 4.24414L12.5 3.13574Z" fill="black"/>
</svg>
