<svg width="24" height="24" viewBox="0 0 24 24" fill="none" xmlns="http://www.w3.org/2000/svg">
<rect width="24" height="24" fill="white" fill-opacity="0.01"/>
<path d="M12 1C12.0464 1 12.092 1.00365 12.1367 1.00977C12.14 1.01022 12.1432 1.01123 12.1465 1.01172C12.2391 1.02533 12.3276 1.05073 12.4102 1.08789C12.4168 1.09087 12.4231 1.09452 12.4297 1.09766C12.4774 1.12039 12.5233 1.14608 12.5664 1.17578L22.5215 7.64648C22.6356 7.71615 22.7377 7.81019 22.8193 7.92676C22.8633 7.98953 22.8981 8.05595 22.9258 8.12402C22.9293 8.13271 22.9323 8.1416 22.9355 8.15039C22.9468 8.18041 22.9566 8.21059 22.9648 8.24121C22.9664 8.24709 22.9683 8.25288 22.9697 8.25879C22.989 8.33644 22.9986 8.41531 22.999 8.49414C22.999 8.49601 23 8.49813 23 8.5V15.5C23 15.5016 22.999 15.5033 22.999 15.5049C22.9987 15.584 22.9891 15.6632 22.9697 15.7412C22.9683 15.7468 22.9663 15.7522 22.9648 15.7578C22.9567 15.7884 22.9468 15.8186 22.9355 15.8486C22.9323 15.8574 22.9293 15.8663 22.9258 15.875C22.898 15.9434 22.8634 16.0102 22.8193 16.0732C22.795 16.108 22.768 16.1402 22.7402 16.1709C22.7347 16.177 22.7284 16.1825 22.7227 16.1885C22.7012 16.211 22.6794 16.2327 22.6562 16.2529C22.6493 16.259 22.6419 16.2646 22.6348 16.2705C22.6107 16.2903 22.5861 16.3089 22.5605 16.3262C22.5551 16.3299 22.5505 16.3352 22.5449 16.3389L12.5449 22.8389C12.5388 22.8428 12.5315 22.8448 12.5254 22.8486C12.4951 22.8674 12.464 22.8848 12.4316 22.9004C12.4241 22.904 12.4168 22.9077 12.4092 22.9111C12.3694 22.929 12.3285 22.9444 12.2861 22.957C12.278 22.9595 12.2699 22.9617 12.2617 22.9639C12.2294 22.9726 12.1966 22.9798 12.1631 22.9854C12.151 22.9873 12.1391 22.9897 12.127 22.9912C12.0853 22.9965 12.043 23 12 23C11.9566 23 11.914 22.9966 11.8721 22.9912C11.86 22.9897 11.848 22.9874 11.8359 22.9854C11.8024 22.9798 11.7696 22.9726 11.7373 22.9639C11.7291 22.9616 11.721 22.9595 11.7129 22.957C11.6706 22.9444 11.6296 22.9291 11.5898 22.9111C11.5823 22.9077 11.5749 22.904 11.5674 22.9004C11.535 22.8848 11.5039 22.8675 11.4736 22.8486C11.4677 22.845 11.4609 22.8427 11.4551 22.8389L1.45508 16.3389C1.44928 16.3351 1.44418 16.33 1.43848 16.3262C1.41298 16.3088 1.38827 16.2903 1.36426 16.2705C1.35711 16.2646 1.34974 16.259 1.34277 16.2529C1.31967 16.2327 1.29779 16.211 1.27637 16.1885C1.27065 16.1825 1.26434 16.177 1.25879 16.1709C1.23122 16.1404 1.20486 16.1078 1.18066 16.0732C1.13649 16.0101 1.10103 15.9435 1.07324 15.875C1.06973 15.8663 1.06675 15.8574 1.06348 15.8486C1.05228 15.8186 1.04235 15.7884 1.03418 15.7578C1.03269 15.7522 1.03069 15.7468 1.0293 15.7412C1.01099 15.6675 1.00125 15.5924 1 15.5176V8.48242C1.00125 8.40755 1.01099 8.33252 1.0293 8.25879C1.03077 8.25289 1.03261 8.24708 1.03418 8.24121C1.04237 8.21062 1.05226 8.18038 1.06348 8.15039C1.06676 8.14161 1.06972 8.1327 1.07324 8.12402C1.10098 8.05583 1.13667 7.98963 1.18066 7.92676C1.2621 7.81043 1.36367 7.71611 1.47754 7.64648L11.4326 1.17578C11.4757 1.14606 11.5217 1.12042 11.5693 1.09766C11.5759 1.09452 11.5822 1.09088 11.5889 1.08789C11.6713 1.05066 11.76 1.02541 11.8525 1.01172C11.8558 1.01123 11.859 1.01022 11.8623 1.00977C11.9073 1.00356 11.9533 1 12 1ZM3.78711 15.4688L11 20.1572V16.0205L7 13.2197L3.78711 15.4688ZM13 16.0205V20.1572L20.2119 15.4688L16.999 13.2197L13 16.0205ZM8.74316 11.999L12 14.2793L15.2559 11.999L12 9.7207L8.74316 11.999ZM3 13.5791L5.25586 11.999L3 10.4199V13.5791ZM18.7432 11.999L21 13.5791V10.4199L18.7432 11.999ZM3.78711 8.53027L7 10.7793L11 7.97852V3.84277L3.78711 8.53027ZM13 7.97852L16.999 10.7783L20.2119 8.53027L13 3.84277V7.97852Z" fill="black"/>
</svg>
