<svg width="24" height="24" viewBox="0 0 24 24" fill="none" xmlns="http://www.w3.org/2000/svg">
<rect width="24" height="24" fill="white" fill-opacity="0.01"/>
<path d="M19 7C21.7614 7 24 9.23858 24 12C24 14.7614 21.7614 17 19 17C19 19.7614 16.7614 22 14 22H6C3.23858 22 1 19.7614 1 17V8C1 7.44772 1.44772 7 2 7H19ZM3 17C3 18.6569 4.34315 20 6 20H14C15.6569 20 17 18.6569 17 17V9H3V17ZM19 15C20.6569 15 22 13.6569 22 12C22 10.3431 20.6569 9 19 9V15ZM6 0C6.55228 0 7 0.447715 7 1V4C7 4.55228 6.55228 5 6 5C5.44772 5 5 4.55228 5 4V1C5 0.447715 5.44772 0 6 0ZM10 0C10.5523 0 11 0.447715 11 1V4C11 4.55228 10.5523 5 10 5C9.44772 5 9 4.55228 9 4V1C9 0.447715 9.44772 0 10 0ZM14 0C14.5523 0 15 0.447715 15 1V4C15 4.55228 14.5523 5 14 5C13.4477 5 13 4.55228 13 4V1C13 0.447715 13.4477 0 14 0Z" fill="black"/>
</svg>
