<svg width="24" height="24" viewBox="0 0 24 24" fill="none" xmlns="http://www.w3.org/2000/svg">
<rect width="24" height="24" fill="white" fill-opacity="0.01"/>
<path d="M12 1C18.0751 1 23 5.92487 23 12C23 18.0751 18.0751 23 12 23C5.92487 23 1 18.0751 1 12C1 5.92487 5.92487 1 12 1ZM12 3C7.02944 3 3 7.02944 3 12C3 16.9706 7.02944 21 12 21C16.9706 21 21 16.9706 21 12C21 7.02944 16.9706 3 12 3ZM15.9238 6.81152C16.7055 6.55105 17.4489 7.29449 17.1885 8.07617L15.0684 14.4365C14.9688 14.7347 14.7347 14.9688 14.4365 15.0684L8.07617 17.1885C7.29449 17.4489 6.55105 16.7055 6.81152 15.9238L8.93066 9.56348C9.03021 9.26496 9.26496 9.03021 9.56348 8.93066L15.9238 6.81152ZM10.6699 10.6699L9.34082 14.6582L13.3291 13.3291L14.6582 9.34082L10.6699 10.6699Z" fill="black"/>
</svg>
