<svg width="24" height="24" viewBox="0 0 24 24" fill="none" xmlns="http://www.w3.org/2000/svg">
<rect width="24" height="24" fill="white" fill-opacity="0.01"/>
<path d="M19.633 16.4562C19.5824 16.5798 19.5076 16.692 19.413 16.7862L14.783 21.4162C14.5956 21.6025 14.3422 21.707 14.078 21.707C13.8138 21.707 13.5603 21.6025 13.373 21.4162C13.2792 21.3233 13.2048 21.2127 13.1541 21.0908C13.1033 20.969 13.0772 20.8382 13.0772 20.7062C13.0772 20.5742 13.1033 20.4435 13.1541 20.3217C13.2048 20.1998 13.2792 20.0892 13.373 19.9962L16.293 17.0762L8.29297 17.0762C7.2321 17.0762 6.21469 16.6548 5.46454 15.9047C4.7144 15.1545 4.29297 14.1371 4.29297 13.0762L4.29297 2.70624C4.29297 2.44102 4.39832 2.18667 4.58586 1.99913C4.7734 1.81159 5.02775 1.70624 5.29297 1.70624C5.55818 1.70624 5.81254 1.81159 6.00007 1.99913C6.18761 2.18667 6.29297 2.44102 6.29297 2.70624L6.29297 13.0762C6.29297 13.6067 6.50368 14.1154 6.87875 14.4905C7.25383 14.8655 7.76254 15.0762 8.29297 15.0762L16.293 15.0762L13.373 12.1562C13.2319 12.0164 13.1358 11.8377 13.0967 11.6429C13.0576 11.4482 13.0774 11.2462 13.1536 11.0628C13.2298 10.8793 13.3588 10.7227 13.5244 10.6129C13.6899 10.5031 13.8843 10.4451 14.083 10.4462C14.3467 10.45 14.5983 10.5578 14.783 10.7462L19.413 15.3662C19.5052 15.4662 19.5796 15.5812 19.633 15.7062C19.7303 15.9468 19.7303 16.2157 19.633 16.4562Z" fill="black"/>
</svg>
