<svg width="24" height="24" viewBox="0 0 24 24" fill="none" xmlns="http://www.w3.org/2000/svg">
<rect opacity="0.01" width="24" height="24" fill="#D8D8D8"/>
<path d="M7.24982 4.07211C7.12623 4.12267 7.01402 4.19748 6.91982 4.29211L2.28982 8.92211C2.10357 9.10947 1.99902 9.36292 1.99902 9.62711C1.99902 9.8913 2.10357 10.1447 2.28982 10.3321C2.38278 10.4258 2.49338 10.5002 2.61524 10.551C2.7371 10.6018 2.8678 10.6279 2.99982 10.6279C3.13183 10.6279 3.26253 10.6018 3.38439 10.551C3.50625 10.5002 3.61685 10.4258 3.70982 10.3321L6.62982 7.41211L6.62982 15.4121C6.62982 16.473 7.05124 17.4904 7.80139 18.2405C8.55153 18.9907 9.56895 19.4121 10.6298 19.4121L20.9998 19.4121C21.265 19.4121 21.5194 19.3068 21.7069 19.1192C21.8945 18.9317 21.9998 18.6773 21.9998 18.4121C21.9998 18.1469 21.8945 17.8925 21.7069 17.705C21.5194 17.5175 21.265 17.4121 20.9998 17.4121L10.6298 17.4121C10.0994 17.4121 9.59067 17.2014 9.2156 16.8263C8.84053 16.4513 8.62982 15.9425 8.62982 15.4121L8.62982 7.41211L11.5498 10.3321C11.6897 10.4731 11.8684 10.5693 12.0631 10.6084C12.2579 10.6475 12.4599 10.6276 12.6433 10.5515C12.8267 10.4753 12.9833 10.3462 13.0931 10.1807C13.2029 10.0152 13.261 9.82073 13.2598 9.62211C13.2561 9.35834 13.1482 9.10674 12.9598 8.92211L8.33982 4.29211C8.23989 4.19989 8.12489 4.12548 7.99982 4.07211C7.75928 3.97481 7.49035 3.97481 7.24982 4.07211Z" fill="black"/>
</svg>
