<svg width="24" height="24" viewBox="0 0 24 24" fill="none" xmlns="http://www.w3.org/2000/svg">
<rect width="24" height="24" fill="white" fill-opacity="0.01"/>
<path d="M4.36605 16.4562C4.41662 16.5798 4.49143 16.692 4.58606 16.7862L9.21605 21.4162C9.40342 21.6025 9.65687 21.707 9.92105 21.707C10.1852 21.707 10.4387 21.6025 10.6261 21.4162C10.7198 21.3233 10.7942 21.2127 10.8449 21.0908C10.8957 20.969 10.9219 20.8382 10.9219 20.7062C10.9219 20.5742 10.8957 20.4435 10.8449 20.3217C10.7942 20.1998 10.7198 20.0892 10.6261 19.9962L7.70606 17.0762L15.7061 17.0762C16.7669 17.0762 17.7843 16.6548 18.5345 15.9047C19.2846 15.1545 19.7061 14.1371 19.7061 13.0762L19.7061 2.70624C19.7061 2.44102 19.6007 2.18667 19.4132 1.99913C19.2256 1.81159 18.9713 1.70624 18.7061 1.70624C18.4408 1.70624 18.1865 1.81159 17.9989 1.99913C17.8114 2.18667 17.7061 2.44102 17.7061 2.70624L17.7061 13.0762C17.7061 13.6067 17.4953 14.1154 17.1203 14.4905C16.7452 14.8655 16.2365 15.0762 15.7061 15.0762L7.70606 15.0762L10.6261 12.1562C10.7671 12.0164 10.8633 11.8377 10.9023 11.6429C10.9414 11.4482 10.9216 11.2462 10.8454 11.0628C10.7693 10.8793 10.6402 10.7227 10.4747 10.6129C10.3091 10.5031 10.1147 10.4451 9.91605 10.4462C9.65229 10.45 9.40069 10.5578 9.21606 10.7462L4.58606 15.3662C4.49384 15.4662 4.41942 15.5812 4.36606 15.7062C4.26875 15.9468 4.26875 16.2157 4.36605 16.4562Z" fill="black"/>
</svg>
