<svg width="24" height="24" viewBox="0 0 24 24" fill="none" xmlns="http://www.w3.org/2000/svg">
<rect width="24" height="24" fill="white" fill-opacity="0.01"/>
<path d="M14.293 3.29297C14.6835 2.90244 15.3165 2.90244 15.707 3.29297L20.707 8.29297C20.7548 8.34078 20.7976 8.39354 20.835 8.4502C20.8597 8.48769 20.8812 8.52661 20.9004 8.56641C20.9222 8.61159 20.9412 8.65838 20.9561 8.70703C20.9577 8.71255 20.9593 8.71809 20.9609 8.72363C20.9861 8.81144 21 8.90409 21 9C21 9.05633 20.9933 9.11125 20.9844 9.16504C20.9772 9.20777 20.9687 9.2503 20.9561 9.29199C20.9412 9.34068 20.9222 9.3874 20.9004 9.43262C20.8936 9.44677 20.8864 9.46072 20.8789 9.47461C20.851 9.52618 20.8184 9.57451 20.7822 9.62012C20.7586 9.64981 20.7345 9.67957 20.707 9.70703L15.707 14.707C15.3165 15.0976 14.6835 15.0976 14.293 14.707C13.9024 14.3165 13.9024 13.6835 14.293 13.293L17.5859 10H8C6.34315 10 5 11.3431 5 13V20C5 20.5523 4.55228 21 4 21C3.44772 21 3 20.5523 3 20V13C3 10.2386 5.23858 8 8 8H17.5859L14.293 4.70703C13.9024 4.31651 13.9024 3.68349 14.293 3.29297Z" fill="black"/>
</svg>
