<svg width="24" height="24" viewBox="0 0 24 24" fill="none" xmlns="http://www.w3.org/2000/svg">
<rect width="24" height="24" fill="white" fill-opacity="0.01"/>
<path d="M16.7492 19.34C16.8728 19.2894 16.985 19.2146 17.0792 19.12L21.7092 14.49C21.8955 14.3026 22 14.0492 22 13.785C22 13.5208 21.8955 13.2674 21.7092 13.08C21.6162 12.9863 21.5056 12.9119 21.3838 12.8611C21.2619 12.8103 21.1312 12.7842 20.9992 12.7842C20.8672 12.7842 20.7365 12.8103 20.6146 12.8611C20.4928 12.9119 20.3822 12.9863 20.2892 13.08L17.3692 16L17.3692 8C17.3692 6.93913 16.9478 5.92172 16.1976 5.17157C15.4475 4.42143 14.4301 4 13.3692 4L2.99921 4C2.73399 4 2.47964 4.10536 2.2921 4.29289C2.10456 4.48043 1.99921 4.73478 1.99921 5C1.99921 5.26522 2.10456 5.51957 2.2921 5.70711C2.47964 5.89464 2.73399 6 2.99921 6L13.3692 6C13.8996 6 14.4083 6.21071 14.7834 6.58579C15.1585 6.96086 15.3692 7.46957 15.3692 8L15.3692 16L12.4492 13.08C12.3093 12.939 12.1306 12.8428 11.9359 12.8037C11.7411 12.7647 11.5392 12.7845 11.3557 12.8606C11.1723 12.9368 11.0157 13.0659 10.9059 13.2314C10.7961 13.3969 10.7381 13.5914 10.7392 13.79C10.743 14.0538 10.8508 14.3054 11.0392 14.49L15.6592 19.12C15.7591 19.2122 15.8741 19.2866 15.9992 19.34C16.2397 19.4373 16.5087 19.4373 16.7492 19.34Z" fill="black"/>
</svg>
