<svg width="24" height="24" viewBox="0 0 24 24" fill="none" xmlns="http://www.w3.org/2000/svg">
<rect width="24" height="24" fill="white" fill-opacity="0.01"/>
<path d="M15 3L15.1025 3.00488C15.1236 3.00703 15.1443 3.01121 15.165 3.01465C15.1738 3.01611 15.1827 3.01686 15.1914 3.01855L15.2012 3.02051C15.211 3.02252 15.2207 3.02504 15.2305 3.02734C15.251 3.0322 15.2717 3.0368 15.292 3.04297C15.3408 3.05783 15.3873 3.0778 15.4326 3.09961C15.4466 3.10634 15.4609 3.11269 15.4746 3.12012C15.5603 3.16646 15.6387 3.22462 15.707 3.29297L20.707 8.29297C21.0976 8.68349 21.0976 9.31651 20.707 9.70703C20.3165 10.0976 19.6835 10.0976 19.293 9.70703L16 6.41406V16C16 18.7614 13.7614 21 11 21H4C3.44772 21 3 20.5523 3 20C3 19.4477 3.44772 19 4 19H11C12.6569 19 14 17.6569 14 16V6.41406L10.707 9.70703C10.3165 10.0976 9.68349 10.0976 9.29297 9.70703C8.90244 9.31651 8.90244 8.68349 9.29297 8.29297L14.293 3.29297C14.3611 3.22482 14.439 3.16639 14.5244 3.12012C14.5382 3.11268 14.5524 3.10635 14.5664 3.09961C14.6117 3.07777 14.6583 3.05787 14.707 3.04297C14.7273 3.03678 14.748 3.03221 14.7686 3.02734C14.7799 3.02465 14.7912 3.02183 14.8027 3.01953C14.8047 3.01914 14.8067 3.01893 14.8086 3.01855L14.8975 3.00488C14.9312 3.00145 14.9654 3 15 3Z" fill="black"/>
</svg>
