<svg width="24" height="24" viewBox="0 0 24 24" fill="none" xmlns="http://www.w3.org/2000/svg">
<rect width="24" height="24" fill="white" fill-opacity="0.01"/>
<path d="M7.24982 19.34C7.12623 19.2894 7.01403 19.2146 6.91982 19.12L2.28982 14.49C2.10357 14.3026 1.99902 14.0492 1.99902 13.785C1.99902 13.5208 2.10357 13.2674 2.28982 13.08C2.38278 12.9863 2.49338 12.9119 2.61524 12.8611C2.7371 12.8103 2.8678 12.7842 2.99982 12.7842C3.13183 12.7842 3.26253 12.8103 3.38439 12.8611C3.50625 12.9119 3.61685 12.9863 3.70982 13.08L6.62982 16L6.62982 8C6.62982 6.93913 7.05124 5.92172 7.80139 5.17157C8.55153 4.42143 9.56895 4 10.6298 4L20.9998 4C21.265 4 21.5194 4.10536 21.7069 4.29289C21.8945 4.48043 21.9998 4.73478 21.9998 5C21.9998 5.26522 21.8945 5.51957 21.7069 5.70711C21.5194 5.89464 21.265 6 20.9998 6L10.6298 6C10.0994 6 9.59067 6.21071 9.2156 6.58579C8.84053 6.96086 8.62982 7.46957 8.62982 8L8.62982 16L11.5498 13.08C11.6897 12.939 11.8684 12.8428 12.0631 12.8037C12.2579 12.7647 12.4599 12.7845 12.6433 12.8606C12.8267 12.9368 12.9833 13.0659 13.0931 13.2314C13.2029 13.3969 13.261 13.5914 13.2598 13.79C13.2561 14.0538 13.1482 14.3054 12.9598 14.49L8.33982 19.12C8.23989 19.2122 8.12489 19.2866 7.99982 19.34C7.75928 19.4373 7.49035 19.4373 7.24982 19.34Z" fill="black"/>
</svg>
