<svg width="24" height="24" viewBox="0 0 24 24" fill="none" xmlns="http://www.w3.org/2000/svg">
<rect width="24" height="24" fill="white" fill-opacity="0.01"/>
<path d="M8.29297 3.29297C8.68349 2.90244 9.31651 2.90244 9.70703 3.29297C10.0976 3.68349 10.0976 4.31651 9.70703 4.70703L6.41406 8H16C18.7614 8 21 10.2386 21 13V20C21 20.5523 20.5523 21 20 21C19.4477 21 19 20.5523 19 20V13C19 11.3431 17.6569 10 16 10H6.41406L9.70703 13.293C10.0976 13.6835 10.0976 14.3165 9.70703 14.707C9.31651 15.0976 8.68349 15.0976 8.29297 14.707L3.29297 9.70703C3.26536 9.67942 3.2405 9.64998 3.2168 9.62012C3.18065 9.57453 3.14798 9.52615 3.12012 9.47461C3.11269 9.46085 3.10634 9.44663 3.09961 9.43262C3.0778 9.38731 3.05783 9.34077 3.04297 9.29199C3.0303 9.25033 3.02176 9.20773 3.01465 9.16504C3.00571 9.11129 3 9.05628 3 9C3 8.90409 3.01386 8.81144 3.03906 8.72363C3.04063 8.71818 3.04131 8.71246 3.04297 8.70703C3.05787 8.65828 3.07777 8.61167 3.09961 8.56641C3.11877 8.52661 3.1403 8.48769 3.16504 8.4502C3.20242 8.39354 3.24516 8.34078 3.29297 8.29297L8.29297 3.29297Z" fill="black"/>
</svg>
