<svg width="24" height="24" viewBox="0 0 24 24" fill="none" xmlns="http://www.w3.org/2000/svg">
<rect width="24" height="24" fill="white" fill-opacity="0.01"/>
<path d="M6.13867 0C6.69094 0.00478629 7.13467 0.456525 7.12988 1.00879L7.09375 5.07617L16 5C17.6569 5 19 6.34315 19 8V17H23C23.5523 17 24 17.4477 24 18C24 18.5523 23.5523 19 23 19H19V23C19 23.5523 18.5523 24 18 24C17.4477 24 17 23.5523 17 23V19H8C6.34316 19 4.99996 17.6567 5 15.9912L5.07617 7.09375L1.00879 7.12988C0.456526 7.13467 0.00478836 6.69093 0 6.13867C-0.00478583 5.58646 0.439021 5.13475 0.991211 5.12988L5.09375 5.09375L5.12988 0.991211C5.13473 0.439015 5.58646 -0.00476765 6.13867 0ZM7.07715 7.07715L7 16C7 16.5523 7.44773 17 8 17H17V8C17 7.44774 16.5524 7.00008 16.0088 7L7.07715 7.07715Z" fill="black"/>
</svg>
