<svg width="24" height="24" viewBox="0 0 24 24" fill="none" xmlns="http://www.w3.org/2000/svg">
<rect width="24" height="24" fill="white" fill-opacity="0.01"/>
<path d="M12.3232 1.00195C17.6135 1.05833 21.8668 2.4987 21.9932 4.89062C21.9971 4.92658 22 4.96301 22 5V19C22 21.5118 17.5423 23 12 23C6.45766 23 2 21.5118 2 19V5C2.00001 4.96304 2.00194 4.92654 2.00586 4.89062C2.1322 2.49867 6.38647 1.05833 11.6768 1.00195H12.3232ZM20 14.5322C18.1789 15.4781 15.2796 16 12 16C8.7204 16 5.82113 15.4781 4 14.5322V19C4 19.8128 7.55616 21 12 21C16.4438 21 20 19.8128 20 19V14.5322ZM20 7.52734C18.1751 8.47568 15.2702 9 12 9C8.72979 9 5.82489 8.47568 4 7.52734V12L4.00586 12.0576C4.15847 12.8282 7.32677 13.8904 11.3711 13.9922L12 14C16.4438 14 20 12.8128 20 12V7.52734ZM11.6934 3.00195C7.41542 3.05531 4.00068 4.21182 4 5C4 5.80695 7.57914 7 12 7C16.4209 7 20 5.80695 20 5C19.9993 4.21182 16.5846 3.05531 12.3066 3.00195H11.6934Z" fill="black"/>
</svg>
