<svg width="24" height="24" viewBox="0 0 24 24" fill="none" xmlns="http://www.w3.org/2000/svg">
<rect width="24" height="24" fill="white" fill-opacity="0.01"/>
<path d="M21 3C22.6569 3 24 4.34315 24 6V18C24 19.6569 22.6569 21 21 21H8C7.71164 21 7.43696 20.8752 7.24707 20.6582L0.24707 12.6582C-0.0824243 12.2813 -0.0824243 11.7187 0.24707 11.3418L7.24707 3.3418C7.43696 3.12478 7.71164 3 8 3H21ZM2.3291 12L8.4541 19H21C21.5523 19 22 18.5523 22 18V6C22 5.44772 21.5523 5 21 5H8.4541L2.3291 12ZM17.293 8.29297C17.6835 7.90244 18.3165 7.90244 18.707 8.29297C19.0976 8.68349 19.0976 9.31651 18.707 9.70703L16.4141 12L18.707 14.293C19.0976 14.6835 19.0976 15.3165 18.707 15.707C18.3165 16.0976 17.6835 16.0976 17.293 15.707L15 13.4141L12.707 15.707C12.3165 16.0976 11.6835 16.0976 11.293 15.707C10.9024 15.3165 10.9024 14.6835 11.293 14.293L13.5859 12L11.293 9.70703C10.9024 9.31651 10.9024 8.68349 11.293 8.29297C11.6835 7.90244 12.3165 7.90244 12.707 8.29297L15 10.5859L17.293 8.29297Z" fill="black"/>
</svg>
