<svg width="24" height="24" viewBox="0 0 24 24" fill="none" xmlns="http://www.w3.org/2000/svg">
<rect width="24" height="24" fill="white" fill-opacity="0.01"/>
<path d="M12 0C12.5523 0 13 0.447715 13 1V4H17C17.5523 4 18 4.44772 18 5C18 5.55228 17.5523 6 17 6H13V11H14.5C16.9853 11 19 13.0147 19 15.5C19 17.9853 16.9853 20 14.5 20H13V23C13 23.5523 12.5523 24 12 24C11.4477 24 11 23.5523 11 23V20H6C5.44772 20 5 19.5523 5 19C5 18.4477 5.44772 18 6 18H11V13H9.5C7.01472 13 5 10.9853 5 8.5C5 6.01472 7.01472 4 9.5 4H11V1C11 0.447715 11.4477 0 12 0ZM13 18H14.5C15.8807 18 17 16.8807 17 15.5C17 14.1193 15.8807 13 14.5 13H13V18ZM9.5 6C8.11929 6 7 7.11929 7 8.5C7 9.88071 8.11929 11 9.5 11H11V6H9.5Z" fill="black"/>
</svg>
