<svg width="24" height="24" viewBox="0 0 24 24" fill="none" xmlns="http://www.w3.org/2000/svg">
<rect width="24" height="24" fill="white" fill-opacity="0.01"/>
<path fill-rule="evenodd" clip-rule="evenodd" d="M11.2924 1.98297C11.6829 1.59186 12.3165 1.59158 12.7073 1.98235L18.3671 7.64211C20.9423 10.2156 21.7133 14.0872 20.3207 17.4509C18.928 20.8147 15.6459 23.0082 12.0052 23.0082C8.36448 23.0082 5.08238 20.8147 3.6897 17.4509C2.29701 14.0872 3.0681 10.2156 5.64245 7.64297L11.2924 1.98297ZM12.0008 4.10429L7.05705 9.05679C5.05412 11.0584 4.45438 14.0696 5.53758 16.6859C6.62078 19.3022 9.17352 21.0082 12.0052 21.0082C14.8368 21.0082 17.3896 19.3022 18.4728 16.6859C19.556 14.0696 18.9562 11.0584 16.9531 9.05656L12.0008 4.10429Z" fill="black"/>
</svg>
