<svg width="24" height="24" viewBox="0 0 24 24" fill="none" xmlns="http://www.w3.org/2000/svg">
<rect width="24" height="24" fill="white" fill-opacity="0.01"/>
<path d="M11 3C11.5522 3 11.9999 3.44782 12 4C12 4.55228 11.5523 5 11 5H4C3.44779 5 3.00012 5.44782 3 6V20C3 20.5523 3.44772 21 4 21H18C18.5523 21 19 20.5523 19 20V13C19.0001 12.4478 19.4478 12 20 12C20.5522 12 20.9999 12.4478 21 13V20C21 21.6569 19.6569 23 18 23H4C2.34315 23 1 21.6569 1 20V6C1.00012 4.34325 2.34322 3 4 3H11ZM17.793 1.79297C18.965 0.621302 20.8376 0.575706 22.0635 1.65723L22.208 1.79297L22.3428 1.93652C23.4244 3.16225 23.3795 5.03496 22.208 6.20703L12.708 15.707C12.58 15.835 12.4187 15.9257 12.2432 15.9697L8.24316 16.9697C7.51088 17.1528 6.84742 16.4901 7.03027 15.7578L8.03027 11.7578C8.07423 11.5822 8.16498 11.421 8.29297 11.293L17.793 1.79297ZM20.793 3.20703C20.3552 2.76958 19.6459 2.76981 19.208 3.20703L9.90332 12.5117L9.375 14.626L11.4893 14.0967L20.793 4.79297C21.2305 4.35509 21.2306 3.64484 20.793 3.20703Z" fill="black"/>
</svg>
