<svg width="24" height="24" viewBox="0 0 24 24" fill="none" xmlns="http://www.w3.org/2000/svg">
<rect width="24" height="24" fill="white" fill-opacity="0.01"/>
<path fill-rule="evenodd" clip-rule="evenodd" d="M19.991 1.30241L20.1971 1.36389C21.4189 1.76584 22.3627 2.75789 22.6981 4.00952C23.0521 5.33068 22.6744 6.74034 21.7072 7.7075L8.20723 21.2075C8.08418 21.3306 7.93114 21.4194 7.76325 21.4652L2.26325 22.9652C1.51675 23.1687 0.831773 22.4838 1.03536 21.7373L2.53536 16.2373C2.58115 16.0694 2.66997 15.9163 2.79302 15.7933L16.293 2.29328C17.2064 1.37986 18.5146 0.992197 19.7701 1.25016L19.991 1.30241ZM6.9808 19.6055L20.293 6.29328C20.7549 5.83138 20.9353 5.15813 20.7663 4.52716C20.5972 3.89618 20.1043 3.40333 19.4734 3.23426C18.8424 3.06519 18.1691 3.24559 17.7072 3.7075L4.39502 17.0197L3.42535 20.5752L6.9808 19.6055Z" fill="black"/>
</svg>
