<svg width="24" height="24" viewBox="0 0 24 24" fill="none" xmlns="http://www.w3.org/2000/svg">
<rect width="24" height="24" fill="white" fill-opacity="0.01"/>
<path d="M15.793 2.79395C16.5322 2.05475 17.5888 1.73746 18.6055 1.93848L18.8086 1.98633L18.9961 2.04297C19.9825 2.37487 20.744 3.17973 21.0156 4.19336C21.304 5.27024 20.9962 6.41961 20.208 7.20801L7.70801 19.708C7.57994 19.8361 7.41884 19.9267 7.24316 19.9707L3.24316 20.9707C2.51094 21.1538 1.84758 20.491 2.03027 19.7588L3.03027 15.7588C3.0742 15.5831 3.16494 15.4221 3.29297 15.2939L15.793 2.79395ZM21 19.001C21.5523 19.001 22 19.4487 22 20.001C21.9999 20.5532 21.5522 21.001 21 21.001H12C11.4479 21.0008 11.0001 20.5531 11 20.001C11 19.4488 11.4479 19.0012 12 19.001H21ZM18.291 3.91797C17.9042 3.81432 17.4913 3.92494 17.208 4.20801L4.90332 16.5127L4.375 18.627L6.48926 18.0977L18.793 5.79395C19.0761 5.51078 19.1875 5.09776 19.084 4.71094C18.9803 4.32415 18.6777 4.02178 18.291 3.91797Z" fill="black"/>
</svg>
