<svg width="24" height="24" viewBox="0 0 24 24" fill="none" xmlns="http://www.w3.org/2000/svg">
<rect width="24" height="24" fill="white" fill-opacity="0.01"/>
<path d="M0.292969 0.292969C0.683493 -0.0975555 1.31651 -0.0975555 1.70703 0.292969L23.707 22.293C24.0976 22.6835 24.0976 23.3165 23.707 23.707C23.3165 24.0976 22.6835 24.0976 22.293 23.707L17.8252 19.2393C16.0952 20.3525 14.0827 20.9661 12 21C8.62021 21 5.66135 19.3671 3.14551 16.6836C2.28136 15.7618 1.5306 14.7778 0.894531 13.793L0.65625 13.415C0.509366 13.1769 0.385945 12.9666 0.287109 12.7891L0.217773 12.6621L0.105469 12.4473C-0.0398145 12.1567 -0.0344646 11.8136 0.119141 11.5273C1.25068 9.41862 2.76052 7.54037 4.56934 5.9834L0.292969 1.70703C-0.0975555 1.31651 -0.0975555 0.683493 0.292969 0.292969ZM5.9873 7.40137C4.56775 8.60235 3.34903 10.0225 2.37793 11.6074L2.14258 12.0029L2.27441 12.2266C2.36624 12.3793 2.46607 12.5405 2.57422 12.708C3.14895 13.5979 3.82829 14.4885 4.60449 15.3164C6.77604 17.6327 9.25471 18.9998 11.9834 19C13.5315 18.9747 15.0401 18.5521 16.3701 17.7842L14.0488 15.4629C13.1336 16.0364 12.0107 16.2247 10.9355 15.9502C9.51832 15.5883 8.41176 14.4817 8.0498 13.0645C7.77525 11.9892 7.96251 10.8654 8.53613 9.9502L5.9873 7.40137ZM12 3C15.3798 3 18.3386 4.63283 20.8545 7.31641C21.7188 8.23832 22.4693 9.22304 23.1055 10.208L23.3438 10.585C23.4906 10.823 23.6141 11.0334 23.7129 11.2109L23.7822 11.3379L23.8945 11.5527C24.0396 11.8428 24.0347 12.1856 23.8818 12.4717C23.2421 13.6685 22.4792 14.7956 21.6055 15.834C21.2499 16.2565 20.6189 16.3106 20.1963 15.9551C19.7737 15.5995 19.7196 14.9685 20.0752 14.5459C20.6326 13.8835 21.1399 13.181 21.5928 12.4443L21.8584 11.998L21.7266 11.7744L21.5312 11.458C21.497 11.4038 21.4618 11.3488 21.4258 11.293C20.851 10.403 20.1718 9.51163 19.3955 8.68359C17.224 6.36737 14.7453 5.00012 11.998 5C11.3686 4.99854 10.7408 5.07042 10.1279 5.21387C9.59021 5.33972 9.05265 5.00549 8.92676 4.46777C8.80096 3.93014 9.13431 3.39258 9.67188 3.2666C10.4356 3.08782 11.2179 2.99819 12 3ZM10.0303 11.4443C9.9112 11.8017 9.89079 12.1911 9.9873 12.5693C10.1683 13.2779 10.7221 13.8317 11.4307 14.0127C11.8087 14.1092 12.1974 14.0875 12.5547 13.9688L10.0303 11.4443Z" fill="black"/>
</svg>
