<svg width="24" height="24" viewBox="0 0 24 24" fill="none" xmlns="http://www.w3.org/2000/svg">
<rect width="24" height="24" fill="white" fill-opacity="0.01"/>
<path d="M12 3C15.3798 3 18.3386 4.63284 20.8545 7.31641C21.7186 8.23819 22.4694 9.22219 23.1055 10.207L23.3438 10.585C23.5273 10.8826 23.6738 11.1371 23.7822 11.3379L23.8945 11.5527C24.0353 11.8343 24.0353 12.1657 23.8945 12.4473L23.7822 12.6621C23.6738 12.8629 23.5273 13.1174 23.3438 13.415L23.1055 13.793C22.4694 14.7778 21.7186 15.7618 20.8545 16.6836C18.3386 19.3672 15.3798 21 12 21C8.6202 21 5.66135 19.3672 3.14551 16.6836C2.28135 15.7618 1.5306 14.7778 0.894531 13.793L0.65625 13.415C0.472657 13.1174 0.326207 12.8629 0.217773 12.6621L0.105469 12.4473C-0.035295 12.1657 -0.035295 11.8343 0.105469 11.5527L0.217773 11.3379C0.326207 11.1371 0.472657 10.8826 0.65625 10.585L0.894531 10.207C1.5306 9.22219 2.28135 8.23819 3.14551 7.31641C5.66135 4.63284 8.6202 3 12 3ZM12 5C9.25487 5 6.77611 6.36726 4.60449 8.68359C3.8282 9.51163 3.14899 10.403 2.57422 11.293C2.41119 11.5454 2.26643 11.7825 2.14062 12C2.26643 12.2175 2.41119 12.4546 2.57422 12.707C3.14899 13.597 3.8282 14.4884 4.60449 15.3164C6.77611 17.6327 9.25487 19 12 19C14.7451 19 17.2239 17.6327 19.3955 15.3164C20.1718 14.4884 20.851 13.597 21.4258 12.707C21.5344 12.5388 21.6354 12.377 21.7275 12.2236L21.8594 12L21.7275 11.7764L21.5312 11.459C21.4969 11.4045 21.4619 11.349 21.4258 11.293C20.851 10.403 20.1718 9.51163 19.3955 8.68359C17.2239 6.36726 14.7451 5 12 5ZM12 8C14.2091 8 16 9.79086 16 12C16 14.2091 14.2091 16 12 16C9.79086 16 8 14.2091 8 12C8 9.79086 9.79086 8 12 8ZM12 10C10.8954 10 10 10.8954 10 12C10 13.1046 10.8954 14 12 14C13.1046 14 14 13.1046 14 12C14 10.8954 13.1046 10 12 10Z" fill="black"/>
</svg>
