<svg width="24" height="24" viewBox="0 0 24 24" fill="none" xmlns="http://www.w3.org/2000/svg">
<rect width="24" height="24" fill="white" fill-opacity="0.01"/>
<path d="M1 5.00098C1 4.16883 1.9574 3.70005 2.61426 4.21094L11.6143 11.2109C12.1287 11.6113 12.1288 12.3897 11.6143 12.79L2.61426 19.79C1.95761 20.3005 1.00061 19.8326 1 19.001V5.00098ZM12 5.00098C12 4.16883 12.9574 3.70005 13.6143 4.21094L22.6143 11.2109C23.1287 11.6113 23.1288 12.3897 22.6143 12.79L13.6143 19.79C12.9576 20.3005 12.0006 19.8326 12 19.001V5.00098ZM3 16.9561L9.37109 12.001L3 7.04492V16.9561ZM14 16.9561L20.3711 12.001L14 7.04492V16.9561Z" fill="black"/>
</svg>
