<svg width="24" height="24" viewBox="0 0 24 24" fill="none" xmlns="http://www.w3.org/2000/svg">
<rect width="24" height="24" fill="white" fill-opacity="0.01"/>
<path d="M11.043 3.04297C13.7779 0.308157 18.2123 0.308106 20.9473 3.04297C23.682 5.77791 23.682 10.2124 20.9482 12.9463L18.2861 15.6152C18.2368 15.6782 18.1801 15.7346 18.1172 15.7842L14.208 19.7061C14.0204 19.8941 13.7656 20 13.5 20H5.41406L2.70703 22.707C2.31652 23.0975 1.6835 23.0975 1.29297 22.707C0.902444 22.3165 0.902444 21.6835 1.29297 21.293L4 18.5859V10.5C4.00005 10.2349 4.10555 9.98045 4.29297 9.79297L11.043 3.04297ZM7.41406 18H13.085L15.0791 16H9.41406L7.41406 18ZM19.5332 4.45703C17.5793 2.50322 14.4109 2.50327 12.457 4.45703L6 10.9141V16.5859L15.293 7.29297C15.6835 6.90248 16.3165 6.90246 16.707 7.29297C17.0975 7.68348 17.0975 8.31652 16.707 8.70703L11.4141 14H17.0732L19.5332 11.5322C21.4865 9.57833 21.4867 6.4108 19.5332 4.45703Z" fill="black"/>
</svg>
