<svg width="24" height="24" viewBox="0 0 24 24" fill="none" xmlns="http://www.w3.org/2000/svg">
<rect width="24" height="24" fill="white" fill-opacity="0.01"/>
<path d="M15.5 1C17.1077 1 18.5936 1.8577 19.3975 3.25C20.2012 4.64223 20.2012 6.35777 19.3975 7.75C19.1159 8.2376 18.749 8.65741 18.3242 9C19.3733 9.8462 19.9999 11.1277 20 12.5C19.9999 14.1076 19.1422 15.5937 17.75 16.3975C16.3578 17.2012 14.6422 17.2012 13.25 16.3975C13.1645 16.3481 13.0814 16.2956 13 16.2412V19.5C13 21.9853 10.9853 24 8.5 24C6.01472 24 4 21.9853 4 19.5C4 18.0862 4.65219 16.825 5.67188 16C4.65219 15.175 4 13.9138 4 12.5C4 11.0862 4.65219 9.82497 5.67188 9C4.65219 8.17503 4 6.91378 4 5.5C4 3.01472 6.01472 1 8.5 1H15.5ZM8.5 17C7.11929 17 6 18.1193 6 19.5C6 20.8807 7.11929 22 8.5 22C9.88071 22 11 20.8807 11 19.5V17H8.5ZM8.5 10C7.11929 10 6 11.1193 6 12.5C6 13.8807 7.11929 15 8.5 15H11V10H8.5ZM16.75 10.335C15.9765 9.88846 15.0235 9.88846 14.25 10.335C13.4766 10.7815 13.0001 11.607 13 12.5C13.0001 13.393 13.4766 14.2185 14.25 14.665C15.0234 15.1115 15.9766 15.1115 16.75 14.665C17.5234 14.2185 17.9999 13.393 18 12.5C17.9999 11.607 17.5234 10.7815 16.75 10.335ZM8.5 3C7.11929 3 6 4.11929 6 5.5C6 6.88071 7.11929 8 8.5 8H11V3H8.5ZM13 8H15.5C16.3932 8 17.2185 7.5235 17.665 6.75C18.1116 5.9765 18.1116 5.0235 17.665 4.25C17.2185 3.4765 16.3932 3 15.5 3H13V8Z" fill="black"/>
</svg>
