<svg width="24" height="24" viewBox="0 0 24 24" fill="none" xmlns="http://www.w3.org/2000/svg">
<rect width="24" height="24" fill="white" fill-opacity="0.01"/>
<path d="M19.8203 1C21.5763 1.00017 22.9998 2.42367 23 4.17969V19.8203C22.9998 21.5763 21.5763 22.9998 19.8203 23H4.17969C2.42367 22.9998 1.00017 21.5763 1 19.8203V4.17969C1.00017 2.42367 2.42367 1.00017 4.17969 1H19.8203ZM3 19.8203C3.00017 20.4718 3.52824 20.9998 4.17969 21H6V18H3V19.8203ZM8 21H16V13H8V21ZM18 21H19.8203C20.4718 20.9998 20.9998 20.4718 21 19.8203V18H18V21ZM3 16H6V13H3V16ZM18 16H21V13H18V16ZM3 11H6V8H3V11ZM8 11H16V3H8V11ZM18 11H21V8H18V11ZM18 6H21V4.17969C20.9998 3.52824 20.4718 3.00017 19.8203 3H18V6ZM4.17969 3C3.52824 3.00017 3.00017 3.52824 3 4.17969V6H6V3H4.17969Z" fill="black"/>
</svg>
