<svg width="24" height="24" viewBox="0 0 24 24" fill="none" xmlns="http://www.w3.org/2000/svg">
<rect width="24" height="24" fill="white" fill-opacity="0.01"/>
<path d="M8 1C9.24991 1 10.1495 1.21449 11.71 1.81152L12.6719 2.19043C14.2255 2.80111 14.9803 3 16 3C17.1886 3 18.0942 2.83516 18.7539 2.57129C19.0951 2.4348 19.2626 2.32338 19.293 2.29297L19.3779 2.2168C20.015 1.70293 21 2.14795 21 3V15C21 15.2652 20.8946 15.5195 20.707 15.707C20.4875 15.9266 20.0922 16.1903 19.4961 16.4287C18.5933 16.7898 17.4362 17 16 17C14.7501 17 13.8505 16.7855 12.29 16.1885L11.3281 15.8096C9.77454 15.1989 9.01971 15 8 15C6.81139 15 5.90578 15.1648 5.24609 15.4287C5.15075 15.4669 5.06901 15.5031 5 15.5361V22C5 22.5523 4.55228 23 4 23C3.44772 23 3 22.5523 3 22V3C3 2.73478 3.10543 2.48051 3.29297 2.29297C3.51255 2.07339 3.90778 1.80974 4.50391 1.57129C5.40667 1.21025 6.56379 1 8 1ZM8 3C6.91948 3 6.07321 3.1364 5.43262 3.35938L5.15527 3.46582L5 3.53613V13.3965C5.81911 13.1434 6.81445 13 8 13C9.24991 13 10.1495 13.2145 11.71 13.8115L12.6719 14.1904C14.2255 14.8011 14.9803 15 16 15C17.0805 15 17.9268 14.8636 18.5674 14.6406L18.8447 14.5342L19 14.4639V4.60352L18.7207 4.68359C17.9576 4.88653 17.0538 5 16 5C14.7501 5 13.8505 4.78551 12.29 4.18848L11.3281 3.80957C9.77454 3.19889 9.01971 3 8 3Z" fill="black"/>
</svg>
