<svg width="24" height="24" viewBox="0 0 24 24" fill="none" xmlns="http://www.w3.org/2000/svg">
<rect width="24" height="24" fill="white" fill-opacity="0.01"/>
<path d="M9 2C9.33435 2 9.64657 2.16711 9.83203 2.44531L11.5352 5H20C21.6569 5 23 6.34315 23 8V19C23 20.6569 21.6569 22 20 22H4C2.34315 22 1 20.6569 1 19V5C1 3.34315 2.34315 2 4 2H9ZM4 4C3.44772 4 3 4.44772 3 5V19C3 19.5523 3.44772 20 4 20H20C20.5523 20 21 19.5523 21 19V8C21 7.44772 20.5523 7 20 7H11C10.6656 7 10.3534 6.83289 10.168 6.55469L8.46484 4H4ZM12 10C12.5523 10 13 10.4477 13 11V13H15C15.5523 13 16 13.4477 16 14C16 14.5523 15.5523 15 15 15H13V17C13 17.5523 12.5523 18 12 18C11.4477 18 11 17.5523 11 17V15H9C8.44772 15 8 14.5523 8 14C8 13.4477 8.44772 13 9 13H11V11C11 10.4477 11.4477 10 12 10Z" fill="black"/>
</svg>
