<svg width="24" height="24" viewBox="0 0 24 24" fill="none" xmlns="http://www.w3.org/2000/svg">
<rect width="24" height="24" fill="white" fill-opacity="0.01"/>
<path d="M12 1C18.0751 1 23 5.92487 23 12C23 18.0751 18.0751 23 12 23C5.92487 23 1 18.0751 1 12C1 5.92487 5.92487 1 12 1ZM12 3C7.02944 3 3 7.02944 3 12C3 16.9706 7.02944 21 12 21C16.9706 21 21 16.9706 21 12C21 7.02944 16.9706 3 12 3ZM12 13C13.3247 13 14.5066 13.4505 15.5254 14.1914C16.1307 14.6316 16.5569 15.0765 16.7998 15.4004C17.131 15.8422 17.0414 16.4685 16.5996 16.7998C16.1578 17.131 15.5315 17.0414 15.2002 16.5996C15.068 16.4234 14.7754 16.1183 14.3496 15.8086C13.6496 15.2995 12.8627 15 12 15C11.1373 15 10.3504 15.2995 9.65039 15.8086C9.22463 16.1183 8.93197 16.4234 8.7998 16.5996C8.46847 17.0414 7.84221 17.131 7.40039 16.7998C6.95861 16.4685 6.86896 15.8422 7.2002 15.4004C7.44308 15.0765 7.86931 14.6316 8.47461 14.1914C9.49336 13.4505 10.6753 13 12 13ZM9.12695 8.00684C9.62413 8.06475 10.0098 8.48728 10.0098 9C10.0098 9.55228 9.56205 10 9.00977 10H9C8.44772 10 8 9.55228 8 9C8 8.44772 8.44772 8 9 8L9.12695 8.00684ZM15.127 8.00684C15.6241 8.06475 16.0098 8.48728 16.0098 9C16.0098 9.55228 15.5621 10 15.0098 10H15C14.4477 10 14 9.55228 14 9C14 8.44772 14.4477 8 15 8L15.127 8.00684Z" fill="black"/>
</svg>
