<svg width="24" height="24" viewBox="0 0 24 24" fill="none" xmlns="http://www.w3.org/2000/svg">
<rect width="24" height="24" fill="white" fill-opacity="0.01"/>
<path d="M16.5 1C18.4328 1.00018 20 2.56712 20 4.5C20 5.03691 19.8782 5.5453 19.6621 6H22C22.5523 6 23 6.44772 23 7V12C23 12.5523 22.5523 13 22 13H21V22C21 22.5523 20.5523 23 20 23H4C3.44772 23 3 22.5523 3 22V13H2C1.44772 13 1 12.5523 1 12V7C1 6.44772 1.44772 6 2 6H4.33691C4.12093 5.54536 4 5.03681 4 4.5C4 2.567 5.567 1 7.5 1C9.46086 1 10.9212 2.16892 11.9385 4.01855C11.96 4.05773 11.979 4.09824 12 4.1377C12.0209 4.09828 12.04 4.05768 12.0615 4.01855C13.0788 2.16911 14.5394 1.00014 16.5 1ZM5 21H11V13H5V21ZM13 21H19V13H13V21ZM3 11H11V8H3V11ZM13 11H21V8H13V11ZM7.5 3C6.67157 3 6 3.67157 6 4.5C6 5.32843 6.67157 6 7.5 6H10.6543L10.5127 5.65234C10.4137 5.42292 10.3054 5.19764 10.1865 4.98145C9.48509 3.70624 8.60157 3 7.5 3ZM16.5 3C15.3987 3.00015 14.5158 3.70663 13.8145 4.98145C13.6955 5.19764 13.5863 5.42292 13.4873 5.65234L13.3457 6H16.5C17.3283 5.99982 18 5.32831 18 4.5C18 3.67169 17.3283 3.00018 16.5 3Z" fill="black"/>
</svg>
