<svg width="24" height="24" viewBox="0 0 24 24" fill="none" xmlns="http://www.w3.org/2000/svg">
<rect width="24" height="24" fill="white" fill-opacity="0.01"/>
<path d="M18 2C20.2091 2 22 3.79086 22 6C22 7.87879 20.7043 9.4534 18.958 9.88281C18.5364 14.701 14.701 18.5364 9.88281 18.958C9.4534 20.7043 7.87879 22 6 22C3.79086 22 2 20.2091 2 18C2 16.1362 3.27477 14.57 5 14.126V3C5 2.44772 5.44772 2 6 2C6.55228 2 7 2.44772 7 3V14.126C8.38984 14.4837 9.48616 15.57 9.86035 16.9531C13.5913 16.5541 16.5541 13.5913 16.9531 9.86035C15.2519 9.40011 14 7.8468 14 6C14 3.79086 15.7909 2 18 2ZM6 16C4.89543 16 4 16.8954 4 18C4 19.1046 4.89543 20 6 20C7.10457 20 8 19.1046 8 18C8 16.8954 7.10457 16 6 16ZM18 4C16.8954 4 16 4.89543 16 6C16 7.10457 16.8954 8 18 8C19.1046 8 20 7.10457 20 6C20 4.89543 19.1046 4 18 4Z" fill="black"/>
</svg>
