<svg width="24" height="24" viewBox="0 0 24 24" fill="none" xmlns="http://www.w3.org/2000/svg">
<rect width="24" height="24" fill="white" fill-opacity="0.01"/>
<path d="M6 2C8.20914 2 10 3.79086 10 6C10 7.84713 8.74759 9.40042 7.0459 9.86035C7.44481 13.591 10.4081 16.5537 14.1387 16.9531C14.5988 15.2518 16.1531 14 18 14C20.2091 14 22 15.7909 22 18C22 20.2091 20.2091 22 18 22C16.1221 22 14.5465 20.7059 14.1162 18.9609C11.2089 18.7063 8.65835 17.2082 7 15.001V21C7 21.5523 6.55228 22 6 22C5.44772 22 5 21.5523 5 21V9.87402C3.27477 9.42998 2 7.86384 2 6C2 3.79086 3.79086 2 6 2ZM18 16C16.8954 16 16 16.8954 16 18C16 19.1046 16.8954 20 18 20C19.1046 20 20 19.1046 20 18C20 16.8954 19.1046 16 18 16ZM6 4C4.89543 4 4 4.89543 4 6C4 7.10457 4.89543 8 6 8C7.10457 8 8 7.10457 8 6C8 4.89543 7.10457 4 6 4Z" fill="black"/>
</svg>
