<svg width="24" height="25" viewBox="0 0 24 25" fill="none" xmlns="http://www.w3.org/2000/svg">
<rect opacity="0.01" y="0.0292969" width="24" height="24" fill="#D8D8D8"/>
<path fill-rule="evenodd" clip-rule="evenodd" d="M15.8212 1.43271C17.6676 0.261452 19.0453 -0.10959 19.9852 0.0268339C20.0675 0.038783 20.1373 0.0541548 20.1946 0.0711427C20.4796 0.155683 20.7122 0.362657 20.8294 0.63591C21.3639 1.88296 21.4629 3.26731 21.1213 4.56848C22.0107 5.69874 22.5 7.09984 22.5002 8.54986C22.5002 13.0865 20.5231 15.3635 16.9607 16.2346L16.7096 16.293L16.8037 16.5525C16.9462 16.9887 17.0179 17.4422 17.0127 17.8912L17.0002 18.1599V22.0299C17.0002 22.5821 16.5525 23.0299 16.0002 23.0299C15.4874 23.0299 15.0647 22.6438 15.007 22.1465L15.0002 22.0299L15.0033 18.0814C15.0518 17.4647 14.8572 16.8561 14.4656 16.3835L14.2659 16.1581C13.799 15.5559 14.1628 14.6437 14.9495 14.556C18.7183 14.1359 20.5002 12.6376 20.5002 8.55004C20.5 7.41052 20.0617 6.3147 19.276 5.48938C19.0121 5.21221 18.9295 4.80875 19.0634 4.45022C19.3508 3.67997 19.3965 2.846 19.203 2.05742C19.1328 2.07329 19.0558 2.093 18.9719 2.11718C18.3275 2.30267 17.5244 2.69203 16.557 3.3405C16.3166 3.50169 16.0181 3.55077 15.7387 3.47504C13.618 2.90029 11.3825 2.90029 9.26182 3.47504C8.98241 3.55077 8.6839 3.50169 8.44343 3.3405C7.47604 2.69203 6.67299 2.30267 6.02862 2.11718C5.94465 2.093 5.86765 2.07329 5.79744 2.05742C5.60398 2.846 5.64967 3.67997 5.93712 4.45022C6.07093 4.80876 5.98837 5.21223 5.72449 5.4894C4.93291 6.32083 4.49411 7.42657 4.50016 8.57986C4.50016 12.629 6.26875 14.1162 10.0635 14.5875C10.8432 14.6843 11.1981 15.5899 10.7346 16.188L10.5369 16.4114C10.1883 16.8326 9.99591 17.366 9.99383 17.9598L10.0002 18.1599V22.0299C10.0002 22.5821 9.55252 23.0299 9.00024 23.0299C8.4874 23.0299 8.06473 22.6438 8.00696 22.1465L8.00024 22.0299L8.00029 20.2916C5.87198 20.6387 4.48985 19.9858 3.2183 18.4913L3.05989 18.3001L2.49797 17.5983C2.20941 17.2568 2.01277 17.0906 1.82701 17.0215L1.64619 16.9652C1.17771 16.7885 0.905713 16.2848 1.03009 15.7873C1.16404 15.2515 1.70698 14.9258 2.24277 15.0597C2.94402 15.235 3.43479 15.6118 4.00704 16.2854L4.16534 16.4766L4.73915 17.1929C5.63536 18.2526 6.42527 18.6073 8.00269 18.2592L8.0027 18.23C7.95616 17.5683 8.06119 16.9126 8.30089 16.3095C4.55998 15.451 2.50016 13.1964 2.50017 8.58512C2.49248 7.12301 2.98228 5.70817 3.87916 4.56846C3.53754 3.2673 3.63661 1.88295 4.1711 0.63591C4.28822 0.362657 4.52085 0.155683 4.80587 0.0711427C4.86315 0.0541548 4.93299 0.038783 5.01531 0.0268339C5.95515 -0.10959 7.33291 0.261452 9.17927 1.43271C11.3629 0.914398 13.6376 0.914398 15.8212 1.43271Z" fill="black"/>
</svg>
