<svg width="25" height="24" viewBox="0 0 25 24" fill="none" xmlns="http://www.w3.org/2000/svg">
<rect width="24" height="24" fill="white" fill-opacity="0.01"/>
<path fill-rule="evenodd" clip-rule="evenodd" d="M15.3237 8.66923L17.5575 1.79852C17.6375 1.59163 17.7649 1.40636 17.9257 1.26088C18.4719 0.761999 19.3084 0.761999 19.8546 1.26088L19.9737 1.38563C20.0975 1.53203 20.1897 1.70011 20.2412 1.87023L22.6776 9.36922L23.9603 13.1696C24.1875 13.95 23.8759 14.787 23.2381 15.1982L12.5881 22.9382C12.2375 23.1929 11.7628 23.1929 11.4123 22.9382L0.757696 15.1948C0.116141 14.723 -0.149069 13.892 0.0984966 13.1421L1.3191 9.36023L3.77748 1.79852C3.85749 1.59163 3.98487 1.40636 4.14574 1.26088C4.69191 0.761999 5.52841 0.761999 6.09514 1.2802C6.26887 1.44812 6.39687 1.65758 6.46098 1.86948L8.67612 8.66923H15.3237ZM18.887 4.17409L17.0012 9.97823C16.8674 10.3903 16.4834 10.6692 16.0502 10.6692H7.95016C7.51721 10.6692 7.13344 10.3906 6.99934 9.97898L5.10772 4.17182L3.22182 9.97638L2.03572 13.6513L12.0002 20.8931L22.0039 13.6245L20.7791 9.99823L18.887 4.17409Z" fill="black"/>
</svg>
