<svg width="24" height="24" viewBox="0 0 24 24" fill="none" xmlns="http://www.w3.org/2000/svg">
<rect width="24" height="24" fill="white" fill-opacity="0.01"/>
<path d="M16.7607 3C17.8991 3.00068 18.9391 3.64545 19.4443 4.66211L22.8945 11.5527C22.8973 11.5583 22.8987 11.5647 22.9014 11.5703C22.9132 11.595 22.9248 11.6198 22.9346 11.6455C22.938 11.6546 22.9412 11.6637 22.9443 11.6729C22.9522 11.6956 22.9586 11.7188 22.9648 11.7422C22.9687 11.7568 22.9724 11.7714 22.9756 11.7861C22.9906 11.8551 23 11.9265 23 12V18C23 19.6569 21.6569 21 20 21H4C2.34315 21 1 19.6569 1 18V12C1 11.9266 1.00841 11.8551 1.02344 11.7861C1.02666 11.7714 1.03029 11.7568 1.03418 11.7422C1.05009 11.6824 1.07152 11.6251 1.09766 11.5703C1.10041 11.5645 1.1026 11.5585 1.10547 11.5527L4.55469 4.66504C5.06126 3.64565 6.10095 3.00068 7.23926 3H16.7607ZM3 18C3 18.5523 3.44772 19 4 19H20C20.5523 19 21 18.5523 21 18V13H3V18ZM5.29297 15.293C5.68349 14.9024 6.31651 14.9024 6.70703 15.293C7.09756 15.6835 7.09756 16.3165 6.70703 16.707C6.31651 17.0976 5.68349 17.0976 5.29297 16.707C4.90244 16.3165 4.90244 15.6835 5.29297 15.293ZM9.29297 15.293C9.68349 14.9024 10.3165 14.9024 10.707 15.293C11.0976 15.6835 11.0976 16.3165 10.707 16.707C10.3165 17.0976 9.68349 17.0976 9.29297 16.707C8.90244 16.3165 8.90244 15.6835 9.29297 15.293ZM7.11523 5.00781C6.78607 5.04952 6.49503 5.25318 6.34375 5.55762L3.61914 11H20.3809L17.6543 5.55469C17.4854 5.21504 17.1386 5.0002 16.7598 5H7.24023L7.11523 5.00781Z" fill="black"/>
</svg>
