<svg width="24" height="24" viewBox="0 0 24 24" fill="none" xmlns="http://www.w3.org/2000/svg">
<rect width="24" height="24" fill="white" fill-opacity="0.01"/>
<path d="M16.1104 2.00684C16.6591 2.06781 17.0548 2.56165 16.9941 3.11035L16.4512 8H20C20.5522 8 20.9998 8.4479 21 9C21 9.55228 20.5523 10 20 10H16.2285L15.7842 14H20C20.5521 14 20.9998 14.4479 21 15C21 15.5523 20.5523 16 20 16H15.5615L14.9941 21.1104C14.9332 21.6592 14.4385 22.0551 13.8896 21.9941C13.3407 21.9332 12.9449 21.4386 13.0059 20.8896L13.5488 16H9.56152L8.99414 21.1104C8.93315 21.6592 8.43853 22.0551 7.88965 21.9941C7.34074 21.9332 6.94487 21.4386 7.00586 20.8896L7.54883 16H4C3.44772 16 3 15.5523 3 15C3.00022 14.4479 3.44785 14 4 14H7.77148L8.21582 10H4C3.44772 10 3 9.55228 3 9C3.00022 8.4479 3.44785 8 4 8H8.43848L9.00586 2.88965C9.06699 2.34091 9.56156 1.94588 10.1104 2.00684C10.6591 2.06781 11.0548 2.56165 10.9941 3.11035L10.4512 8H14.4385L15.0059 2.88965C15.067 2.34091 15.5616 1.94588 16.1104 2.00684ZM10.2285 10L9.78418 14H13.7715L14.2158 10H10.2285Z" fill="black"/>
</svg>
