<svg width="24" height="24" viewBox="0 0 24 24" fill="none" xmlns="http://www.w3.org/2000/svg">
<rect width="24" height="24" fill="white" fill-opacity="0.01"/>
<path fill-rule="evenodd" clip-rule="evenodd" d="M12.0001 4.25566L12.3528 3.90293C13.5719 2.68329 15.2257 1.99805 16.9501 1.99805C18.6746 1.99805 20.3283 2.68329 21.5471 3.9026C22.7667 5.12167 23.4519 6.77544 23.4519 8.49987C23.4519 10.2243 22.7667 11.8781 21.5472 13.097L12.7072 21.937C12.3167 22.3275 11.6835 22.3275 11.293 21.937L2.45301 13.097C-0.0858998 10.5581 -0.0858999 6.44168 2.45301 3.90277C4.99192 1.36385 9.10831 1.36385 11.6472 3.90277L12.0001 4.25566ZM20.1332 11.6826C20.9775 10.8386 21.4519 9.69371 21.4519 8.49987C21.4519 7.30603 20.9775 6.16112 20.1328 5.31681C19.2889 4.47244 18.144 3.99805 16.9501 3.99805C15.7563 3.99805 14.6114 4.47244 13.7672 5.31698L12.7072 6.37698C12.3167 6.7675 11.6835 6.7675 11.293 6.37698L10.233 5.31698C8.47515 3.55912 5.62509 3.55912 3.86723 5.31698C2.10936 7.07484 2.10936 9.9249 3.86723 11.6828L12.0001 19.8157L20.1332 11.6826Z" fill="black"/>
</svg>
