<svg width="24" height="24" viewBox="0 0 24 24" fill="none" xmlns="http://www.w3.org/2000/svg">
<rect width="24" height="24" fill="white" fill-opacity="0.01"/>
<path d="M12 1C18.0751 1 23 5.92487 23 12C23 18.0751 18.0751 23 12 23C5.92487 23 1 18.0751 1 12C1 5.92487 5.92487 1 12 1ZM12 3C7.02944 3 3 7.02944 3 12C3 16.9706 7.02944 21 12 21C16.9706 21 21 16.9706 21 12C21 7.02944 16.9706 3 12 3ZM11.293 16.293C11.6835 15.9024 12.3165 15.9024 12.707 16.293C13.0976 16.6835 13.0976 17.3165 12.707 17.707C12.3165 18.0976 11.6835 18.0976 11.293 17.707C10.9024 17.3165 10.9024 16.6835 11.293 16.293ZM8.14648 8.66797C8.79377 6.82809 10.6743 5.723 12.5967 6.05273C14.5189 6.38263 15.9228 8.05115 15.9199 10C15.9199 11.2797 15.1617 12.2906 13.9746 13.082C13.3258 13.5146 12.6883 13.7976 12.2363 13.9482C11.7125 14.1229 11.1464 13.8402 10.9717 13.3164C10.7971 12.7926 11.0798 12.2265 11.6035 12.0518L11.7139 12.0107L11.9824 11.8984C12.2855 11.7637 12.5884 11.6025 12.8652 11.418C13.5531 10.9594 13.9199 10.4698 13.9199 9.99805C13.9211 9.02301 13.2189 8.18926 12.2578 8.02441C11.2967 7.8597 10.3568 8.41215 10.0332 9.33203L9.98828 9.43945C9.76875 9.88944 9.24159 10.1135 8.75781 9.94336C8.23702 9.75997 7.96325 9.18886 8.14648 8.66797Z" fill="black"/>
</svg>
