<svg width="24" height="24" viewBox="0 0 24 24" fill="none" xmlns="http://www.w3.org/2000/svg">
<rect width="24" height="24" fill="white" fill-opacity="0.01"/>
<path fill-rule="evenodd" clip-rule="evenodd" d="M3.5 5.40415L10.5 1.40415C11.4282 0.868256 12.5718 0.868256 13.4961 1.40194L20.5 5.40415C21.4273 5.9395 21.9989 6.92846 22 8.00018V16.0012C21.9989 17.0719 21.4273 18.0609 20.4961 18.5984L13.5 22.5962C12.5718 23.1321 11.4282 23.1321 10.5039 22.5984L3.5 18.5962C2.57275 18.0609 2.0011 17.0719 2 16.0002L2 7.99915C2.0011 6.92846 2.57275 5.9395 3.5 5.40415ZM4.40017 7.20209C4.1504 7.38925 4.00032 7.68439 4 8.00018L4 15.9992C4.00037 16.3561 4.19092 16.6857 4.49614 16.8619L11.5 20.8642C11.8094 21.0428 12.1906 21.0428 12.5039 20.8619L19.5 16.8642C19.8091 16.6857 19.9996 16.3561 20 16.0002L20 8.00121C19.9996 7.64431 19.8091 7.31466 19.5039 7.13842L12.5 3.13621C12.1906 2.95757 11.8094 2.95757 11.4961 3.13842L4.4984 7.13713L4.40017 7.20209Z" fill="black"/>
</svg>
