<svg width="24" height="24" viewBox="0 0 24 24" fill="none" xmlns="http://www.w3.org/2000/svg">
<rect width="24" height="24" fill="white" fill-opacity="0.01"/>
<path d="M11.3857 1.21094C11.7469 0.930074 12.2531 0.930074 12.6143 1.21094L21.6143 8.21094C21.8578 8.40039 22 8.69241 22 9.00098V20.001C21.9998 21.6576 20.6567 23.001 19 23.001H5C3.34328 23.001 2.00022 21.6576 2 20.001V9.00098C2 8.69241 2.14219 8.40039 2.38574 8.21094L11.3857 1.21094ZM4 9.49023V20.001C4.00022 20.5531 4.44785 21.001 5 21.001H8V12.001C8 11.4487 8.44772 11.001 9 11.001H15C15.5523 11.001 16 11.4487 16 12.001V21.001H19C19.5522 21.001 19.9998 20.5531 20 20.001V9.49023L12 3.26758L4 9.49023ZM10 13.001V21.001H14V13.001H10Z" fill="black"/>
</svg>
