<svg width="24" height="24" viewBox="0 0 24 24" fill="none" xmlns="http://www.w3.org/2000/svg">
<rect width="24" height="24" fill="white" fill-opacity="0.01"/>
<path d="M12 1C18.0751 1 23 5.92487 23 12C23 18.0751 18.0751 23 12 23C5.92487 23 1 18.0751 1 12C1 5.92487 5.92487 1 12 1ZM12 3C7.02944 3 3 7.02944 3 12C3 16.9706 7.02944 21 12 21C16.9706 21 21 16.9706 21 12C21 7.02944 16.9706 3 12 3ZM12 11C12.5523 11 13 11.4477 13 12V16C13 16.5523 12.5523 17 12 17C11.4477 17 11 16.5523 11 16V12C11 11.4477 11.4477 11 12 11ZM11.293 7.29297C11.6835 6.90244 12.3165 6.90244 12.707 7.29297C13.0976 7.68349 13.0976 8.31651 12.707 8.70703C12.3165 9.09756 11.6835 9.09756 11.293 8.70703C10.9024 8.31651 10.9024 7.68349 11.293 7.29297Z" fill="black"/>
</svg>
