<svg width="24" height="24" viewBox="0 0 24 24" fill="none" xmlns="http://www.w3.org/2000/svg">
<rect width="24" height="24" fill="white" fill-opacity="0.01"/>
<path d="M17 1C20.3137 1 23 3.68629 23 7V17C23 20.3137 20.3137 23 17 23H7C3.68629 23 1 20.3137 1 17V7C1 3.68629 3.68629 1 7 1H17ZM7 3C4.79086 3 3 4.79086 3 7V17C3 19.2091 4.79086 21 7 21H17C19.2091 21 21 19.2091 21 17V7C21 4.79086 19.2091 3 17 3H7ZM7.57715 9.70898C8.54691 7.78243 10.6428 6.69452 12.7764 7.01074C14.9551 7.33383 16.6662 9.04492 16.9893 11.2236C17.3055 13.3572 16.2175 15.4531 14.291 16.4229C12.3644 17.3924 10.033 17.0173 8.50781 15.4922C6.98272 13.967 6.60756 11.6356 7.57715 9.70898ZM12.4834 8.98926C11.2033 8.79959 9.9451 9.45246 9.36328 10.6084C8.78172 11.7643 9.00694 13.1631 9.92188 14.0781C10.8369 14.9931 12.2357 15.2183 13.3916 14.6367C14.5476 14.0549 15.2005 12.7968 15.0107 11.5166C14.8168 10.2096 13.7904 9.18326 12.4834 8.98926ZM16.793 5.79297C17.1835 5.40244 17.8165 5.40244 18.207 5.79297C18.5976 6.18349 18.5976 6.81651 18.207 7.20703C17.8165 7.59756 17.1835 7.59756 16.793 7.20703C16.4024 6.81651 16.4024 6.18349 16.793 5.79297Z" fill="black"/>
</svg>
