<svg width="24" height="24" viewBox="0 0 24 24" fill="none" xmlns="http://www.w3.org/2000/svg">
<rect width="24" height="24" fill="white" fill-opacity="0.01"/>
<path d="M21.5527 16.1055C22.0467 15.8585 22.6475 16.0588 22.8945 16.5527C23.1415 17.0467 22.9412 17.6475 22.4473 17.8945L12.4473 22.8945C12.1658 23.0352 11.8342 23.0353 11.5527 22.8945L1.55273 17.8945C1.05891 17.6475 0.858576 17.0466 1.10547 16.5527C1.35243 16.0588 1.95332 15.8586 2.44727 16.1055L12 20.8818L21.5527 16.1055ZM21.5527 11.1055C22.0467 10.8585 22.6475 11.0588 22.8945 11.5527C23.1415 12.0467 22.9412 12.6475 22.4473 12.8945L12.4473 17.8945C12.1658 18.0352 11.8342 18.0353 11.5527 17.8945L1.55273 12.8945C1.05891 12.6475 0.858576 12.0466 1.10547 11.5527C1.35243 11.0588 1.95332 10.8586 2.44727 11.1055L12 15.8818L21.5527 11.1055ZM11.5527 1.10547C11.8342 0.964734 12.1658 0.964793 12.4473 1.10547L22.4473 6.10547C23.1843 6.47399 23.1843 7.52601 22.4473 7.89453L12.4473 12.8945C12.1658 13.0352 11.8342 13.0353 11.5527 12.8945L1.55273 7.89453C0.81592 7.52596 0.81592 6.47404 1.55273 6.10547L11.5527 1.10547ZM4.23633 7L12 10.8818L19.7637 7L12 3.11816L4.23633 7Z" fill="black"/>
</svg>
