<svg width="24" height="24" viewBox="0 0 24 24" fill="none" xmlns="http://www.w3.org/2000/svg">
<rect width="24" height="24" fill="white" fill-opacity="0.01"/>
<path d="M6 8C6.55228 8 7 8.44772 7 9V21C7 21.5523 6.55228 22 6 22H2C1.44772 22 1 21.5523 1 21V9C1 8.44772 1.44772 8 2 8H6ZM16 7C19.866 7 23 10.134 23 14V21C23 21.5523 22.5523 22 22 22H18C17.4477 22 17 21.5523 17 21V14C17 13.4477 16.5523 13 16 13C15.4477 13 15 13.4477 15 14V21C15 21.5523 14.5523 22 14 22H10C9.44772 22 9 21.5523 9 21V14C9 10.134 12.134 7 16 7ZM3 20H5V10H3V20ZM16 9C13.2386 9 11 11.2386 11 14V20H13V14C13 12.3431 14.3431 11 16 11C17.6569 11 19 12.3431 19 14V20H21V14C21 11.2386 18.7614 9 16 9ZM4 1C5.65685 1 7 2.34315 7 4C7 5.65685 5.65685 7 4 7C2.34315 7 1 5.65685 1 4C1 2.34315 2.34315 1 4 1ZM4 3C3.44772 3 3 3.44772 3 4C3 4.55228 3.44772 5 4 5C4.55228 5 5 4.55228 5 4C5 3.44772 4.55228 3 4 3Z" fill="black"/>
</svg>
