<svg width="24" height="24" viewBox="0 0 24 24" fill="none" xmlns="http://www.w3.org/2000/svg">
<rect width="24" height="24" fill="white" fill-opacity="0.01"/>
<path d="M9 6C9.55228 6 10 6.44772 10 7C10 7.51284 9.61355 7.9354 9.11621 7.99316L9 8H6C3.79086 8 2 9.79086 2 12C2 13.0609 2.42173 14.078 3.17188 14.8281C3.86844 15.5247 4.79517 15.9377 5.77344 15.9932L6 16H9C9.55228 16 10 16.4477 10 17C10 17.5128 9.61355 17.9354 9.11621 17.9932L9 18H6C4.4087 18 2.88303 17.3674 1.75781 16.2422C0.632594 15.117 0 13.5913 0 12C0 8.7616 2.5659 6.1222 5.77539 6.00391L6 6H9ZM18 6C19.5913 6 21.117 6.63259 22.2422 7.75781C23.3674 8.88303 24 10.4087 24 12C24 15.2384 21.4341 17.8778 18.2246 17.9961L18 18H15C14.4477 18 14 17.5523 14 17C14 16.4872 14.3865 16.0646 14.8838 16.0068L15 16H18C20.2091 16 22 14.2091 22 12C22 10.9391 21.5783 9.92202 20.8281 9.17188C20.1316 8.47531 19.2048 8.0623 18.2266 8.00684L18 8H15C14.4477 8 14 7.55228 14 7C14 6.48716 14.3865 6.0646 14.8838 6.00684L15 6H18ZM16 11C16.5523 11 17 11.4477 17 12C17 12.5523 16.5523 13 16 13H8C7.44772 13 7 12.5523 7 12C7 11.4477 7.44772 11 8 11H16Z" fill="black"/>
</svg>
