<svg width="24" height="24" viewBox="0 0 24 24" fill="none" xmlns="http://www.w3.org/2000/svg">
<rect width="24" height="24" fill="white" fill-opacity="0.01"/>
<path d="M10.4243 8.00977C12.1606 8.13412 13.7575 9.00651 14.8003 10.4004C15.1311 10.8426 15.0413 11.47 14.5991 11.8008C14.1569 12.1316 13.5295 12.0409 13.1987 11.5986C12.5036 10.6693 11.4393 10.0878 10.2817 10.0049C9.12412 9.92198 7.98714 10.3461 7.1665 11.167L4.1792 14.1543C2.66331 15.7238 2.68509 18.2188 4.22803 19.7617C5.77098 21.3045 8.2657 21.3259 9.82275 19.8223L11.5327 18.1123C11.9232 17.7219 12.5563 17.722 12.9468 18.1123C13.3373 18.5028 13.3372 19.1358 12.9468 19.5264L11.2241 21.249C8.8699 23.5225 5.1283 23.4899 2.81396 21.1758C0.499672 18.8615 0.466754 15.1196 2.75244 12.7529L5.75244 9.75293C6.98315 8.52178 8.68797 7.88548 10.4243 8.00977ZM12.7749 2.75C15.1292 0.476253 18.8717 0.508902 21.186 2.82324C23.5004 5.13765 23.5326 8.8804 21.2466 11.2471L18.2466 14.2461C17.0158 15.4773 15.3111 16.1136 13.5747 15.9893C11.8384 15.8648 10.2414 14.9926 9.19873 13.5986C8.86803 13.1564 8.95877 12.53 9.40088 12.1992C9.84304 11.8685 10.4694 11.9584 10.8003 12.4004C11.4955 13.3297 12.5606 13.9112 13.7183 13.9941C14.8757 14.0769 16.012 13.6529 16.8325 12.832L19.8208 9.84473C21.3365 8.2752 21.3148 5.78016 19.772 4.2373C18.229 2.69441 15.7335 2.67296 14.1743 4.17871L12.4546 5.88867C12.0629 6.27798 11.4299 6.27637 11.0405 5.88477C10.6512 5.4932 10.6531 4.86011 11.0444 4.4707L12.7749 2.75Z" fill="black"/>
</svg>
