<svg width="24" height="24" viewBox="0 0 24 24" fill="none" xmlns="http://www.w3.org/2000/svg">
<rect width="24" height="24" fill="white" fill-opacity="0.01"/>
<path d="M2.29297 17.293C2.68349 16.9024 3.31651 16.9024 3.70703 17.293C4.09756 17.6835 4.09756 18.3165 3.70703 18.707C3.31651 19.0976 2.68349 19.0976 2.29297 18.707C1.90244 18.3165 1.90244 17.6835 2.29297 17.293ZM21 17C21.5523 17 22 17.4477 22 18C22 18.5523 21.5523 19 21 19H8C7.44772 19 7 18.5523 7 18C7 17.4477 7.44772 17 8 17H21ZM2.29297 11.293C2.68349 10.9024 3.31651 10.9024 3.70703 11.293C4.09756 11.6835 4.09756 12.3165 3.70703 12.707C3.31651 13.0976 2.68349 13.0976 2.29297 12.707C1.90244 12.3165 1.90244 11.6835 2.29297 11.293ZM21 11C21.5523 11 22 11.4477 22 12C22 12.5523 21.5523 13 21 13H8C7.44772 13 7 12.5523 7 12C7 11.4477 7.44772 11 8 11H21ZM2.29297 5.29297C2.68349 4.90244 3.31651 4.90244 3.70703 5.29297C4.09756 5.68349 4.09756 6.31651 3.70703 6.70703C3.31651 7.09756 2.68349 7.09756 2.29297 6.70703C1.90244 6.31651 1.90244 5.68349 2.29297 5.29297ZM21 5C21.5523 5 22 5.44772 22 6C22 6.55228 21.5523 7 21 7H8C7.44772 7 7 6.55228 7 6C7 5.44772 7.44772 5 8 5H21Z" fill="black"/>
</svg>
