<svg width="24" height="24" viewBox="0 0 24 24" fill="none" xmlns="http://www.w3.org/2000/svg">
<rect width="24" height="24" fill="white" fill-opacity="0.01"/>
<path d="M22.5039 1.13086C23.1705 0.75014 24 1.23226 24 2V18C23.9998 18.3587 23.8075 18.6902 23.4961 18.8682L16.4961 22.8682C16.4931 22.8699 16.4894 22.8704 16.4863 22.8721C16.4537 22.8903 16.4204 22.9073 16.3857 22.9219C16.3817 22.9236 16.3771 22.9241 16.373 22.9258C16.3431 22.9379 16.3126 22.9488 16.2812 22.958C16.2699 22.9613 16.2585 22.9639 16.2471 22.9668C16.2195 22.9738 16.1916 22.9797 16.1631 22.9844C16.1527 22.9861 16.1423 22.9879 16.1318 22.9893C16.1035 22.993 16.0749 22.9958 16.0459 22.9971C16.0374 22.9975 16.029 22.9979 16.0205 22.998C16.0137 22.9982 16.0069 23 16 23C15.9747 23 15.9497 22.997 15.9248 22.9951C15.917 22.9945 15.9091 22.9949 15.9014 22.9941C15.8241 22.9866 15.7498 22.9695 15.6787 22.9453C15.6696 22.9422 15.6605 22.9389 15.6514 22.9355C15.6206 22.9241 15.5908 22.9108 15.5615 22.8965C15.5588 22.8951 15.5555 22.8949 15.5527 22.8936L8.03125 19.1328L1.49609 22.8682C0.829609 23.2488 0.000341924 22.7675 0 22V6C0 5.64114 0.192331 5.3089 0.503906 5.13086L7.50391 1.13086C7.50682 1.1292 7.50977 1.12761 7.5127 1.12598C7.54523 1.10779 7.57863 1.0907 7.61328 1.07617C7.6202 1.07328 7.6278 1.07207 7.63477 1.06934C7.66198 1.05864 7.68946 1.04835 7.71777 1.04004C7.72908 1.03672 7.74056 1.03416 7.75195 1.03125C7.77952 1.02421 7.8075 1.01837 7.83594 1.01367C7.84635 1.01195 7.85673 1.01018 7.86719 1.00879C7.89135 1.00558 7.91576 1.0034 7.94043 1.00195C7.95118 1.00132 7.9619 1.00028 7.97266 1H8C8.01902 1 8.03788 1.0009 8.05664 1.00195C8.07062 1.00276 8.08469 1.00251 8.09863 1.00391C8.17551 1.01143 8.24954 1.0288 8.32031 1.05273C8.32947 1.05584 8.33857 1.05913 8.34766 1.0625C8.37845 1.07393 8.40822 1.08727 8.4375 1.10156C8.44064 1.10309 8.44414 1.1039 8.44727 1.10547L15.9688 4.86621L22.5039 1.13086ZM9 17.3818L15 20.3818V6.61719L9 3.61719V17.3818ZM17 6.58008V20.2764L22 17.4189V3.72266L17 6.58008ZM2 6.58008V20.2764L7 17.418V3.72168L2 6.58008Z" fill="black"/>
</svg>
