<svg width="24" height="24" viewBox="0 0 24 24" fill="none" xmlns="http://www.w3.org/2000/svg">
<rect width="24" height="24" fill="white" fill-opacity="0.01"/>
<path fill-rule="evenodd" clip-rule="evenodd" d="M3.66787 14.9987C3.22438 13.8875 2.99665 12.6995 2.99978 11.4997C3.00117 7.90213 5.03465 4.61396 8.24892 3.00752C9.56761 2.34145 11.025 1.99628 12.4998 2.00009H12.9998L13.3219 2.02007C18.0211 2.41086 21.737 6.21065 21.9998 11.0001L21.9998 11.4975C22.0036 12.9749 21.6584 14.4323 20.9943 15.7472C19.3859 18.9653 16.0978 20.9987 12.5024 21.0001C11.1673 21.0036 9.84856 20.7221 8.63372 20.1762L3.316 21.9488C2.53425 22.2094 1.79051 21.4657 2.05109 20.6839L3.82367 15.3662L3.66787 14.9987ZM12.4972 4.00009C11.3348 3.99708 10.1881 4.26867 9.14683 4.79463C6.60625 6.06437 5.00087 8.6603 4.99977 11.5027C4.99674 12.6651 5.26832 13.8117 5.79237 14.8493C5.91258 15.0873 5.93277 15.3634 5.84846 15.6163L4.58091 19.419L8.38355 18.1514C8.63649 18.0671 8.91264 18.0873 9.15063 18.2075C10.1882 18.7316 11.3348 19.0032 12.4994 19.0001C15.3396 18.999 17.9355 17.3936 19.2072 14.8493C19.7312 13.8117 20.0028 12.6651 19.9998 11.5001L20.0013 11.0552C19.7963 7.3398 16.896 4.35512 13.2177 4.01858L12.9714 4.00009L12.4972 4.00009Z" fill="black"/>
</svg>
