<svg width="24" height="24" viewBox="0 0 24 24" fill="none" xmlns="http://www.w3.org/2000/svg">
<rect y="0.00390625" width="24" height="24" fill="white" fill-opacity="0.01"/>
<path d="M0.292969 0.295898C0.683453 -0.0944165 1.31655 -0.0944165 1.70703 0.295898L17.4971 16.0859C17.5692 16.1273 17.638 16.1774 17.7002 16.2383C17.7675 16.3042 17.8225 16.3782 17.8672 16.4561L23.707 22.2959C24.0975 22.6864 24.0974 23.3194 23.707 23.71C23.3165 24.1005 22.6835 24.1005 22.293 23.71L16.9326 18.3496C15.78 19.2533 14.4177 19.8113 13 19.9902V22.0029H16C16.5522 22.0029 16.9998 22.4508 17 23.0029C17 23.5552 16.5523 24.0029 16 24.0029H8C7.44772 24.0029 7 23.5552 7 23.0029C7.00017 22.4508 7.44782 22.0029 8 22.0029H11V19.9902C10.3061 19.9028 9.6165 19.7245 8.94922 19.4492C6.02316 18.2421 4.09218 15.4286 4.00293 12.2891L4 12.0029V10.0029C4.00017 9.45079 4.44782 9.00293 5 9.00293C5.51273 9.00293 5.93526 9.38953 5.99316 9.88672L6 10.0029V12.0098C5.98211 14.4556 7.45084 16.6678 9.71191 17.6006C10.3581 17.8671 11.032 18.0139 11.7051 18.0469C11.7983 18.0182 11.8974 18.0029 12 18.0029C12.1015 18.0029 12.1997 18.0178 12.292 18.0459C13.4384 17.9898 14.5565 17.605 15.5049 16.9219L14.0283 15.4453C12.9629 16.0724 11.6469 16.1837 10.4697 15.6963C9.04092 15.1047 8.08734 13.7456 8.00586 12.2129L8 12.0029V9.41699L0.292969 1.70996C-0.0973985 1.31942 -0.0975032 0.68637 0.292969 0.295898ZM19 9.00293C19.5127 9.00293 19.9353 9.38953 19.9932 9.88672L20 10.0029V12.0039C19.9996 12.475 19.9572 12.9455 19.874 13.4092C19.7765 13.9527 19.2573 14.3141 18.7139 14.2168C18.1704 14.1193 17.808 13.6001 17.9053 13.0566C17.9469 12.8248 17.9752 12.5902 17.9893 12.3555L18 12.0029V10.0029C18.0002 9.45079 18.4478 9.00293 19 9.00293ZM10 12.002C10.0007 12.8103 10.4885 13.5394 11.2354 13.8486C11.65 14.0202 12.099 14.0423 12.5146 13.9316L10 11.417V12.002ZM8.08008 3.2041C8.48908 1.19027 10.3578 -0.186013 12.4023 0.0205078C14.3786 0.220298 15.8978 1.83613 15.9951 3.79883L16 4.00293V9.34277C16 9.89506 15.5523 10.3428 15 10.3428C14.4872 10.3428 14.0646 9.95725 14.0068 9.45996L14 9.34277V4.00195C14.0009 2.97464 13.2233 2.11409 12.2012 2.01074C11.2327 1.91291 10.3429 2.52536 10.0781 3.44629L10.0098 3.71484C9.85421 4.19067 9.36383 4.48473 8.86133 4.38281C8.32009 4.27291 7.97018 3.74534 8.08008 3.2041Z" fill="black"/>
</svg>
