<svg width="24" height="24" viewBox="0 0 24 24" fill="none" xmlns="http://www.w3.org/2000/svg">
<rect width="24" height="24" fill="white" fill-opacity="0.01"/>
<path d="M19 9C19.5523 9 20 9.44772 20 10V12C20 16.0795 16.9462 19.4433 13 19.9355V22H16C16.5523 22 17 22.4477 17 23C17 23.5523 16.5523 24 16 24H8C7.44772 24 7 23.5523 7 23C7 22.4477 7.44772 22 8 22H11V19.9355C7.05384 19.4433 4 16.0795 4 12V10C4 9.44772 4.44772 9 5 9C5.55228 9 6 9.44772 6 10V12C6 15.3137 8.68629 18 12 18C15.3137 18 18 15.3137 18 12V10C18 9.44772 18.4477 9 19 9ZM12 0C14.2091 0 16 1.79086 16 4V12C16 14.2091 14.2091 16 12 16C9.79086 16 8 14.2091 8 12V4C8 1.79086 9.79086 0 12 0ZM12 2C10.8954 2 10 2.89543 10 4V12C10 13.1046 10.8954 14 12 14C13.1046 14 14 13.1046 14 12V4C14 2.89543 13.1046 2 12 2Z" fill="black"/>
</svg>
