<svg width="24" height="24" viewBox="0 0 24 24" fill="none" xmlns="http://www.w3.org/2000/svg">
<rect width="24" height="24" fill="white" fill-opacity="0.01"/>
<path d="M10 13C10.0563 13 10.1113 13.0057 10.165 13.0146C10.1738 13.0161 10.1827 13.0169 10.1914 13.0186L10.2012 13.0205C10.211 13.0225 10.2207 13.025 10.2305 13.0273C10.251 13.0322 10.2717 13.0368 10.292 13.043C10.3408 13.0578 10.3873 13.0778 10.4326 13.0996C10.4466 13.1063 10.4609 13.1127 10.4746 13.1201C10.6203 13.1989 10.7441 13.3125 10.835 13.4502C10.8597 13.4877 10.8812 13.5266 10.9004 13.5664C10.9222 13.6116 10.9412 13.6584 10.9561 13.707C10.9623 13.7273 10.9668 13.748 10.9717 13.7686C10.9893 13.8429 11 13.9202 11 14V20C11 20.5523 10.5523 21 10 21C9.44772 21 9 20.5523 9 20V16.4141L3.70703 21.707C3.31651 22.0976 2.68349 22.0976 2.29297 21.707C1.90244 21.3165 1.90244 20.6835 2.29297 20.293L7.58594 15H4C3.44772 15 3 14.5523 3 14C3 13.4477 3.44772 13 4 13H10ZM20.293 2.29297C20.6835 1.90244 21.3165 1.90244 21.707 2.29297C22.0976 2.68349 22.0976 3.31651 21.707 3.70703L16.4141 9H20C20.5523 9 21 9.44772 21 10C21 10.5523 20.5523 11 20 11H14C13.9433 11 13.8881 10.9934 13.834 10.9844C13.8236 10.9826 13.8131 10.9816 13.8027 10.9795C13.7912 10.9772 13.7799 10.9744 13.7686 10.9717C13.748 10.9668 13.7273 10.9623 13.707 10.9561C13.6584 10.9412 13.6116 10.9222 13.5664 10.9004C13.5266 10.8812 13.4877 10.8597 13.4502 10.835C13.3125 10.7441 13.1989 10.6203 13.1201 10.4746C13.1127 10.4609 13.1063 10.4466 13.0996 10.4326C13.0778 10.3873 13.0578 10.3408 13.043 10.292C13.0303 10.2503 13.0218 10.2077 13.0146 10.165C13.0057 10.1113 13 10.0563 13 10V4C13 3.44772 13.4477 3 14 3C14.5523 3 15 3.44772 15 4V7.58594L20.293 2.29297Z" fill="black"/>
</svg>
