<svg width="24" height="24" viewBox="0 0 24 24" fill="none" xmlns="http://www.w3.org/2000/svg">
<rect width="24" height="24" fill="white" fill-opacity="0.01"/>
<path fill-rule="evenodd" clip-rule="evenodd" d="M11.118 2.00457C11.9781 1.92508 12.5276 2.90009 12.0141 3.59473C10.2487 5.98312 10.4964 9.30369 12.5965 11.4038C14.6966 13.5039 18.0172 13.7516 20.4056 11.9862C21.1002 11.4727 22.0752 12.0222 21.9957 12.8823C21.5095 18.1444 17.013 22.1197 11.731 21.9574C6.4491 21.7951 2.20518 17.5512 2.04288 12.2693C1.88059 6.98732 5.85595 2.49085 11.118 2.00457ZM9.06653 4.53272C6.02018 5.75029 3.93634 8.77125 4.04194 12.2078C4.17178 16.4334 7.56692 19.8285 11.7925 19.9584C15.3219 20.0668 18.413 17.8659 19.5623 14.6847C16.7077 15.7182 13.4237 15.0594 11.1823 12.818C9.01318 10.6489 8.32622 7.5034 9.22087 4.71553L9.31561 4.43798L9.06653 4.53272Z" fill="black"/>
</svg>
