<svg width="24" height="24" viewBox="0 0 24 24" fill="none" xmlns="http://www.w3.org/2000/svg">
<rect width="24" height="24" fill="white" fill-opacity="0.01"/>
<path d="M2.07715 3.38379C1.73432 2.55987 2.56085 1.73334 3.38477 2.07617L20.3555 9.14648C21.2055 9.50131 21.1643 10.7201 20.292 11.0166L14.4238 13.0088L19.707 18.292C20.0976 18.6825 20.0976 19.3155 19.707 19.7061C19.3165 20.0966 18.6835 20.0966 18.293 19.7061L13.0098 14.4229L11.0176 20.291C10.7211 21.1633 9.50229 21.2045 9.14746 20.3545L2.07715 3.38379ZM9.97559 17.1406L11.6338 12.2578C11.7337 11.9637 11.9647 11.7328 12.2588 11.6328L17.1416 9.97461L4.85742 4.85645L9.97559 17.1406Z" fill="black"/>
</svg>
