<svg width="24" height="24" viewBox="0 0 24 24" fill="none" xmlns="http://www.w3.org/2000/svg">
<rect width="24" height="24" fill="white" fill-opacity="0.01"/>
<path d="M20.8359 2.01367C21.4452 1.91234 21.9999 2.3823 22 3V16C22 18.2091 20.2091 20 18 20C15.7909 20 14 18.2091 14 16C14.0001 13.791 15.7909 12 18 12C18.7287 12 19.4116 12.1957 20 12.5361V4.18066L10 5.84766V18L9.99512 18.2061C9.88801 20.3196 8.14012 22 6 22C3.79086 22 2 20.2091 2 18C2.00013 15.791 3.79094 14 6 14C6.72871 14 7.41158 14.1957 8 14.5361V5C8.00012 4.51127 8.35383 4.09402 8.83594 4.01367L20.8359 2.01367ZM6 16C4.89551 16 4.00013 16.8955 4 18C4 19.1046 4.89543 20 6 20C7.10457 20 8 19.1046 8 18C7.99987 16.8955 7.10449 16 6 16ZM18 14C16.8955 14 16.0001 14.8955 16 16C16 17.1046 16.8954 18 18 18C19.1046 18 20 17.1046 20 16C19.9999 14.8955 19.1045 14 18 14Z" fill="black"/>
</svg>
