<svg width="24" height="24" viewBox="0 0 24 24" fill="none" xmlns="http://www.w3.org/2000/svg">
<rect width="24" height="24" fill="white" fill-opacity="0.01"/>
<path fill-rule="evenodd" clip-rule="evenodd" d="M20.7332 10.3438L11.5432 19.5338C9.58926 21.4877 6.42132 21.4877 4.4674 19.5338C2.51347 17.5799 2.51347 14.4119 4.4674 12.458L13.6574 3.268C14.8298 2.09556 16.7307 2.09556 17.9032 3.268C19.0756 4.44044 19.0756 6.34135 17.9032 7.51379L8.70357 16.7034C8.31222 17.0947 7.67836 17.0947 7.2874 16.7038C6.89644 16.3128 6.89644 15.679 7.2874 15.288L15.777 6.80842C16.1677 6.41813 16.1681 5.78496 15.7778 5.39421C15.3875 5.00345 14.7544 5.00308 14.3636 5.39337L5.8736 13.8734C4.70118 15.0458 4.70118 16.946 5.87318 18.118C7.04519 19.29 8.94539 19.29 10.1174 18.118L19.317 8.92839C21.2709 6.97451 21.2709 3.80728 19.3174 1.85379C17.3639 -0.0997007 14.1967 -0.0997007 12.2432 1.85379L3.05318 11.0438C0.31821 13.7788 0.31821 18.213 3.05318 20.948C5.78816 23.683 10.2224 23.683 12.9574 20.948L22.1474 11.758C22.5379 11.3675 22.5379 10.7343 22.1474 10.3438C21.7569 9.95326 21.1237 9.95326 20.7332 10.3438Z" fill="black"/>
</svg>
