<svg width="24" height="24" viewBox="0 0 24 24" fill="none" xmlns="http://www.w3.org/2000/svg">
<rect width="24" height="24" fill="white" fill-opacity="0.01"/>
<path d="M2.08496 1.00391C2.09634 1.00492 2.1077 1.00639 2.11914 1.00781C2.15293 1.01185 2.18641 1.01791 2.21973 1.02539C2.22474 1.02652 2.23033 1.02711 2.23535 1.02832L16.7354 4.52832C17.1133 4.61992 17.404 4.92241 17.4805 5.30371L18.6328 11.0693C18.992 10.9279 19.4166 11.0026 19.707 11.293L22.707 14.293C23.0974 14.6835 23.0975 15.3166 22.707 15.707L15.707 22.707C15.3166 23.0975 14.6835 23.0974 14.293 22.707L11.293 19.707C11.0026 19.4166 10.9279 18.992 11.0693 18.6328L5.30371 17.4805C4.92241 17.404 4.61992 17.1133 4.52832 16.7354L1.02832 2.23535C1.02711 2.23033 1.02652 2.22474 1.02539 2.21973C1.01791 2.18641 1.01185 2.15293 1.00781 2.11914C1.00639 2.1077 1.00492 2.09634 1.00391 2.08496C1.0015 2.05668 1 2.02836 1 2V1.9668C1.00042 1.95271 1.00192 1.93875 1.00293 1.9248C1.00386 1.9124 1.00545 1.90007 1.00684 1.8877C1.01537 1.8109 1.0323 1.73679 1.05762 1.66602C1.06385 1.64838 1.06989 1.63062 1.07715 1.61328C1.08346 1.59836 1.09064 1.58388 1.09766 1.56934C1.10698 1.54981 1.11727 1.53073 1.12793 1.51172C1.13626 1.49697 1.14427 1.48206 1.15332 1.46777C1.16806 1.44437 1.1843 1.4218 1.20117 1.39941C1.20553 1.39365 1.20939 1.3875 1.21387 1.38184C1.23815 1.35103 1.26454 1.32139 1.29297 1.29297C1.32139 1.26454 1.35103 1.23815 1.38184 1.21387C1.3875 1.20939 1.39365 1.20553 1.39941 1.20117C1.4218 1.1843 1.44437 1.16806 1.46777 1.15332C1.48206 1.14427 1.49697 1.13626 1.51172 1.12793C1.53073 1.11727 1.54981 1.10698 1.56934 1.09766C1.58388 1.09064 1.59836 1.08346 1.61328 1.07715C1.63062 1.06989 1.64838 1.06385 1.66602 1.05762C1.73679 1.0323 1.8109 1.01537 1.8877 1.00684C1.90007 1.00545 1.9124 1.00386 1.9248 1.00293C1.93875 1.00192 1.95271 1.00042 1.9668 1H2C2.02836 1 2.05668 1.0015 2.08496 1.00391ZM13.4141 19L15 20.5859L20.5859 15L19 13.4141L13.4141 19ZM9.70898 8.29492C10.1004 8.10781 10.5373 8 11 8C12.6568 8.00007 14 9.34319 14 11C13.9999 12.6567 12.6567 13.9999 11 14C9.34319 14 8.00007 12.6568 8 11C8 10.5373 8.10781 10.1004 8.29492 9.70898L3.80566 5.21973L6.32227 15.6445L12.6709 16.9141L16.9141 12.6709L15.6445 6.32227L5.21973 3.80566L9.70898 8.29492ZM11 10C10.4477 10 10 10.4477 10 11C10.0001 11.5522 10.4478 12 11 12C11.5522 11.9999 11.9999 11.5522 12 11C12 10.4478 11.5522 10.0001 11 10Z" fill="black"/>
</svg>
