<svg width="24" height="24" viewBox="0 0 24 24" fill="none" xmlns="http://www.w3.org/2000/svg">
<rect width="24" height="24" fill="white" fill-opacity="0.01"/>
<path d="M22.293 0.292969C22.6835 -0.097555 23.3165 -0.097555 23.707 0.292969C24.0976 0.683493 24.0976 1.31651 23.707 1.70703L12.123 13.29C12.5748 13.6854 13.0491 14.0543 13.5449 14.3926L13.9355 14.6504L14.6572 13.9297C15.49 13.1062 16.7253 12.8427 17.8193 13.2539C18.6559 13.5661 19.5255 13.7824 20.4199 13.9004C21.8512 14.1027 22.9254 15.2934 22.9961 16.7119L23 16.8906V19.8867C23.0031 20.7312 22.6506 21.5385 22.0283 22.1094C21.4059 22.6803 20.5711 22.9626 19.7119 22.8848C16.4793 22.5335 13.3744 21.4281 10.6543 19.6641C9.66716 19.0373 8.73695 18.3261 7.87207 17.541L1.70703 23.707C1.31651 24.0976 0.683493 24.0976 0.292969 23.707C-0.097555 23.3165 -0.097555 22.6835 0.292969 22.293L9.89258 12.6924C9.91709 12.6612 9.9439 12.6313 9.97266 12.6025C10.0013 12.5739 10.0314 12.5469 10.0625 12.5225L22.293 0.292969ZM9.28711 16.126C10.0474 16.8092 10.8649 17.4293 11.7344 17.9814C14.2 19.5803 17.0067 20.5789 19.9102 20.8945C20.1903 20.9198 20.4684 20.8257 20.6758 20.6357C20.8535 20.4727 20.9654 20.2512 20.9932 20.0117L21 19.8906V16.8809C21.0049 16.379 20.6371 15.9509 20.1494 15.8818C19.1146 15.7454 18.0983 15.4917 17.1182 15.126C16.7934 15.0039 16.4316 15.0599 16.1631 15.2637L16.0674 15.3477L14.7969 16.6172C14.4786 16.9353 13.9869 17.0017 13.5957 16.7793C12.5617 16.1914 11.5948 15.4949 10.707 14.7061L9.28711 16.126ZM7.10059 1C8.60617 0.985537 9.88958 2.08978 10.1016 3.58984C10.2183 4.47493 10.4348 5.34455 10.7461 6.17871C11.1337 7.21033 10.9228 8.36549 10.207 9.19531L10.0674 9.34766L8.79688 10.6172C8.40638 11.0075 7.77328 11.0075 7.38281 10.6172C7.02258 10.2568 6.99516 9.69008 7.2998 9.29785L7.38281 9.20312L8.64844 7.9375C8.92288 7.65997 9.01112 7.24751 8.87305 6.87988C8.50819 5.9021 8.25536 4.88583 8.12012 3.86035C8.05528 3.40162 7.68544 3.053 7.22656 3.00586L7.11035 3H4.11133C3.83055 3.00034 3.56228 3.11887 3.37305 3.32617C3.18401 3.53344 3.09081 3.81087 3.11426 4.07227C3.43176 6.99382 4.43031 9.80092 6.0293 12.2666C6.32923 12.7298 6.19736 13.349 5.73438 13.6494C5.27109 13.9497 4.65109 13.8176 4.35059 13.3545C2.58147 10.6264 1.47713 7.52096 1.12402 4.27051C1.04824 3.43192 1.32888 2.59946 1.89648 1.97754C2.41682 1.40768 3.13505 1.06219 3.90039 1.00781L4.11035 1H7.10059Z" fill="black"/>
</svg>
