<svg width="24" height="24" viewBox="0 0 24 24" fill="none" xmlns="http://www.w3.org/2000/svg">
<rect width="24" height="24" fill="white" fill-opacity="0.01"/>
<path d="M7.28516 1.00391C8.70976 1.07705 9.89812 2.15072 10.1016 3.58887C10.2183 4.4741 10.4348 5.34441 10.7461 6.17871C11.1579 7.27487 10.8947 8.51105 10.0674 9.34766L9.34961 10.0645C10.5255 11.909 12.0909 13.4746 13.9355 14.6504L14.6572 13.9287C15.49 13.1056 16.7255 12.8419 17.8193 13.2529C18.6559 13.5651 19.5257 13.7824 20.4199 13.9004C21.8677 14.1048 22.948 15.3192 22.999 16.7412L23 19.916C23.0034 20.7606 22.6506 21.5677 22.0283 22.1387C21.4059 22.7097 20.5712 22.9919 19.7119 22.9141C16.4793 22.5628 13.3737 21.4586 10.6533 19.6943C8.11332 18.0803 5.9599 15.9262 4.35059 13.3936C2.57534 10.6531 1.47045 7.533 1.12402 4.27051C1.04824 3.43186 1.3288 2.59948 1.89648 1.97754C2.46417 1.35576 3.26726 1.00094 4.11035 1H7.10547L7.28516 1.00391ZM4.11133 3C3.83052 3.00031 3.5623 3.11885 3.37305 3.32617C3.18407 3.53338 3.09063 3.81048 3.11426 4.07422C3.42593 7.00892 4.42489 9.8292 6.03418 12.3135C7.49077 14.6057 9.43437 16.5492 11.7344 18.0107C14.2001 19.6097 17.0066 20.6082 19.9102 20.9238C20.1904 20.9491 20.4684 20.8552 20.6758 20.665C20.8832 20.4747 21.0011 20.2055 21 19.9199V16.8955C21.0126 16.388 20.6431 15.9517 20.1494 15.8818C19.1146 15.7454 18.0983 15.4917 17.1182 15.126C16.7527 14.9886 16.341 15.0771 16.0674 15.3477L14.7969 16.6172C14.4786 16.9353 13.9869 17.0017 13.5957 16.7793C10.9357 15.2668 8.73323 13.0643 7.2207 10.4043C6.99825 10.013 7.06464 9.52143 7.38281 9.20312L8.64844 7.93652C8.92286 7.65901 9.01109 7.24749 8.87305 6.87988C8.50819 5.90211 8.25536 4.88582 8.12012 3.86035C8.04989 3.36348 7.62192 2.99534 7.12012 3H4.11133ZM22.293 0.292969C22.6835 -0.0975495 23.3165 -0.0975535 23.707 0.292969C24.0975 0.683498 24.0975 1.31653 23.707 1.70703L18.4141 7H22C22.5522 7.00005 23 7.44774 23 8C23 8.55222 22.5522 8.99995 22 9H16L15.8975 8.99512C15.876 8.99293 15.855 8.9879 15.834 8.98438C15.8236 8.98263 15.8131 8.98157 15.8027 8.97949C15.7912 8.97719 15.7799 8.97437 15.7686 8.97168C15.748 8.9668 15.7273 8.96225 15.707 8.95605C15.6934 8.95188 15.6804 8.94614 15.667 8.94141C15.6496 8.93527 15.6323 8.929 15.6152 8.92188C15.6063 8.91816 15.5976 8.91412 15.5889 8.91016C15.5392 8.88772 15.4906 8.86203 15.4443 8.83105C15.3349 8.75774 15.2411 8.66332 15.168 8.55371C15.142 8.51471 15.1196 8.47413 15.0996 8.43262C15.0777 8.38704 15.0579 8.34011 15.043 8.29102C15.0304 8.24964 15.0217 8.20743 15.0146 8.16504C15.0057 8.11129 15 8.05628 15 8V2C15 1.44772 15.4477 1 16 1C16.5522 1.00005 17 1.44774 17 2V5.58594L22.293 0.292969Z" fill="black"/>
</svg>
