<svg width="24" height="24" viewBox="0 0 24 24" fill="none" xmlns="http://www.w3.org/2000/svg">
<rect width="24" height="24" fill="white" fill-opacity="0.01"/>
<path fill-rule="evenodd" clip-rule="evenodd" d="M7.28484 1.00386C8.70974 1.07686 9.89808 2.15085 10.1014 3.58934C10.2181 4.47464 10.4347 5.34388 10.746 6.17824C11.1581 7.27455 10.8945 8.51045 10.0671 9.34721L9.34996 10.0643C10.5258 11.9089 12.0911 13.4742 13.9358 14.6501L14.6568 13.929C15.4896 13.1055 16.7255 12.8419 17.8195 13.2532C18.6562 13.5654 19.5254 13.7819 20.4196 13.8999C21.8676 14.1042 22.948 15.3191 22.999 16.7413L22.9999 19.916C23.0034 20.7608 22.6505 21.5678 22.0281 22.1388C21.4056 22.7099 20.5712 22.9921 19.7119 22.9142C16.4793 22.563 13.3741 21.4584 10.6536 19.6941C8.11354 18.08 5.96 15.9265 4.35066 13.3938C2.57524 10.6532 1.47036 7.53288 1.124 4.2701C1.04821 3.43141 1.32841 2.59948 1.89615 1.97753C2.46384 1.35564 3.26677 1.00094 4.10994 1H7.10556L7.28484 1.00386ZM7.11969 2.99995L4.11106 3C3.83025 3.00031 3.56253 3.11858 3.37327 3.32591C3.18402 3.53322 3.09062 3.81053 3.11435 4.0745C3.42601 7.0093 4.4246 9.82943 6.03396 12.3138C7.49056 14.606 9.434 16.5495 11.734 18.0111C14.1998 19.6101 17.0063 20.6085 19.91 20.9242C20.1904 20.9495 20.4685 20.8554 20.676 20.6651C20.8835 20.4747 21.0011 20.2057 20.9999 19.9201L21.0003 16.8953C21.0128 16.3877 20.643 15.9512 20.1492 15.8815C19.1143 15.745 18.0983 15.4919 17.1181 15.1262C16.7526 14.9888 16.3407 15.0766 16.0671 15.3472L14.7971 16.6172C14.4787 16.9355 13.987 17.0019 13.5956 16.7794C10.9356 15.2669 8.73318 13.0644 7.22065 10.4044C6.99814 10.0131 7.06452 9.5213 7.38284 9.20299L8.64889 7.93696C8.9234 7.65936 9.01126 7.2474 8.87305 6.8797C8.50813 5.90177 8.25501 4.88569 8.11979 3.86005C8.04953 3.36303 7.62169 2.99506 7.11969 2.99995Z" fill="black"/>
</svg>
