<svg width="24" height="24" viewBox="0 0 24 24" fill="none" xmlns="http://www.w3.org/2000/svg">
<rect width="24" height="24" fill="white" fill-opacity="0.01"/>
<path d="M7.60059 1.91309C8.10662 1.69248 8.69607 1.92378 8.91699 2.42969C9.13785 2.93579 8.9064 3.52511 8.40039 3.74609C4.69365 5.36365 2.52069 9.25558 3.08887 13.2598C3.65707 17.2639 6.82663 20.3973 10.8369 20.9199C14.8472 21.4424 18.7138 19.2257 20.2891 15.501C20.5041 14.9924 21.091 14.7538 21.5996 14.9688C22.1082 15.1838 22.3467 15.7707 22.1318 16.2793C20.2067 20.832 15.4807 23.5418 10.5791 22.9033C5.67753 22.2648 1.80397 18.4349 1.10938 13.541C0.414884 8.64697 3.0701 3.89012 7.60059 1.91309ZM12 1C14.9173 1 17.7154 2.15888 19.7783 4.22168C21.8412 6.28458 23 9.08262 23 12C23 12.5523 22.5523 13 22 13H12C11.4479 12.9998 11 12.5522 11 12V2C11 1.44782 11.4479 1.00017 12 1ZM13 11H20.9443C20.7187 8.98099 19.8147 7.08616 18.3643 5.63574C16.9139 4.18541 15.0189 3.28133 13 3.05566V11Z" fill="black"/>
</svg>
