<svg width="24" height="24" viewBox="0 0 24 24" fill="none" xmlns="http://www.w3.org/2000/svg">
<rect width="24" height="24" fill="white" fill-opacity="0.01"/>
<path d="M12 1C18.0751 1 23 5.92487 23 12C23 18.0751 18.0751 23 12 23C5.92487 23 1 18.0751 1 12C1 5.92487 5.92487 1 12 1ZM12 3C7.02944 3 3 7.02944 3 12C3 16.9706 7.02944 21 12 21C16.9706 21 21 16.9706 21 12C21 7.02944 16.9706 3 12 3ZM9 8C9.00031 7.20163 9.89027 6.72523 10.5547 7.16797L16.5547 11.168C17.1482 11.5638 17.1482 12.4362 16.5547 12.832L10.5547 16.832C9.89027 17.2748 9.00031 16.7984 9 16V8ZM11 14.1318L14.1973 12L11 9.86914V14.1318Z" fill="black"/>
</svg>
