<svg width="24" height="24" viewBox="0 0 24 24" fill="none" xmlns="http://www.w3.org/2000/svg">
<rect width="24" height="24" fill="white" fill-opacity="0.01"/>
<path d="M20 2C21.6569 2 23 3.34315 23 5V11C23 17.0751 18.0751 22 12 22C9.08262 22 6.28458 20.8412 4.22168 18.7783C2.15878 16.7154 1 13.9174 1 11V5C1 3.34315 2.34315 2 4 2H20ZM4 4C3.44772 4 3 4.44772 3 5V11C3 13.3869 3.94791 15.6764 5.63574 17.3643C7.32357 19.0521 9.61305 20 12 20C16.9706 20 21 15.9706 21 11V5C21 4.44772 20.5523 4 20 4H4ZM15.293 9.29297C15.6835 8.90244 16.3165 8.90244 16.707 9.29297C17.0976 9.68349 17.0976 10.3165 16.707 10.707L12.707 14.707C12.3165 15.0976 11.6835 15.0976 11.293 14.707L7.29297 10.707C6.90244 10.3165 6.90244 9.68349 7.29297 9.29297C7.68349 8.90244 8.31651 8.90244 8.70703 9.29297L12 12.5859L15.293 9.29297Z" fill="black"/>
</svg>
