<svg width="24" height="24" viewBox="0 0 24 24" fill="none" xmlns="http://www.w3.org/2000/svg">
<rect width="24" height="24" fill="white" fill-opacity="0.01"/>
<path d="M17.6533 5.93262C18.0439 5.54239 18.677 5.54226 19.0674 5.93262C22.9717 9.8382 22.9706 16.1695 19.0654 20.0742C15.1603 23.9788 8.82993 23.9788 4.9248 20.0742C1.01965 16.1695 1.01855 9.8382 4.92285 5.93262C5.31327 5.54226 5.94637 5.54239 6.33691 5.93262C6.7275 6.32308 6.72737 6.95609 6.33691 7.34668C3.21353 10.4711 3.21476 15.5364 6.33887 18.6602C9.46294 21.7837 14.5273 21.7837 17.6514 18.6602C20.7755 15.5364 20.7767 10.4711 17.6533 7.34668C17.2629 6.95609 17.2627 6.32308 17.6533 5.93262ZM12 1C12.5523 1 13 1.44772 13 2V12C13 12.5523 12.5523 13 12 13C11.4478 12.9999 11 12.5522 11 12V2C11 1.44775 11.4478 1.00006 12 1Z" fill="black"/>
</svg>
