<svg width="24" height="24" viewBox="0 0 24 24" fill="none" xmlns="http://www.w3.org/2000/svg">
<rect width="24" height="24" fill="white" fill-opacity="0.01"/>
<path d="M18 1C18.5523 1 19 1.44772 19 2V8H20C21.6569 8 23 9.34315 23 11V16C23 17.6569 21.6569 19 20 19H19V22C19 22.5523 18.5523 23 18 23H6C5.44772 23 5 22.5523 5 22V19H4C2.34315 19 1 17.6569 1 16V11C1 9.34315 2.34315 8 4 8H5V2C5 1.44772 5.44772 1 6 1H18ZM7 21H17V15H7V21ZM4 10C3.44772 10 3 10.4477 3 11V16C3 16.5523 3.44772 17 4 17H5V14C5 13.4477 5.44772 13 6 13H18C18.5523 13 19 13.4477 19 14V17H20C20.5523 17 21 16.5523 21 16V11C21 10.4477 20.5523 10 20 10H4ZM7 8H17V3H7V8Z" fill="black"/>
</svg>
