<svg width="24" height="24" viewBox="0 0 24 24" fill="none" xmlns="http://www.w3.org/2000/svg">
<rect width="24" height="24" fill="white" fill-opacity="0.01"/>
<path d="M4.22266 4.22266C4.61312 3.83211 5.24615 3.8322 5.63672 4.22266C6.02726 4.61312 6.02717 5.24615 5.63672 5.63672C2.12357 9.15112 2.12369 14.8478 5.63672 18.3623C6.02718 18.7529 6.0273 19.3869 5.63672 19.7773C5.24611 20.1675 4.61303 20.1669 4.22266 19.7764C-0.071411 15.4809 -0.0715004 8.51811 4.22266 4.22266ZM18.3633 4.22266C18.7539 3.83233 19.3869 3.83212 19.7773 4.22266C24.0713 8.51806 24.0712 15.4809 19.7773 19.7764C19.387 20.1668 18.7539 20.1674 18.3633 19.7773C17.9727 19.3869 17.9718 18.7529 18.3623 18.3623C21.8757 14.8478 21.8757 9.1512 18.3623 5.63672C17.972 5.24612 17.9727 4.61308 18.3633 4.22266ZM15.5322 7.05273C15.9224 6.66218 16.5555 6.66181 16.9463 7.05176C18.2607 8.36474 19 10.147 19 12.0049C18.9999 13.8627 18.2607 15.6441 16.9463 16.957C16.5555 17.3473 15.9225 17.3468 15.5322 16.9561C15.1421 16.5653 15.1425 15.9322 15.5332 15.542C16.472 14.6042 16.9999 13.3318 17 12.0049C17 10.6778 16.4721 9.40464 15.5332 8.4668C15.1426 8.07648 15.142 7.44343 15.5322 7.05273ZM7.05273 7.04199C7.44348 6.65169 8.07747 6.65223 8.46777 7.04297C8.85779 7.43366 8.85725 8.06678 8.4668 8.45703C7.52791 9.39487 7 10.6681 7 11.9951C7.00011 13.322 7.52801 14.5945 8.4668 15.5322C8.85729 15.9225 8.85775 16.5556 8.46777 16.9463C8.07747 17.337 7.44348 17.3376 7.05273 16.9473C5.73849 15.6344 5.00011 13.8528 5 11.9951C5 10.1373 5.73835 8.35496 7.05273 7.04199ZM12 9C13.6568 9.0001 15 10.3432 15 12C14.9998 13.6567 13.6567 14.9999 12 15C10.3432 15 9.00017 13.6567 9 12C9 10.3431 10.3431 9 12 9ZM12 11C11.4477 11 11 11.4477 11 12C11.0002 12.5521 11.4478 13 12 13C12.5521 12.9999 12.9998 12.5521 13 12C13 11.4478 12.5522 11.0001 12 11Z" fill="black"/>
</svg>
