<svg width="24" height="24" viewBox="0 0 24 24" fill="none" xmlns="http://www.w3.org/2000/svg">
<rect width="24" height="24" fill="white" fill-opacity="0.01"/>
<path d="M23.0186 13.001C23.0417 13.0014 23.0648 13.0028 23.0879 13.0049C23.0934 13.0054 23.099 13.0053 23.1045 13.0059C23.133 13.0088 23.1613 13.0131 23.1895 13.0186C23.1947 13.0196 23.1999 13.0204 23.2051 13.0215C23.2241 13.0254 23.2429 13.0301 23.2617 13.0352C23.2781 13.0396 23.2945 13.0436 23.3105 13.0488C23.3192 13.0516 23.3274 13.0556 23.3359 13.0586C23.3568 13.066 23.3773 13.0742 23.3975 13.083C23.4404 13.1016 23.482 13.1236 23.5225 13.1484C23.538 13.158 23.5534 13.1674 23.5684 13.1777C23.5844 13.1888 23.5998 13.2008 23.6152 13.2129C23.6231 13.219 23.631 13.2251 23.6387 13.2314C23.654 13.2442 23.6689 13.2577 23.6836 13.2715C23.6954 13.2825 23.7066 13.2941 23.7178 13.3057C23.7211 13.3091 23.7252 13.3119 23.7285 13.3154C23.7371 13.3245 23.7448 13.3344 23.7529 13.3438C23.7608 13.3528 23.7688 13.3618 23.7764 13.3711C23.7916 13.3898 23.8057 13.4092 23.8193 13.4287C23.8235 13.4346 23.828 13.4403 23.832 13.4463C23.861 13.4896 23.8858 13.5347 23.9072 13.5811C23.914 13.5956 23.9207 13.6101 23.9268 13.625C23.9497 13.6816 23.9674 13.7397 23.9795 13.7988C23.988 13.8406 23.9929 13.8833 23.9961 13.9268C23.9977 13.9482 23.9988 13.9697 23.999 13.9912C23.999 13.9941 24 13.9971 24 14V20C24 20.5523 23.5523 21 23 21C22.4477 21 22 20.5523 22 20V16.3115L19.0674 19.0674C16.6401 21.4957 13.1359 22.5097 9.78711 21.752C6.43841 20.9941 3.7128 18.5707 2.56738 15.334C2.38321 14.8135 2.65551 14.2421 3.17578 14.0576C3.69643 13.8734 4.26791 14.1463 4.45215 14.667C5.36847 17.2563 7.54962 19.1945 10.2285 19.8008C12.8117 20.3853 15.5102 19.6522 17.4609 17.8379L17.6748 17.6318L20.4756 15H17C16.4477 15 16 14.5523 16 14C16.0001 13.4478 16.4478 13 17 13H23C23.0062 13 23.0124 13.0009 23.0186 13.001ZM4.93262 4.93359C7.35979 2.50523 10.8632 1.4915 14.2119 2.24902C17.5608 3.00676 20.2872 5.43012 21.4326 8.66699C21.6167 9.18757 21.3438 9.75915 20.8232 9.94336C20.3027 10.1273 19.7311 9.85445 19.5469 9.33398C18.6305 6.74451 16.4496 4.80638 13.7705 4.2002C11.1872 3.61583 8.48873 4.34852 6.53809 6.16309L6.32422 6.36914L3.52441 9H7C7.5522 9 7.99987 9.44783 8 10C8 10.5523 7.55228 11 7 11H1C0.996737 11 0.99349 10.9991 0.990234 10.999C0.968366 10.9988 0.946615 10.9977 0.924805 10.9961C0.911397 10.9951 0.898021 10.9947 0.884766 10.9932C0.86184 10.9905 0.83913 10.9866 0.816406 10.9824C0.808852 10.981 0.801439 10.9791 0.793945 10.9775C0.768365 10.9722 0.742938 10.9664 0.717773 10.959C0.711239 10.9571 0.70472 10.9552 0.698242 10.9531C0.678808 10.947 0.65972 10.94 0.640625 10.9326C0.627504 10.9276 0.61441 10.9226 0.601562 10.917C0.584746 10.9097 0.568225 10.9018 0.551758 10.8936C0.540687 10.888 0.529386 10.8829 0.518555 10.877C0.428721 10.8276 0.344455 10.7642 0.270508 10.6855C0.191095 10.601 0.130373 10.5057 0.0859375 10.4053C0.0828713 10.3984 0.079085 10.3918 0.0761719 10.3848C0.0397048 10.297 0.0162175 10.2052 0.00585938 10.1123C0.00445399 10.0997 0.00386182 10.087 0.00292969 10.0742C0.00181056 10.0589 0.000418679 10.0436 0 10.0283V4C0.000130729 3.44783 0.447796 3 1 3C1.5522 3 1.99987 3.44783 2 4V7.6875L4.93262 4.93359Z" fill="black"/>
</svg>
