<svg width="24" height="24" viewBox="0 0 24 24" fill="none" xmlns="http://www.w3.org/2000/svg">
<rect width="24" height="24" fill="white" fill-opacity="0.01"/>
<path d="M10.3857 4.21094C11.0426 3.70005 12 4.16883 12 5.00098V19.001C11.9994 19.8326 11.0424 20.3007 10.3857 19.79L1.38574 12.79C0.871222 12.3897 0.87137 11.6113 1.38574 11.2109L10.3857 4.21094ZM21.3857 4.21094C22.0426 3.70005 23 4.16883 23 5.00098V19.001C22.9994 19.8326 22.0424 20.3007 21.3857 19.79L12.3857 12.79C11.8712 12.3897 11.8714 11.6113 12.3857 11.2109L21.3857 4.21094ZM3.62891 12.001L10 16.9561V7.04492L3.62891 12.001ZM14.6289 12.001L21 16.9561V7.04492L14.6289 12.001Z" fill="black"/>
</svg>
