<svg width="24" height="24" viewBox="0 0 24 24" fill="none" xmlns="http://www.w3.org/2000/svg">
<rect width="24" height="24" fill="white" fill-opacity="0.01"/>
<path d="M16 2C16.2652 2 16.5195 2.10543 16.707 2.29297L21.707 7.29297C21.8946 7.48051 22 7.73478 22 8V19C22 20.6569 20.6569 22 19 22H5C3.34315 22 2 20.6569 2 19V5C2 3.34315 3.34315 2 5 2H16ZM5 4C4.44772 4 4 4.44772 4 5V19C4 19.5523 4.44772 20 5 20H6V13C6 12.4477 6.44772 12 7 12H17C17.5523 12 18 12.4477 18 13V20H19C19.5523 20 20 19.5523 20 19V8.41406L15.5859 4H8V7H15C15.5523 7 16 7.44772 16 8C16 8.55228 15.5523 9 15 9H7C6.44772 9 6 8.55228 6 8V4H5ZM8 20H16V14H8V20Z" fill="black"/>
</svg>
