<svg width="24" height="24" viewBox="0 0 24 24" fill="none" xmlns="http://www.w3.org/2000/svg">
<rect width="24" height="24" fill="white" fill-opacity="0.01"/>
<path d="M21.9961 1C22.0033 0.999973 22.0104 0.999874 22.0176 1C22.1074 1.00116 22.1943 1.01473 22.2773 1.03906C22.2885 1.04228 22.2995 1.04619 22.3105 1.0498C22.3397 1.05949 22.3685 1.06975 22.3965 1.08203C22.4251 1.09439 22.4529 1.10886 22.4805 1.12402C22.4916 1.1302 22.5028 1.136 22.5137 1.14258C22.5365 1.15627 22.5582 1.17183 22.5801 1.1875C22.5928 1.19665 22.6059 1.20513 22.6182 1.21484C22.6488 1.23901 22.6788 1.26471 22.707 1.29297C22.735 1.32091 22.7602 1.35061 22.7842 1.38086C22.7939 1.39311 22.8024 1.40626 22.8115 1.41895C22.8272 1.44083 22.8427 1.46255 22.8564 1.48535C22.863 1.49619 22.8688 1.50746 22.875 1.51855C22.8902 1.54615 22.9046 1.57391 22.917 1.60254C22.9279 1.62733 22.9364 1.65297 22.9453 1.67871C22.9504 1.69376 22.9566 1.70841 22.9609 1.72363C22.9826 1.79794 22.9938 1.87528 22.9971 1.95508C22.9979 1.9743 22.9993 1.99346 22.999 2.0127C22.9987 2.03121 22.9975 2.04967 22.9961 2.06836C22.9941 2.09715 22.9908 2.12573 22.9863 2.1543C22.9844 2.16592 22.9838 2.17779 22.9814 2.18945C22.9728 2.23444 22.9602 2.27858 22.9453 2.32227C22.9444 2.32502 22.9443 2.3283 22.9434 2.33105L15.9434 22.3311C15.6438 23.1851 14.4538 23.2334 14.0859 22.4062L10.2422 13.7578L1.59375 9.91406C0.766216 9.54618 0.815113 8.35582 1.66992 8.05664L21.6699 1.05664C21.671 1.05627 21.6718 1.05506 21.6729 1.05469C21.7183 1.039 21.7646 1.02652 21.8115 1.01758C21.8238 1.01513 21.8364 1.01466 21.8486 1.0127C21.8727 1.00903 21.8967 1.00581 21.9209 1.00391C21.9462 1.00172 21.9712 1.00023 21.9961 1ZM12.1924 13.2207L14.8896 19.2891L19.6084 5.80469L12.1924 13.2207ZM4.71094 9.11133L10.7773 11.8076L18.1943 4.39062L4.71094 9.11133Z" fill="black"/>
</svg>
