<svg width="24" height="24" viewBox="0 0 24 24" fill="none" xmlns="http://www.w3.org/2000/svg">
<rect width="24" height="24" fill="white" fill-opacity="0.01"/>
<path d="M20 13C21.6569 13 23 14.3431 23 16V20C23 21.6569 21.6569 23 20 23H4C2.34315 23 1 21.6569 1 20V16C1 14.3431 2.34315 13 4 13H20ZM4 15C3.44772 15 3 15.4477 3 16V20C3 20.5523 3.44772 21 4 21H20C20.5523 21 21 20.5523 21 20V16C21 15.4477 20.5523 15 20 15H4ZM5.29297 17.293C5.68349 16.9024 6.31651 16.9024 6.70703 17.293C7.09756 17.6835 7.09756 18.3165 6.70703 18.707C6.31651 19.0976 5.68349 19.0976 5.29297 18.707C4.90244 18.3165 4.90244 17.6835 5.29297 17.293ZM20 1C21.6569 1 23 2.34315 23 4V8C23 9.65685 21.6569 11 20 11H4C2.34315 11 1 9.65685 1 8V4C1 2.34315 2.34315 1 4 1H20ZM4 3C3.44772 3 3 3.44772 3 4V8C3 8.55228 3.44772 9 4 9H20C20.5523 9 21 8.55228 21 8V4C21 3.44772 20.5523 3 20 3H4ZM5.29297 5.29297C5.68349 4.90244 6.31651 4.90244 6.70703 5.29297C7.09756 5.68349 7.09756 6.31651 6.70703 6.70703C6.31651 7.09756 5.68349 7.09756 5.29297 6.70703C4.90244 6.31651 4.90244 5.68349 5.29297 5.29297Z" fill="black"/>
</svg>
