<svg width="24" height="24" viewBox="0 0 24 24" fill="none" xmlns="http://www.w3.org/2000/svg">
<rect width="24" height="24" fill="white" fill-opacity="0.01"/>
<path d="M20 10.999C20.5522 10.999 20.9999 11.4468 21 11.999V19.999C21 21.6559 19.6569 22.999 18 22.999H6C4.34315 22.999 3 21.6559 3 19.999V11.999C3.00013 11.4468 3.44779 10.999 4 10.999C4.55221 10.999 4.99987 11.4468 5 11.999V19.999C5 20.5513 5.44772 20.999 6 20.999H18C18.5523 20.999 19 20.5513 19 19.999V11.999C19.0001 11.4468 19.4478 10.999 20 10.999ZM11.8027 1.01855C11.9309 0.992901 12.0631 0.99269 12.1914 1.01758L12.2012 1.01953C12.211 1.02154 12.2207 1.02407 12.2305 1.02637C12.251 1.03122 12.2717 1.03583 12.292 1.04199C12.3056 1.04614 12.3187 1.05193 12.332 1.05664C12.3494 1.06275 12.3667 1.06908 12.3838 1.07617C12.3927 1.07987 12.4014 1.08394 12.4102 1.08789C12.4319 1.09766 12.4535 1.10775 12.4746 1.11914C12.5603 1.16546 12.6387 1.22367 12.707 1.29199L16.707 5.29199C17.0975 5.68248 17.0974 6.31552 16.707 6.70605C16.3165 7.09658 15.6835 7.09658 15.293 6.70605L13 4.41309V14.999C13 15.5513 12.5523 15.999 12 15.999C11.4477 15.999 11 15.5513 11 14.999V4.41309L8.70703 6.70605C8.31651 7.09658 7.68349 7.09658 7.29297 6.70605C6.90256 6.31552 6.90248 5.68248 7.29297 5.29199L11.293 1.29199C11.3611 1.22387 11.439 1.1654 11.5244 1.11914C11.5455 1.10773 11.5672 1.09767 11.5889 1.08789C11.5976 1.08393 11.6063 1.07988 11.6152 1.07617C11.6323 1.06906 11.6496 1.06276 11.667 1.05664C11.6804 1.05192 11.6934 1.04615 11.707 1.04199C11.7273 1.03581 11.748 1.03123 11.7686 1.02637C11.7799 1.02368 11.7912 1.02085 11.8027 1.01855Z" fill="black"/>
</svg>
