<svg width="24" height="24" viewBox="0 0 24 24" fill="none" xmlns="http://www.w3.org/2000/svg">
<rect width="24" height="24" fill="white" fill-opacity="0.01"/>
<path d="M0.292969 0.292969C0.683493 -0.0975555 1.31651 -0.0975555 1.70703 0.292969L23.707 22.293C24.0976 22.6835 24.0976 23.3165 23.707 23.707C23.3165 24.0976 22.6835 24.0976 22.293 23.707L17.6396 19.0537C16.1207 20.5838 14.3773 21.8767 12.4668 22.8848C12.1816 23.0352 11.8411 23.0387 11.5527 22.8945C11.4605 22.8484 11.3475 22.789 11.2158 22.7168L10.7666 22.4609L10.2197 22.1289C9.23985 21.5165 8.26003 20.8063 7.3418 20.0029C4.64606 17.6442 3 14.9694 3 12V5C3 4.8328 3.04318 4.67351 3.11816 4.53223L0.292969 1.70703C-0.0975555 1.31651 -0.0975555 0.683493 0.292969 0.292969ZM5 12C5 14.2804 6.35415 16.4809 8.6582 18.4971C9.48976 19.2247 10.3854 19.8743 11.2803 20.4336C11.5366 20.5938 11.7772 20.7372 11.998 20.8623L12.4512 20.5986C13.8274 19.7734 15.0933 18.7772 16.2236 17.6377L5 6.41406V12ZM11.6504 1.06348C11.8764 0.979098 12.1257 0.978761 12.3516 1.06348L20.3516 4.06348C20.7417 4.20992 21 4.58327 21 5V12.0068C20.9949 12.7833 20.8757 13.5553 20.6455 14.2969C20.4817 14.8242 19.9209 15.1188 19.3936 14.9551C18.8661 14.7914 18.5716 14.2306 18.7354 13.7031C18.9072 13.1494 18.9962 12.5732 19 12V5.69336L11.999 3.06738L9.18945 4.11719C8.67233 4.31002 8.09663 4.04722 7.90332 3.53027C7.71012 3.01288 7.97285 2.43637 8.49023 2.24316L11.6504 1.06348Z" fill="black"/>
</svg>
