<svg width="24" height="24" viewBox="0 0 24 24" fill="none" xmlns="http://www.w3.org/2000/svg">
<rect width="24" height="24" fill="white" fill-opacity="0.01"/>
<path d="M9 19C10.1046 19 11 19.8954 11 21C11 22.1046 10.1046 23 9 23C7.89543 23 7 22.1046 7 21C7 19.8954 7.89543 19 9 19ZM20 19C21.1046 19 22 19.8954 22 21C22 22.1046 21.1046 23 20 23C18.8954 23 18 22.1046 18 21C18 19.8954 18.8954 19 20 19ZM5 0C5.47661 0 5.88691 0.336378 5.98047 0.803711L6.82031 5H23C23.6274 5 24.1 5.57121 23.9824 6.1875L22.3809 14.585C22.0977 16.0101 20.8339 17.0275 19.4004 17H9.69922C8.24629 17.0278 6.98204 16.0098 6.69922 14.5859L4.18066 2H1C0.447715 2 0 1.55228 0 1C0 0.447715 0.447715 0 1 0H5ZM8.66113 14.1953C8.75555 14.6702 9.17642 15.0093 9.67969 15H19.4189C19.9031 15.0093 20.3249 14.6706 20.418 14.2031L21.791 7H7.2207L8.66113 14.1953Z" fill="black"/>
</svg>
