<svg width="24" height="24" viewBox="0 0 24 24" fill="none" xmlns="http://www.w3.org/2000/svg">
<rect width="24" height="24" fill="white" fill-opacity="0.01"/>
<path d="M18 1C18.3148 1 18.611 1.14858 18.7998 1.40039L21.7998 5.40039C21.8014 5.40248 21.8022 5.40513 21.8037 5.40723C21.8934 5.52864 21.9561 5.67049 21.9834 5.8252C21.9853 5.83558 21.9868 5.84599 21.9883 5.85645C21.995 5.90339 22 5.95118 22 6V20C22 21.6569 20.6569 23 19 23H5C3.34315 23 2 21.6569 2 20V6C2 5.95123 2.004 5.90335 2.01074 5.85645C2.01226 5.846 2.01378 5.83557 2.01562 5.8252C2.04289 5.67062 2.10576 5.52859 2.19531 5.40723C2.19697 5.40497 2.19852 5.40263 2.2002 5.40039L5.2002 1.40039C5.38905 1.14858 5.68524 1 6 1H18ZM4 20C4 20.5523 4.44772 21 5 21H19C19.5523 21 20 20.5523 20 20V7H4V20ZM16 9C16.5523 9 17 9.44772 17 10C17 12.7614 14.7614 15 12 15C9.23858 15 7 12.7614 7 10C7 9.44772 7.44772 9 8 9C8.55228 9 9 9.44772 9 10C9 11.6569 10.3431 13 12 13C13.6569 13 15 11.6569 15 10L15.0068 9.88379C15.0646 9.38645 15.4872 9 16 9ZM5 5H19L17.5 3H6.5L5 5Z" fill="black"/>
</svg>
