<svg width="24" height="24" viewBox="0 0 24 24" fill="none" xmlns="http://www.w3.org/2000/svg">
<rect width="24" height="24" fill="white" fill-opacity="0.01"/>
<path d="M18.376 3.21875C19.0307 2.69531 19.9998 3.16079 20 3.99902V19.999C20 20.8373 19.0307 21.3035 18.376 20.7803L8.37598 12.7803C7.87557 12.3799 7.87557 11.6191 8.37598 11.2188L18.376 3.21875ZM5 3.99902C5.5522 3.99902 5.99986 4.44686 6 4.99902V18.999C6 19.5513 5.55228 19.999 5 19.999C4.44772 19.999 4 19.5513 4 18.999V4.99902C4.00014 4.44686 4.4478 3.99902 5 3.99902ZM10.6006 11.999L18 17.9189V6.08008L10.6006 11.999Z" fill="black"/>
</svg>
