<svg width="24" height="24" viewBox="0 0 24 24" fill="none" xmlns="http://www.w3.org/2000/svg">
<rect width="24" height="24" fill="white" fill-opacity="0.01"/>
<path d="M4 4C4 3.16149 4.97024 2.69494 5.625 3.21875L15.625 11.2188C16.1254 11.6191 16.1254 12.3809 15.625 12.7812L5.625 20.7812C4.97026 21.305 4.00006 20.8384 4 20V4ZM19 4C19.5523 4 20 4.44772 20 5V19C20 19.5522 19.5523 20 19 20C18.4477 20 18 19.5522 18 19V5C18 4.44772 18.4477 4 19 4ZM6 17.9189L13.3994 12L6 6.08008V17.9189Z" fill="black"/>
</svg>
