<svg width="24" height="24" viewBox="0 0 24 24" fill="none" xmlns="http://www.w3.org/2000/svg">
<rect width="24" height="24" fill="white" fill-opacity="0.01"/>
<path d="M17 1C18.6569 1 20 2.34315 20 4V20C20 21.6569 18.6569 23 17 23H7C5.34315 23 4 21.6569 4 20V4C4 2.34315 5.34315 1 7 1H17ZM7 3C6.44772 3 6 3.44772 6 4V20C6 20.5523 6.44772 21 7 21H17C17.5523 21 18 20.5523 18 20V4C18 3.44772 17.5523 3 17 3H7ZM11.293 17.293C11.6835 16.9024 12.3165 16.9024 12.707 17.293C13.0976 17.6835 13.0976 18.3165 12.707 18.707C12.3165 19.0976 11.6835 19.0976 11.293 18.707C10.9024 18.3165 10.9024 17.6835 11.293 17.293Z" fill="black"/>
</svg>
