<svg width="24" height="24" viewBox="0 0 24 24" fill="none" xmlns="http://www.w3.org/2000/svg">
<rect width="24" height="24" fill="white" fill-opacity="0.01"/>
<path d="M18 1C19.6569 1 21 2.34315 21 4V20C21 21.6569 19.6569 23 18 23H6C4.34315 23 3 21.6569 3 20V4C3 2.34315 4.34315 1 6 1H18ZM6 3C5.44772 3 5 3.44772 5 4V20C5 20.5523 5.44772 21 6 21H18C18.5523 21 19 20.5523 19 20V4C19 3.44772 18.5523 3 18 3H6ZM12 9C14.7614 9 17 11.2386 17 14C17 16.7614 14.7614 19 12 19C9.23858 19 7 16.7614 7 14C7 11.2386 9.23858 9 12 9ZM12 11C10.3431 11 9 12.3431 9 14C9 15.6569 10.3431 17 12 17C13.6569 17 15 15.6569 15 14C15 12.3431 13.6569 11 12 11ZM11.293 5.29297C11.6835 4.90244 12.3165 4.90244 12.707 5.29297C13.0976 5.68349 13.0976 6.31651 12.707 6.70703C12.3165 7.09756 11.6835 7.09756 11.293 6.70703C10.9024 6.31651 10.9024 5.68349 11.293 5.29297Z" fill="black"/>
</svg>
