<svg width="24" height="24" viewBox="0 0 24 24" fill="none" xmlns="http://www.w3.org/2000/svg">
<rect width="24" height="24" fill="white" fill-opacity="0.01"/>
<path d="M21.9995 9.66966C21.9363 9.48674 21.8215 9.32608 21.6688 9.20716C21.5162 9.08823 21.3323 9.01615 21.1395 8.99966L15.4495 8.16966L12.8995 2.99966C12.8176 2.83059 12.6898 2.688 12.5306 2.58823C12.3714 2.48846 12.1873 2.43555 11.9995 2.43555C11.8116 2.43555 11.6276 2.48846 11.4684 2.58823C11.3092 2.688 11.1814 2.83059 11.0995 2.99966L8.54949 8.15966L2.85949 8.99966C2.67441 9.02596 2.50041 9.10362 2.35724 9.22381C2.21407 9.34401 2.10745 9.50193 2.04949 9.67966C1.99643 9.85333 1.99167 10.0382 2.03572 10.2143C2.07976 10.3905 2.17095 10.5514 2.29949 10.6797L6.42949 14.6797L5.42949 20.3597C5.38912 20.5481 5.40404 20.7442 5.47247 20.9243C5.54091 21.1044 5.65993 21.261 5.81522 21.3751C5.97051 21.4891 6.15546 21.5559 6.34782 21.5674C6.54018 21.5789 6.73175 21.5345 6.89949 21.4397L11.9995 18.7697L17.0995 21.4397C17.2398 21.5188 17.3983 21.5602 17.5595 21.5597C17.7713 21.5604 17.9779 21.4939 18.1495 21.3697C18.3046 21.2585 18.4247 21.1053 18.4956 20.9281C18.5665 20.7509 18.5852 20.5571 18.5495 20.3697L17.5495 14.6897L21.6795 10.6897C21.8239 10.5673 21.9306 10.4066 21.9872 10.226C22.0439 10.0455 22.0481 9.85253 21.9995 9.66966ZM10.9995 16.9997L7.76949 18.6997L8.48949 14.4997C8.51573 14.3405 8.50306 14.1773 8.45256 14.024C8.40206 13.8708 8.31523 13.7321 8.19949 13.6197L5.19949 10.6197L9.40949 10.0097C9.57149 9.98712 9.72549 9.9252 9.85799 9.82931C9.99049 9.73342 10.0974 9.60649 10.1695 9.45966L10.9995 7.72966V16.9997ZM15.7995 13.6197C15.6837 13.7321 15.5969 13.8708 15.5464 14.024C15.4959 14.1773 15.4833 14.3405 15.5095 14.4997L16.2295 18.6997L12.9995 16.9997V7.72966L13.8795 9.51966C13.9515 9.66649 14.0585 9.79342 14.191 9.88931C14.3235 9.9852 14.4775 10.0471 14.6395 10.0697L18.8495 10.6797L15.7995 13.6197Z" fill="black"/>
</svg>
