<svg width="24" height="24" viewBox="0 0 24 24" fill="none" xmlns="http://www.w3.org/2000/svg">
<rect width="24" height="24" fill="white" fill-opacity="0.01"/>
<path d="M23 20.999C23.5522 20.999 23.9999 21.4468 24 21.999C24 22.5513 23.5523 22.999 23 22.999H1C0.447715 22.999 0 22.5513 0 21.999C9.89445e-05 21.4468 0.447776 20.999 1 20.999H23ZM3 16.999C3.55222 16.999 3.9999 17.4468 4 17.999C4 18.5513 3.55228 18.999 3 18.999H1C0.447715 18.999 0 18.5513 0 17.999C9.94598e-05 17.4468 0.447777 16.999 1 16.999H3ZM12 11.999C15.3136 11.999 17.9999 14.6854 18 17.999C18 18.5513 17.5523 18.999 17 18.999C16.4477 18.999 16 18.5513 16 17.999C15.9999 15.79 14.2091 13.999 12 13.999C9.79092 13.999 8.0001 15.79 8 17.999C8 18.5513 7.55228 18.999 7 18.999C6.44772 18.999 6 18.5513 6 17.999C6.0001 14.6854 8.68635 11.999 12 11.999ZM23 16.999C23.5522 16.999 23.9999 17.4468 24 17.999C24 18.5513 23.5523 18.999 23 18.999H21C20.4477 18.999 20 18.5513 20 17.999C20.0001 17.4468 20.4478 16.999 21 16.999H23ZM3.5127 9.51172C3.90311 9.12141 4.53623 9.12159 4.92676 9.51172L6.34668 10.9316C6.7372 11.3222 6.7372 11.9562 6.34668 12.3467C5.95614 12.7368 5.32301 12.737 4.93262 12.3467L3.5127 10.9268C3.12217 10.5362 3.12217 9.90224 3.5127 9.51172ZM19.0732 9.51172C19.4638 9.12159 20.0969 9.12141 20.4873 9.51172C20.8778 9.90224 20.8778 10.5362 20.4873 10.9268L19.0674 12.3467C18.677 12.737 18.0439 12.7368 17.6533 12.3467C17.2628 11.9562 17.2628 11.3222 17.6533 10.9316L19.0732 9.51172ZM12 0.999023L12.1025 1.00391C12.1236 1.00605 12.1443 1.01023 12.165 1.01367C12.1738 1.01513 12.1827 1.01588 12.1914 1.01758L12.2012 1.01953C12.211 1.02154 12.2207 1.02407 12.2305 1.02637C12.251 1.03122 12.2717 1.03583 12.292 1.04199C12.3056 1.04614 12.3187 1.05193 12.332 1.05664C12.3494 1.06275 12.3667 1.06908 12.3838 1.07617C12.3927 1.07988 12.4014 1.08394 12.4102 1.08789C12.4319 1.09766 12.4535 1.10774 12.4746 1.11914C12.5603 1.16547 12.6387 1.22366 12.707 1.29199L16.707 5.29199C17.0975 5.68249 17.0975 6.31552 16.707 6.70605C16.3165 7.09658 15.6835 7.09658 15.293 6.70605L13 4.41309V8.99902C13 9.55131 12.5523 9.99902 12 9.99902C11.4477 9.99902 11 9.55131 11 8.99902V4.41309L8.70703 6.70605C8.31651 7.09658 7.68349 7.09658 7.29297 6.70605C6.90254 6.31552 6.90248 5.68249 7.29297 5.29199L11.293 1.29199C11.3611 1.22386 11.439 1.1654 11.5244 1.11914C11.5455 1.10773 11.5672 1.09767 11.5889 1.08789C11.5976 1.08393 11.6063 1.07988 11.6152 1.07617C11.6323 1.06906 11.6496 1.06276 11.667 1.05664C11.6804 1.05192 11.6934 1.04615 11.707 1.04199C11.7273 1.03581 11.748 1.03124 11.7686 1.02637C11.7799 1.02368 11.7912 1.02085 11.8027 1.01855C11.8047 1.01817 11.8067 1.01796 11.8086 1.01758L11.8975 1.00391C11.9312 1.00048 11.9654 0.999023 12 0.999023Z" fill="black"/>
</svg>
