<svg width="24" height="24" viewBox="0 0 24 24" fill="none" xmlns="http://www.w3.org/2000/svg">
<rect width="24" height="24" fill="white" fill-opacity="0.01"/>
<path d="M23 21C23.5523 21 24 21.4477 24 22C24 22.5523 23.5523 23 23 23H1C0.447715 23 0 22.5523 0 22C0 21.4477 0.447715 21 1 21H23ZM3 17C3.55228 17 4 17.4477 4 18C4 18.5523 3.55228 19 3 19H1C0.447715 19 0 18.5523 0 18C0 17.4477 0.447715 17 1 17H3ZM12 12C15.3137 12 18 14.6863 18 18C18 18.5523 17.5523 19 17 19C16.4477 19 16 18.5523 16 18C16 15.7909 14.2091 14 12 14C9.79086 14 8 15.7909 8 18C8 18.5523 7.55228 19 7 19C6.44772 19 6 18.5523 6 18C6 14.6863 8.68629 12 12 12ZM23 17C23.5523 17 24 17.4477 24 18C24 18.5523 23.5523 19 23 19H21C20.4477 19 20 18.5523 20 18C20 17.4477 20.4477 17 21 17H23ZM3.5127 9.5127C3.90313 9.12226 4.53621 9.12244 4.92676 9.5127L6.34668 10.9326C6.7372 11.3231 6.7372 11.9562 6.34668 12.3467C5.95616 12.7372 5.32314 12.7372 4.93262 12.3467L3.5127 10.9268C3.12244 10.5362 3.12226 9.90313 3.5127 9.5127ZM19.0732 9.5127C19.4638 9.12244 20.0969 9.12226 20.4873 9.5127C20.8777 9.90313 20.8776 10.5362 20.4873 10.9268L19.0674 12.3467C18.6769 12.7372 18.0438 12.7372 17.6533 12.3467C17.2628 11.9562 17.2628 11.3231 17.6533 10.9326L19.0732 9.5127ZM12 1C12.5523 1 13 1.44772 13 2V6.58594L15.293 4.29297C15.6835 3.90244 16.3165 3.90244 16.707 4.29297C17.0976 4.68349 17.0976 5.31651 16.707 5.70703L12.707 9.70703C12.6592 9.75484 12.6065 9.79758 12.5498 9.83496C12.5121 9.85987 12.4727 9.88114 12.4326 9.90039C12.3874 9.92216 12.3407 9.9412 12.292 9.95605C12.2717 9.96224 12.2511 9.96682 12.2305 9.97168C12.2191 9.97436 12.2078 9.9772 12.1963 9.97949C12.1859 9.98156 12.1754 9.98264 12.165 9.98438C12.1112 9.99333 12.0563 10 12 10C11.9433 10 11.8881 9.99343 11.834 9.98438C11.8236 9.98263 11.8131 9.98157 11.8027 9.97949C11.7912 9.97719 11.7799 9.97437 11.7686 9.97168C11.748 9.9668 11.7273 9.96225 11.707 9.95605C11.6584 9.94116 11.6116 9.92219 11.5664 9.90039C11.5266 9.88123 11.4877 9.8597 11.4502 9.83496C11.3935 9.79758 11.3408 9.75484 11.293 9.70703L7.29297 5.70703C6.90244 5.31651 6.90244 4.68349 7.29297 4.29297C7.68349 3.90244 8.31651 3.90244 8.70703 4.29297L11 6.58594V2C11 1.44772 11.4477 1 12 1Z" fill="black"/>
</svg>
