<svg width="24" height="24" viewBox="0 0 24 24" fill="none" xmlns="http://www.w3.org/2000/svg">
<rect width="24" height="24" fill="white" fill-opacity="0.01"/>
<path d="M18 1C19.6569 1 21 2.34315 21 4V20C21 21.6569 19.6569 23 18 23H6C4.34315 23 3 21.6569 3 20V4C3 2.34315 4.34315 1 6 1H18ZM6 3C5.44772 3 5 3.44772 5 4V20C5 20.5523 5.44772 21 6 21H18C18.5523 21 19 20.5523 19 20V4C19 3.44772 18.5523 3 18 3H6ZM11.293 17.293C11.6835 16.9024 12.3165 16.9024 12.707 17.293C13.0976 17.6835 13.0976 18.3165 12.707 18.707C12.3165 19.0976 11.6835 19.0976 11.293 18.707C10.9024 18.3165 10.9024 17.6835 11.293 17.293Z" fill="black"/>
</svg>
