<svg width="24" height="24" viewBox="0 0 24 24" fill="none" xmlns="http://www.w3.org/2000/svg">
<rect width="24" height="24" fill="white" fill-opacity="0.01"/>
<path d="M12 1C12.2652 1 12.5195 1.10543 12.707 1.29297L21.2988 9.88477C22.462 11.0549 22.4621 12.945 21.2969 14.1172L14.1279 21.2871C13.5652 21.8504 12.8011 22.167 12.0049 22.167C11.2087 22.167 10.4457 21.8496 9.88379 21.2871L1.29297 12.707C1.10544 12.5195 1 12.2652 1 12V2C1 1.44772 1.44772 1 2 1H12ZM3 11.585L11.2979 19.873C11.4854 20.0608 11.7395 20.167 12.0049 20.167C12.2703 20.167 12.5249 20.0612 12.7129 19.873L19.8809 12.7051C20.2686 12.315 20.2684 11.6848 19.8828 11.2969L11.5859 3H3V11.585ZM6.29297 6.29297C6.68349 5.90244 7.31651 5.90244 7.70703 6.29297C8.09756 6.68349 8.09756 7.31651 7.70703 7.70703C7.31651 8.09756 6.68349 8.09756 6.29297 7.70703C5.90244 7.31651 5.90244 6.68349 6.29297 6.29297Z" fill="black"/>
</svg>
