<svg width="24" height="24" viewBox="0 0 24 24" fill="none" xmlns="http://www.w3.org/2000/svg">
<rect width="24" height="24" fill="white" fill-opacity="0.01"/>
<path d="M20 18C20.5523 18 21 18.4477 21 19C21 19.5523 20.5523 20 20 20H12C11.4477 20 11 19.5523 11 19C11 18.4477 11.4477 18 12 18H20ZM3.29297 4.29297C3.68349 3.90244 4.31651 3.90244 4.70703 4.29297L10.707 10.293C11.0976 10.6835 11.0976 11.3165 10.707 11.707L4.70703 17.707C4.31651 18.0976 3.68349 18.0976 3.29297 17.707C2.90244 17.3165 2.90244 16.6835 3.29297 16.293L8.58594 11L3.29297 5.70703C2.90244 5.31651 2.90244 4.68349 3.29297 4.29297Z" fill="black"/>
</svg>
