<svg width="24" height="24" viewBox="0 0 24 24" fill="none" xmlns="http://www.w3.org/2000/svg">
<rect width="24" height="24" fill="white" fill-opacity="0.01"/>
<path fill-rule="evenodd" clip-rule="evenodd" d="M8.00043 3.5C8.00043 1.567 9.56743 0 11.5004 0C13.4334 0 15.0004 1.567 15.0004 3.5V14.2588C16.6987 15.6585 17.4128 17.9581 16.7636 20.0982C16.0604 22.4165 13.9231 24.0017 11.5004 24.0017C9.0778 24.0017 6.94047 22.4165 6.23724 20.0982C5.61125 18.0345 6.25288 15.8225 7.82225 14.4122L8.00043 14.2588V3.5ZM11.5004 2C10.672 2 10.0004 2.67157 10.0004 3.5V14.76C10.0004 15.094 9.83369 15.4059 9.55598 15.5915C8.27412 16.448 7.70362 18.0423 8.15113 19.5176C8.59864 20.9929 9.95876 22.0017 11.5004 22.0017C13.0421 22.0017 14.4022 20.9929 14.8497 19.5176C15.2972 18.0423 14.7267 16.448 13.4449 15.5915C13.1672 15.4059 13.0004 15.094 13.0004 14.76V3.5C13.0004 2.67157 12.3289 2 11.5004 2Z" fill="black"/>
</svg>
