<svg width="24" height="24" viewBox="0 0 24 24" fill="none" xmlns="http://www.w3.org/2000/svg">
<rect width="24" height="24" fill="white" fill-opacity="0.01"/>
<path fill-rule="evenodd" clip-rule="evenodd" d="M9.2787 9.96572C8.56532 7.53525 9.21928 4.87374 11.0465 3.04655C13.1067 0.986316 16.2277 0.417671 18.8821 1.61887C19.5189 1.90702 19.6712 2.74283 19.177 3.23704L15.414 6.99993L16.9999 8.58579L20.7627 4.82283C21.257 4.32862 22.0928 4.4809 22.3809 5.11766C23.5821 7.77214 23.0135 10.8931 20.9532 12.9533C19.0608 14.8458 16.2734 15.4797 13.7746 14.6394L7.32696 21.087C6.10801 22.306 4.1317 22.306 2.91275 21.087C1.6938 19.8681 1.6938 17.8918 2.91275 16.6728L9.36038 10.2252L9.2787 9.96572ZM16.5579 3.02768C15.0723 2.85994 13.5565 3.36499 12.4607 4.46076C10.9891 5.93236 10.5829 8.16161 11.4409 10.0577C11.6125 10.4369 11.5313 10.8827 11.237 11.177L4.32696 18.087C3.88906 18.5249 3.88906 19.2349 4.32696 19.6728C4.76487 20.1107 5.47485 20.1107 5.91275 19.6728L12.8227 12.7628C13.1171 12.4685 13.5629 12.3873 13.9421 12.5589C15.8382 13.4169 18.0674 13.0107 19.539 11.5391C20.6348 10.4433 21.1399 8.92746 20.9721 7.44187L18.3999 10.0141C17.6222 10.7764 16.3775 10.7764 15.5927 10.007L13.9857 8.39993C13.2234 7.62225 13.2234 6.37762 13.9927 5.59283L16.5579 3.02768Z" fill="black"/>
</svg>
