<svg width="24" height="24" viewBox="0 0 24 24" fill="none" xmlns="http://www.w3.org/2000/svg">
<rect width="24" height="24" fill="white" fill-opacity="0.01"/>
<path d="M14 1C15.5975 1 16.9036 2.24866 16.9951 3.82324L17 4V5H21C21.5523 5 22 5.44772 22 6C22 6.55228 21.5523 7 21 7H20V20C20 21.5975 18.7513 22.9036 17.1768 22.9951L17 23H7C5.40248 23 4.09636 21.7513 4.00488 20.1768L4 20V7H3C2.44772 7 2 6.55228 2 6C2 5.44772 2.44772 5 3 5H7V4C7 2.40248 8.24866 1.09636 9.82324 1.00488L10 1H14ZM6 20C6 20.5128 6.38645 20.9354 6.88379 20.9932L7 21H17C17.5128 21 17.9354 20.6135 17.9932 20.1162L18 20V7H6V20ZM10 3C9.48716 3 9.0646 3.38645 9.00684 3.88379L9 4V5H15V4C15 3.48716 14.6135 3.0646 14.1162 3.00684L14 3H10Z" fill="black"/>
</svg>
