<svg width="24" height="24" viewBox="0 0 24 24" fill="none" xmlns="http://www.w3.org/2000/svg">
<rect width="24" height="24" fill="white" fill-opacity="0.01"/>
<path fill-rule="evenodd" clip-rule="evenodd" d="M11.9998 1.89648C13.0484 1.89648 14.0209 2.44402 14.5676 3.34536L23.0458 17.4992C23.5788 18.4223 23.582 19.5589 23.0541 20.485C22.5263 21.411 21.5466 21.9875 20.4698 21.9992L3.51877 21.9992C2.45289 21.9875 1.47327 21.411 0.945409 20.485C0.417549 19.5589 0.420732 18.4223 0.961893 17.4854L9.43476 3.3406C9.97861 2.44402 10.9511 1.89648 11.9998 1.89648ZM11.9998 3.89648C11.6502 3.89648 11.326 4.079 11.1476 4.3731L2.68575 18.4993C2.50807 18.807 2.50701 19.1859 2.68296 19.4946C2.85892 19.8032 3.18546 19.9954 3.52976 19.9992L20.4588 19.9993C20.8141 19.9954 21.1406 19.8032 21.3166 19.4946C21.4925 19.1859 21.4914 18.807 21.3219 18.5131L12.8548 4.37786C12.6735 4.079 12.3493 3.89648 11.9998 3.89648Z" fill="black"/>
</svg>
