<svg width="24" height="24" viewBox="0 0 24 24" fill="none" xmlns="http://www.w3.org/2000/svg">
<rect width="24" height="24" fill="white" fill-opacity="0.01"/>
<path fill-rule="evenodd" clip-rule="evenodd" d="M7 19H3C2.44772 19 2 18.5523 2 18V2C2 1.44772 2.44772 1 3 1H21C21.5523 1 22 1.44772 22 2V14C22 14.2652 21.8946 14.5196 21.7071 14.7071L17.7071 18.7071C17.5196 18.8946 17.2652 19 17 19H12.4142L8.70711 22.7071C8.07714 23.3371 7 22.8909 7 22V19ZM20 3H4V17H8C8.55228 17 9 17.4477 9 18V19.5858L11.2929 17.2929C11.4804 17.1054 11.7348 17 12 17H16.5858L20 13.5858V3Z" fill="black"/>
</svg>
