<svg width="24" height="24" viewBox="0 0 24 24" fill="none" xmlns="http://www.w3.org/2000/svg">
<rect x="0.00195312" width="24" height="24" fill="white" fill-opacity="0.01"/>
<path fill-rule="evenodd" clip-rule="evenodd" d="M11.0052 7.27157C11.0841 5.08218 12.4644 3.13819 14.5275 2.35074C16.4599 1.61318 18.6216 2.03134 20.1348 3.38558C20.9469 3.08707 21.7172 2.68308 22.4256 2.18338C23.1806 1.65079 24.1922 2.33942 23.9736 3.23716C23.6311 4.64371 22.9444 5.94014 21.9789 7.01156C21.9937 7.17353 22.0015 7.33657 22.002 7.50054C22.002 19.36 10.5559 25.4522 0.516364 19.8747C-0.404318 19.3632 -0.010639 17.9595 1.04175 18.0013C2.72835 18.0684 4.39795 17.7331 5.91616 17.0338C3.71202 15.6752 2.30067 13.8765 1.6083 11.7487C0.893425 9.55181 0.99777 7.24312 1.59416 5.05052C1.77456 4.38726 1.95792 3.88752 2.0882 3.5944C2.40387 2.88414 3.37367 2.78976 3.82036 3.42583C5.43225 5.72107 7.94743 7.18467 10.6955 7.47916L11.0017 7.50705L11.0052 7.27157ZM20.8377 5.25804L20.4959 5.37824L20.1503 5.48807C19.7737 5.60149 19.3656 5.48357 19.1075 5.18678C18.1492 4.08494 16.6049 3.69855 15.2407 4.21926C13.8764 4.73997 12.9823 6.05701 13.002 7.53054V8.53054C13.002 9.07273 12.5699 9.51615 12.0279 9.53021C8.76719 9.61476 5.65196 8.33118 3.40607 6.0438C3.01103 7.74889 2.98215 9.50726 3.51015 11.1299C4.18717 13.2105 5.73702 14.8996 8.40815 16.0867C9.12491 16.4053 9.21261 17.3874 8.56364 17.8279C7.44453 18.5876 6.21832 19.1577 4.93401 19.5243C12.6132 21.5445 20.002 16.4468 20.002 7.50385C20.0013 7.2872 19.9805 7.07109 19.9398 6.85829C19.8771 6.53043 19.9822 6.19292 20.2198 5.95854C20.4426 5.73885 20.6489 5.5047 20.8377 5.25804Z" fill="black"/>
</svg>
