<svg width="24" height="24" viewBox="0 0 24 24" fill="none" xmlns="http://www.w3.org/2000/svg">
<rect width="24" height="24" fill="white" fill-opacity="0.01"/>
<path fill-rule="evenodd" clip-rule="evenodd" d="M12.0001 1C18.2116 1 23.4053 5.7216 23.9956 11.905C24.0516 12.4921 23.5899 13 23.0001 13L14.1731 12.999L18.7593 18.3492C18.9147 18.5305 19.0001 18.7613 19.0001 19C19.0001 21.2091 17.2092 23 15.0001 23C12.791 23 11.0001 21.2091 11.0001 19V12.999L1.00009 13C0.410263 13 -0.0514327 12.4921 0.00461416 11.905C0.594846 5.7216 5.78861 1 12.0001 1ZM13.0001 14.7033V19C13.0001 20.1046 13.8955 21 15.0001 21C15.9898 21 16.8116 20.2811 16.9718 19.337L13.0001 14.7033ZM12.0001 3C7.19293 3 3.11663 6.39076 2.16071 11H21.8395L21.7797 10.7303C20.7234 6.25909 16.713 3 12.0001 3Z" fill="black"/>
</svg>
