<svg width="24" height="24" viewBox="0 0 24 24" fill="none" xmlns="http://www.w3.org/2000/svg">
<rect width="24" height="24" fill="white" fill-opacity="0.01"/>
<path d="M11.3975 1.02539C14.4642 0.715846 17.2664 2.78013 17.8799 5.80078C17.9898 6.34202 17.6399 6.86959 17.0986 6.97949C16.5576 7.0892 16.0299 6.7402 15.9199 6.19922C15.511 4.1853 13.6423 2.80812 11.5977 3.01465C9.55319 3.22131 7.99794 4.94408 8 7V10H19C20.6569 10 22 11.3431 22 13V20C21.9999 21.6568 20.6568 23 19 23H5C3.34318 23 2.00006 21.6568 2 20V13C2 11.3431 3.34315 10 5 10H6V7.00098C5.99691 3.91846 8.33055 1.33518 11.3975 1.02539ZM5 12C4.44772 12 4 12.4477 4 13V20C4.00006 20.5522 4.44775 21 5 21H19C19.5523 21 19.9999 20.5522 20 20V13C20 12.4477 19.5523 12 19 12H5Z" fill="black"/>
</svg>
