<svg width="24" height="24" viewBox="0 0 24 24" fill="none" xmlns="http://www.w3.org/2000/svg">
<rect width="24" height="24" fill="white" fill-opacity="0.01"/>
<path d="M21 13.999C21.5522 13.999 21.9999 14.4468 22 14.999V18.999C22 20.6559 20.6569 21.999 19 21.999H5C3.34315 21.999 2 20.6559 2 18.999V14.999C2.00013 14.4468 2.44779 13.999 3 13.999C3.55221 13.999 3.99987 14.4468 4 14.999V18.999C4 19.5513 4.44772 19.999 5 19.999H19C19.5523 19.999 20 19.5513 20 18.999V14.999C20.0001 14.4468 20.4478 13.999 21 13.999ZM11.8027 2.01855C11.9309 1.9929 12.0631 1.99269 12.1914 2.01758L12.2012 2.01953C12.211 2.02154 12.2207 2.02407 12.2305 2.02637C12.251 2.03122 12.2717 2.03583 12.292 2.04199C12.3056 2.04614 12.3187 2.05193 12.332 2.05664C12.3494 2.06275 12.3667 2.06908 12.3838 2.07617C12.3927 2.07987 12.4014 2.08394 12.4102 2.08789C12.4319 2.09766 12.4535 2.10775 12.4746 2.11914C12.5603 2.16546 12.6387 2.22367 12.707 2.29199L17.707 7.29199C18.0975 7.68248 18.0974 8.31552 17.707 8.70605C17.3165 9.09658 16.6835 9.09658 16.293 8.70605L13 5.41309V14.999C13 15.5513 12.5523 15.999 12 15.999C11.4477 15.999 11 15.5513 11 14.999V5.41309L7.70703 8.70605C7.31651 9.09658 6.68349 9.09658 6.29297 8.70605C5.90256 8.31552 5.90248 7.68248 6.29297 7.29199L11.293 2.29199C11.3611 2.22387 11.439 2.1654 11.5244 2.11914C11.5455 2.10773 11.5672 2.09767 11.5889 2.08789C11.5976 2.08393 11.6063 2.07988 11.6152 2.07617C11.6323 2.06906 11.6496 2.06276 11.667 2.05664C11.6804 2.05192 11.6934 2.04615 11.707 2.04199C11.7273 2.03581 11.748 2.03123 11.7686 2.02637C11.7799 2.02368 11.7912 2.02085 11.8027 2.01855Z" fill="black"/>
</svg>
