<svg width="24" height="24" viewBox="0 0 24 24" fill="none" xmlns="http://www.w3.org/2000/svg">
<rect x="0.00585938" width="24" height="24" fill="white" fill-opacity="0.01"/>
<path d="M11.7129 11.043C11.9029 10.985 12.1068 10.9853 12.2969 11.043C12.3165 11.0489 12.3354 11.0564 12.3545 11.0635C12.3642 11.0671 12.3741 11.0703 12.3838 11.0742C12.4077 11.084 12.4311 11.0949 12.4541 11.1064C12.4596 11.1092 12.4653 11.1114 12.4707 11.1143L12.4824 11.1201C12.4928 11.1258 12.5025 11.1327 12.5127 11.1387C12.5839 11.1807 12.6517 11.2318 12.7129 11.293L16.7129 15.293C17.1031 15.6835 17.1032 16.3166 16.7129 16.707C16.3225 17.0974 15.6894 17.0972 15.2988 16.707L13.0059 14.4141V21C13.0057 21.552 12.5579 21.9998 12.0059 22C11.4537 22 11.006 21.5522 11.0059 21V14.4141L8.71289 16.707C8.32248 17.0974 7.68938 17.0972 7.29883 16.707C6.9083 16.3165 6.9083 15.6835 7.29883 15.293L11.2988 11.293C11.3597 11.2321 11.4262 11.1806 11.4971 11.1387C11.5104 11.1308 11.5234 11.1225 11.5371 11.1152C11.5432 11.112 11.5496 11.1095 11.5557 11.1064C11.5786 11.0949 11.602 11.084 11.626 11.0742C11.6359 11.0702 11.6462 11.0672 11.6562 11.0635C11.675 11.0565 11.6936 11.0489 11.7129 11.043ZM1.01855 6.84277C2.74022 3.53904 6.32009 1.63793 10.0215 2.06055C13.4614 2.45346 16.3455 4.77831 17.4844 8H18.0059C20.748 8.00181 23.1399 9.86221 23.8164 12.5195C24.4928 15.177 23.2817 17.955 20.874 19.2676C20.3891 19.5319 19.7819 19.3531 19.5176 18.8682C19.2533 18.3833 19.4321 17.7761 19.917 17.5117C21.522 16.6366 22.3298 14.7843 21.8789 13.0127C21.4279 11.2413 19.8331 10.0014 18.0059 10H16.7451C16.2894 9.99985 15.8914 9.69126 15.7773 9.25C15.052 6.44461 12.6729 4.37657 9.79395 4.04785C6.91507 3.71924 4.13099 5.19794 2.79199 7.76758C1.45312 10.3372 1.83614 13.4665 3.75488 15.6377C4.1204 16.0514 4.08149 16.6831 3.66797 17.0488C3.25412 17.4145 2.62158 17.3758 2.25586 16.9619C-0.211064 14.1702 -0.703025 10.1466 1.01855 6.84277Z" fill="black"/>
</svg>
