<svg width="24" height="24" viewBox="0 0 24 24" fill="none" xmlns="http://www.w3.org/2000/svg">
<rect width="24" height="24" fill="white" fill-opacity="0.01"/>
<path d="M12 14C14.7614 14 17 16.2386 17 19V21C17 21.5523 16.5523 22 16 22C15.4477 22 15 21.5523 15 21V19C15 17.3431 13.6569 16 12 16H5C3.34315 16 2 17.3431 2 19V21C2 21.5523 1.55228 22 1 22C0.447715 22 0 21.5523 0 21V19C0 16.2386 2.23858 14 5 14H12ZM22.293 8.29297C22.6835 7.90244 23.3165 7.90244 23.707 8.29297C24.0976 8.68349 24.0976 9.31651 23.707 9.70703L19.707 13.707C19.3165 14.0976 18.6835 14.0976 18.293 13.707L16.293 11.707C15.9024 11.3165 15.9024 10.6835 16.293 10.293C16.6835 9.90244 17.3165 9.90244 17.707 10.293L19 11.5859L22.293 8.29297ZM8.5 2C11.2614 2 13.5 4.23858 13.5 7C13.5 9.76142 11.2614 12 8.5 12C5.73858 12 3.5 9.76142 3.5 7C3.5 4.23858 5.73858 2 8.5 2ZM8.5 4C6.84315 4 5.5 5.34315 5.5 7C5.5 8.65685 6.84315 10 8.5 10C10.1569 10 11.5 8.65685 11.5 7C11.5 5.34315 10.1569 4 8.5 4Z" fill="black"/>
</svg>
