<svg width="24" height="24" viewBox="0 0 24 24" fill="none" xmlns="http://www.w3.org/2000/svg">
<rect width="24" height="24" fill="white" fill-opacity="0.01"/>
<path d="M13 14C15.7614 14 18 16.2386 18 19V21C18 21.5523 17.5523 22 17 22C16.4477 22 16 21.5523 16 21V19C16 17.3431 14.6569 16 13 16H5C3.34315 16 2 17.3431 2 19V21C2 21.5523 1.55228 22 1 22C0.447715 22 0 21.5523 0 21V19C0 16.2386 2.23858 14 5 14H13ZM19.0322 14.8799C19.1704 14.3453 19.7153 14.0241 20.25 14.1621C22.4562 14.7318 23.9983 16.7207 24 19V21C24 21.5523 23.5523 22 23 22C22.4477 22 22 21.5523 22 21V19.001C21.999 17.6338 21.0737 16.4405 19.75 16.0986C19.2153 15.9606 18.8942 15.4146 19.0322 14.8799ZM9 2C11.7614 2 14 4.23858 14 7C14 9.76142 11.7614 12 9 12C6.23858 12 4 9.76142 4 7C4 4.23858 6.23858 2 9 2ZM15.0312 2.88184C15.1683 2.34689 15.7131 2.02417 16.248 2.16113C18.4604 2.72759 20.0078 4.72117 20.0078 7.00488C20.0078 9.28863 18.4604 11.2822 16.248 11.8486C15.713 11.9856 15.1682 11.663 15.0312 11.1279C14.8943 10.5929 15.217 10.0481 15.752 9.91113C17.0794 9.57125 18.0078 8.37513 18.0078 7.00488C18.0078 5.63468 17.0794 4.4385 15.752 4.09863C15.2169 3.96163 14.8943 3.41685 15.0312 2.88184ZM9 4C7.34315 4 6 5.34315 6 7C6 8.65685 7.34315 10 9 10C10.6569 10 12 8.65685 12 7C12 5.34315 10.6569 4 9 4Z" fill="black"/>
</svg>
