<svg width="24" height="24" viewBox="0 0 24 24" fill="none" xmlns="http://www.w3.org/2000/svg">
<rect width="24" height="24" fill="white" fill-opacity="0.01"/>
<path d="M14 4C15.6569 4 17 5.34315 17 7V10.0566L22.4189 6.18652C23.0807 5.71423 23.9997 6.187 24 7V17C23.9997 17.8129 23.0807 18.2866 22.4189 17.8145L17 13.9434V17C17 18.6569 15.6569 20 14 20H3C1.34315 20 0 18.6569 0 17V7C0 5.34315 1.34315 4 3 4H14ZM3 6C2.44772 6 2 6.44772 2 7V17C2 17.5523 2.44772 18 3 18H14C14.5523 18 15 17.5523 15 17V7C15 6.44772 14.5523 6 14 6H3ZM17.7207 12L22 15.0576V8.94336L17.7207 12Z" fill="black"/>
</svg>
