<svg width="24" height="24" viewBox="0 0 24 24" fill="none" xmlns="http://www.w3.org/2000/svg">
<rect width="24" height="24" fill="white" fill-opacity="0.01"/>
<path d="M0.292969 0.292969C0.683493 -0.0975555 1.31651 -0.0975555 1.70703 0.292969L23.707 22.293C24.0976 22.6835 24.0976 23.3165 23.707 23.707C23.3165 24.0976 22.6835 24.0976 22.293 23.707L16.7588 18.1729C16.3237 19.195 15.3407 19.9275 14.1768 19.9951L14 20H3C1.40248 20 0.0963626 18.7513 0.00488281 17.1768L0 17V7C0 5.47431 1.13926 4.21724 2.61328 4.02734L0.292969 1.70703C-0.0975555 1.31651 -0.0975555 0.683493 0.292969 0.292969ZM3 6C2.48716 6 2.0646 6.38645 2.00684 6.88379L2 7V17C2 17.5128 2.38645 17.9354 2.88379 17.9932L3 18H14C14.5128 18 14.9354 17.6135 14.9932 17.1162L15 17V16.4141L4.58594 6H3ZM14 4C15.5975 4 16.9036 5.24866 16.9951 6.82324L17 7V9.92578L17.1045 10.0303L22.4141 6.18945C23.0438 5.73421 23.9128 6.1411 23.9941 6.88574L24 7V17C24 17.5523 23.5523 18 23 18C22.4872 18 22.0646 17.6135 22.0068 17.1162L22 17V8.95703L17.5859 12.1504C17.2213 12.414 16.7305 12.3995 16.3838 12.1279L16.293 12.0469L15.293 11.0469C15.1368 10.8907 15.0376 10.6883 15.0088 10.4717L15 10.3398V7C15 6.48716 14.6135 6.0646 14.1162 6.00684L14 6H10.6602C10.1079 6 9.66016 5.55228 9.66016 5C9.66016 4.48731 10.0458 4.06479 10.543 4.00684L10.6602 4H14Z" fill="black"/>
</svg>
