<svg width="24" height="24" viewBox="0 0 24 24" fill="none" xmlns="http://www.w3.org/2000/svg">
<rect width="24" height="24" fill="white" fill-opacity="0.01"/>
<path d="M18.5 6C21.5376 6 24 8.46243 24 11.5C24 14.4426 21.6892 16.8458 18.7832 16.9932L18.5 17H5.5L5.2168 16.9932C2.31084 16.8458 0 14.4426 0 11.5C0 8.46243 2.46243 6 5.5 6C8.53757 6 11 8.46243 11 11.5C11 12.8298 10.5277 14.049 9.74219 15H14.2578C13.4723 14.049 13 12.8298 13 11.5C13 8.46243 15.4624 6 18.5 6ZM5.5 8C3.567 8 2 9.567 2 11.5C2 13.433 3.567 15 5.5 15C7.433 15 9 13.433 9 11.5C9 9.567 7.433 8 5.5 8ZM18.5 8C16.567 8 15 9.567 15 11.5C15 13.433 16.567 15 18.5 15C20.433 15 22 13.433 22 11.5C22 9.567 20.433 8 18.5 8Z" fill="black"/>
</svg>
