<svg width="24" height="24" viewBox="0 0 24 24" fill="none" xmlns="http://www.w3.org/2000/svg">
<rect width="24" height="24" fill="white" fill-opacity="0.01"/>
<path d="M10.375 4.21875C11.0298 3.69494 12 4.16149 12 5V19C11.9999 19.8384 11.0297 20.305 10.375 19.7812L5.64941 16H2C1.44774 16 1.00004 15.5523 1 15V9C1 8.44772 1.44772 8 2 8H5.64941L10.375 4.21875ZM6.625 9.78125C6.44769 9.92308 6.22706 10 6 10H3V14H6C6.22707 14 6.44769 14.0769 6.625 14.2188L10 16.9189V7.08008L6.625 9.78125ZM22.293 8.29297C22.6835 7.90244 23.3165 7.90244 23.707 8.29297C24.0975 8.6835 24.0975 9.31652 23.707 9.70703L21.4141 12L23.707 14.293C24.0975 14.6835 24.0975 15.3165 23.707 15.707C23.3165 16.0975 22.6835 16.0975 22.293 15.707L20 13.4141L17.707 15.707C17.3165 16.0975 16.6835 16.0975 16.293 15.707C15.9025 15.3165 15.9025 14.6835 16.293 14.293L18.5859 12L16.293 9.70703C15.9025 9.31652 15.9025 8.6835 16.293 8.29297C16.6835 7.90244 17.3165 7.90244 17.707 8.29297L20 10.5859L22.293 8.29297Z" fill="black"/>
</svg>
