<svg width="24" height="24" viewBox="0 0 24 24" fill="none" xmlns="http://www.w3.org/2000/svg">
<rect width="24" height="24" fill="white" fill-opacity="0.01"/>
<path fill-rule="evenodd" clip-rule="evenodd" d="M5.64922 7.99992L10.3753 4.21906C11.0301 3.69524 12 4.16142 12 4.99992V18.9999C12 19.8384 11.0301 20.3046 10.3753 19.7808L5.64922 15.9999H2C1.44772 15.9999 1 15.5522 1 14.9999V8.99992C1 8.44764 1.44772 7.99992 2 7.99992H5.64922ZM10 7.08055L6.6247 9.78079C6.44738 9.92264 6.22707 9.99992 6 9.99992H3V13.9999H6C6.22707 13.9999 6.44738 14.0772 6.6247 14.2191L10 16.9193V7.08055Z" fill="black"/>
</svg>
