<svg width="24" height="24" viewBox="0 0 24 24" fill="none" xmlns="http://www.w3.org/2000/svg">
<rect width="24" height="24" fill="white" fill-opacity="0.01"/>
<path d="M18.3633 4.22266C18.7539 3.83224 19.3869 3.83209 19.7773 4.22266C24.0714 8.51808 24.0713 15.4809 19.7773 19.7764C19.387 20.1668 18.7539 20.1674 18.3633 19.7773C17.9727 19.3869 17.9728 18.7529 18.3633 18.3623C21.8762 14.8479 21.8763 9.15109 18.3633 5.63672C17.9728 5.24614 17.9727 4.61312 18.3633 4.22266ZM10.375 4.21875C11.0298 3.69494 12 4.16149 12 5V19C11.9998 19.8382 11.0297 20.3048 10.375 19.7812L5.64941 16H2C1.44782 16 1.00017 15.5521 1 15V9C1 8.44772 1.44772 8 2 8H5.64941L10.375 4.21875ZM6.625 9.78125C6.44771 9.92302 6.22701 10 6 10H3V14H6C6.22707 14 6.44769 14.0769 6.625 14.2188L10 16.9189V7.08008L6.625 9.78125ZM14.833 7.75293C15.2236 7.36248 15.8566 7.36235 16.2471 7.75293C18.5893 10.0959 18.5892 13.8933 16.2471 16.2363C15.8567 16.6268 15.2236 16.6276 14.833 16.2373C14.4424 15.8468 14.4425 15.2128 14.833 14.8223C16.3941 13.2603 16.3942 10.7289 14.833 9.16699C14.4426 8.77649 14.4427 8.14341 14.833 7.75293Z" fill="black"/>
</svg>
