<svg width="24" height="24" viewBox="0 0 24 24" fill="none" xmlns="http://www.w3.org/2000/svg">
<rect width="24" height="24" fill="white" fill-opacity="0.01"/>
<path d="M10.375 4.21875C11.0298 3.69494 12 4.16149 12 5V19C11.9999 19.8384 11.0297 20.305 10.375 19.7812L5.64941 16H2C1.44774 16 1.00004 15.5523 1 15V9C1 8.44772 1.44772 8 2 8H5.64941L10.375 4.21875ZM6.625 9.78125C6.44769 9.92308 6.22706 10 6 10H3V14H6C6.22707 14 6.44769 14.0769 6.625 14.2188L10 16.9189V7.08008L6.625 9.78125ZM14.833 7.75293C15.2236 7.36249 15.8566 7.36242 16.2471 7.75293C18.5894 10.0959 18.5894 13.8943 16.2471 16.2373C15.8566 16.6276 15.2235 16.6276 14.833 16.2373C14.4424 15.8469 14.4426 15.2138 14.833 14.8232C16.3945 13.2613 16.3944 10.729 14.833 9.16699C14.4426 8.77644 14.4425 8.1434 14.833 7.75293Z" fill="black"/>
</svg>
