<svg width="24" height="24" viewBox="0 0 24 24" fill="none" xmlns="http://www.w3.org/2000/svg">
<rect width="24" height="24" fill="white" fill-opacity="0.01"/>
<path d="M14.1758 0C15.6727 -0.00604972 16.9349 1.08998 17.1543 2.55176L17.1758 2.72949L17.4912 6.18457C19.0353 7.64305 20 9.70839 20 12C20 14.3021 19.0261 16.3754 17.4697 17.835L17.1562 21.2705C17.0213 22.7612 15.8111 23.9142 14.3379 23.9951L14.1602 24H9.83398C8.33705 24.006 7.07484 22.9101 6.85547 21.4482L6.83398 21.2715L6.51855 17.8242C4.96894 16.3652 4 14.2963 4 12C4.00002 9.69796 4.97291 7.62361 6.5293 6.16406L6.84375 2.73047C6.97798 1.24509 8.18035 0.0936264 9.65234 0.00585938L9.83008 0H14.1758ZM8.82617 21.0898C8.86928 21.5669 9.24245 21.9411 9.71094 21.9941L9.83008 22H14.1641C14.643 22.0019 15.0499 21.6651 15.1465 21.2061L15.1641 21.0889L15.3291 19.2734C14.3151 19.7383 13.1884 20 12 20C10.8071 20 9.67612 19.7367 8.65918 19.2686L8.82617 21.0898ZM12 6C10.5306 6 9.18474 6.5284 8.1416 7.40527C8.13531 7.4107 8.12947 7.41661 8.12305 7.42188C6.8247 8.52245 6.00002 10.1646 6 12C6 15.3137 8.68629 18 12 18C13.4535 18 14.7859 17.4829 15.8242 16.623C15.8421 16.6063 15.8609 16.5906 15.8799 16.5752C17.1764 15.4746 18 13.8339 18 12C18 8.68632 15.3137 6 12 6ZM12 8C12.5523 8 13 8.44774 13 9V11.5859L14.207 12.793C14.5975 13.1835 14.5975 13.8165 14.207 14.207C13.8165 14.5976 13.1835 14.5976 12.793 14.207L11.293 12.707C11.1055 12.5195 11 12.2652 11 12V9C11 8.44774 11.4477 8 12 8ZM9.83105 2C9.35397 2.00052 8.94971 2.33666 8.85352 2.79395L8.83594 2.91113L8.66895 4.72559C9.68321 4.26038 10.8111 4 12 4C13.1967 4 14.3312 4.26441 15.3506 4.73535L15.1836 2.91016C15.1405 2.43306 14.7674 2.05982 14.2988 2.00684L14.1797 2H9.83105Z" fill="black"/>
</svg>
