<svg width="24" height="24" viewBox="0 0 24 24" fill="none" xmlns="http://www.w3.org/2000/svg">
<rect width="24" height="24" fill="white" fill-opacity="0.01"/>
<path d="M0.292969 0.292969C0.683493 -0.0975555 1.31651 -0.0975555 1.70703 0.292969L10.793 9.37891C10.8531 9.42681 10.9081 9.48113 10.9561 9.54199L23.707 22.293C24.0976 22.6835 24.0976 23.3165 23.707 23.707C23.3165 24.0976 22.6835 24.0976 22.293 23.707L15.6748 17.0889C15.4144 17.1406 15.1339 17.0907 14.9004 16.9248C13.1665 15.6933 10.8432 15.6932 9.10938 16.9248C8.65922 17.2446 8.03475 17.1395 7.71484 16.6895C7.39498 16.2392 7.50094 15.6148 7.95117 15.2949C9.33872 14.3092 10.9957 13.8872 12.6143 14.0283L9.83301 11.2471C8.29353 11.5939 6.85604 12.302 5.6416 13.3174C5.2179 13.6716 4.58668 13.6151 4.23242 13.1914C3.87844 12.7678 3.93503 12.1374 4.3584 11.7832C5.50178 10.8272 6.81037 10.0985 8.21289 9.62695L5.8877 7.30176C4.50326 7.91873 3.21956 8.74353 2.08203 9.74902C1.66823 10.1148 1.03666 10.0759 0.670898 9.66211C0.305168 9.24833 0.344075 8.61675 0.757812 8.25098C1.85749 7.27894 3.07714 6.45504 4.38574 5.7998L0.292969 1.70703C-0.0975555 1.31651 -0.0975555 0.683493 0.292969 0.292969ZM11.293 19.293C11.6835 18.9024 12.3165 18.9024 12.707 19.293C13.0976 19.6835 13.0976 20.3165 12.707 20.707C12.3165 21.0976 11.6835 21.0976 11.293 20.707C10.9024 20.3165 10.9024 19.6835 11.293 19.293ZM15.8213 10.6211C16.0635 10.1251 16.662 9.91924 17.1582 10.1611C18.0522 10.5974 18.889 11.1435 19.6475 11.7871C20.0685 12.1444 20.12 12.7762 19.7627 13.1973C19.4054 13.6183 18.7736 13.6698 18.3525 13.3125C17.7212 12.7768 17.0254 12.3221 16.2812 11.959C15.7849 11.7168 15.5791 11.1174 15.8213 10.6211ZM10.6299 4.05371C15.229 3.68317 19.7811 5.19761 23.2412 8.25C23.6553 8.61527 23.6951 9.24697 23.3301 9.66113C22.9647 10.0753 22.3321 10.1154 21.918 9.75C18.8649 7.05668 14.8482 5.71988 10.79 6.04688C10.2397 6.09107 9.75724 5.68029 9.71289 5.12988C9.6688 4.57957 10.0795 4.09806 10.6299 4.05371Z" fill="black"/>
</svg>
