<svg width="24" height="24" viewBox="0 0 24 24" fill="none" xmlns="http://www.w3.org/2000/svg">
<rect width="24" height="24" fill="white" fill-opacity="0.01"/>
<path d="M11.293 19.292C11.6835 18.9017 12.3166 18.9016 12.707 19.292C13.0975 19.6825 13.0974 20.3155 12.707 20.7061C12.3165 21.0966 11.6835 21.0966 11.293 20.7061C10.9026 20.3155 10.9025 19.6825 11.293 19.292ZM7.95117 15.2939C10.3788 13.5695 13.6321 13.5693 16.0596 15.2939C16.5096 15.6139 16.6147 16.2383 16.2949 16.6885C15.975 17.1386 15.3506 17.2446 14.9004 16.9248C13.1664 15.693 10.8434 15.6929 9.10938 16.9248C8.65917 17.2447 8.03472 17.1387 7.71484 16.6885C7.39498 16.2382 7.50094 15.6138 7.95117 15.2939ZM4.36035 11.7812C8.80972 8.07532 15.2704 8.07527 19.7197 11.7812C20.144 12.1347 20.202 12.7651 19.8486 13.1895C19.4952 13.6138 18.8638 13.6708 18.4395 13.3174C14.7317 10.2294 9.34732 10.2292 5.63965 13.3174C5.2153 13.6708 4.58491 13.6138 4.23145 13.1895C3.87798 12.7651 3.93599 12.1347 4.36035 11.7812ZM0.758789 8.24902C7.18316 2.58622 16.8169 2.58618 23.2412 8.24902C23.6554 8.61416 23.6951 9.24585 23.3301 9.66016C22.9649 10.0745 22.3333 10.1142 21.9189 9.74902C16.2504 4.75244 7.7496 4.75249 2.08105 9.74902C1.66675 10.1142 1.03512 10.0745 0.669922 9.66016C0.304863 9.24585 0.344533 8.61418 0.758789 8.24902Z" fill="black"/>
</svg>
