<svg width="24" height="24" viewBox="0 0 24 24" fill="none" xmlns="http://www.w3.org/2000/svg">
<rect width="24" height="24" fill="white" fill-opacity="0.01"/>
<path fill-rule="evenodd" clip-rule="evenodd" d="M2 15L13.9958 15C15.3563 14.9944 16.5503 15.9049 16.9048 17.2183C17.2593 18.5318 16.6855 19.9194 15.5069 20.599C14.3283 21.2785 12.84 21.0799 11.8808 20.1151C11.4914 19.7234 11.4933 19.0902 11.885 18.7009C12.2465 18.3414 12.8139 18.3154 13.2052 18.6216L13.3906 18.7864C13.7083 19.0363 14.1507 19.0723 14.5079 18.8663C14.9008 18.6398 15.092 18.1773 14.9739 17.7395C14.8664 17.3414 14.5277 17.0544 14.1232 17.007L14 17H2C1.44772 17 1 16.5523 1 16C1 15.4872 1.38604 15.0645 1.88338 15.0068L2 15L13.9958 15L2 15ZM17.0238 7.02205C18.1444 5.90427 19.8757 5.67767 21.2463 6.4694C22.6168 7.26114 23.2854 8.87414 22.877 10.4033C22.4855 11.8688 21.1982 12.9077 19.697 12.9942L19.5 13.0001H2C1.44772 13.0001 1 12.5523 1 12.0001C1 11.4872 1.38604 11.0645 1.88338 11.0068L2 11.0001L19.4982 11.0001C20.1766 10.9988 20.7697 10.5425 20.9447 9.88717C21.1198 9.23181 20.8332 8.54052 20.2458 8.20121C19.6585 7.86189 18.9165 7.959 18.4362 8.43806C18.0452 8.82809 17.412 8.82728 17.022 8.43627C16.632 8.04525 16.6328 7.41208 17.0238 7.02205ZM8.8808 3.88505C9.83995 2.9202 11.3283 2.72157 12.5069 3.40113C13.6855 4.0807 14.2593 5.4683 13.9048 6.78178C13.5664 8.03555 12.4631 8.92214 11.1839 8.99522L11 9.00007H2C1.44772 9.00007 1 8.55236 1 8.00007C1 7.48724 1.38604 7.06457 1.88338 7.0068L2 7.00007L11.0042 7.00008C11.4577 7.00198 11.8557 6.69847 11.9739 6.26064C12.092 5.82281 11.9008 5.36028 11.5079 5.13376C11.1507 4.92783 10.7083 4.96383 10.3906 5.21371L10.2052 5.37853C9.81385 5.68472 9.24654 5.65867 8.88499 5.29925C8.49331 4.90989 8.49144 4.27673 8.8808 3.88505Z" fill="black"/>
</svg>
