<svg width="24" height="24" viewBox="0 0 24 24" fill="none" xmlns="http://www.w3.org/2000/svg">
<rect x="0.000488281" width="24" height="24" fill="white" fill-opacity="0.01"/>
<path d="M13.6753 3.01172C14.361 3.02066 15.0705 3.03494 15.7729 3.05469L16.4722 3.07617C18.5787 3.14845 20.0791 3.26268 20.8726 3.45703C22.1754 3.82564 23.1821 4.8634 23.5249 6.24219C23.853 8.06142 24.0121 9.90741 24.0005 11.7461C24.007 13.567 23.8484 15.3848 23.5112 17.2422C23.1825 18.5557 22.1756 19.5934 20.8589 19.9658C20.1888 20.145 18.9554 20.2628 17.2427 20.3428L16.5317 20.373C15.7876 20.4015 15.0048 20.4222 14.2124 20.4365L12.6304 20.4561H11.3706L9.78955 20.4365C8.99701 20.4222 8.21348 20.4015 7.46924 20.373L6.75928 20.3428C5.04649 20.2627 3.81224 20.1443 3.13721 19.9639C1.86187 19.6149 0.861587 18.6249 0.477051 17.2568C0.148879 15.4375 -0.0111118 13.5914 0.000488281 11.7539C-0.00855227 9.91926 0.151082 8.08767 0.490723 6.2168C0.819472 4.90336 1.82543 3.86563 3.14209 3.49316C3.83731 3.30723 5.14166 3.18728 6.95459 3.10742L8.26416 3.05859C9.07352 3.03396 9.88564 3.01798 10.6509 3.00879L11.7632 3H12.3433L13.6753 3.01172ZM11.23 5.00293C10.3572 5.00995 9.40055 5.02666 8.4458 5.05469L7.11475 5.10254C5.42002 5.17641 4.17724 5.2873 3.67334 5.42188C3.05986 5.59544 2.58563 6.08358 2.44482 6.63672C2.14089 8.32208 1.99203 10.0321 2.00049 11.7559C1.98967 13.4812 2.13844 15.2041 2.42236 16.8057C2.59291 17.4043 3.0639 17.8703 3.65869 18.0332C4.18468 18.1739 5.47452 18.2874 7.23096 18.3613L8.28857 18.3994C8.79079 18.4148 9.3065 18.4271 9.82666 18.4365L11.3853 18.4561H12.6167L14.1743 18.4365C14.6946 18.4271 15.211 18.4148 15.7134 18.3994L16.77 18.3613L17.6548 18.3193C18.9574 18.2474 19.9062 18.15 20.3286 18.0371C20.9419 17.8635 21.4153 17.3752 21.5562 16.8223C21.8577 15.1496 22.0066 13.4526 22.0005 11.7432C22.0113 10.0177 21.8631 8.29487 21.5708 6.66211C21.416 6.04368 20.9422 5.55504 20.3638 5.39062C19.8881 5.27448 18.8098 5.17957 17.3345 5.1123L16.4028 5.0752C15.4922 5.04396 14.5495 5.02348 13.6489 5.01172L12.3384 5H11.7642L11.23 5.00293ZM8.75049 8.47949C8.75075 7.71303 9.57819 7.23096 10.2446 7.60938L15.9946 10.8799C16.6688 11.2633 16.6688 12.2347 15.9946 12.6182L10.2446 15.8887C9.57804 16.2674 8.75049 15.7853 8.75049 15.0186V8.47949ZM10.7505 13.2998L13.478 11.749L10.7505 10.1982V13.2998Z" fill="black"/>
</svg>
