<svg width="24" height="24" viewBox="0 0 24 24" fill="none" xmlns="http://www.w3.org/2000/svg">
<rect width="24" height="24" fill="white" fill-opacity="0.01"/>
<path d="M0.292969 0.292969C0.683493 -0.0975555 1.31651 -0.0975555 1.70703 0.292969L8.69824 7.28418C8.70652 7.29223 8.71472 7.30031 8.72266 7.30859L16.6982 15.2842C16.7065 15.2922 16.7147 15.3003 16.7227 15.3086L23.707 22.293C24.0976 22.6835 24.0976 23.3165 23.707 23.707C23.3165 24.0976 22.6835 24.0976 22.293 23.707L16.0674 17.4814L11.7686 22.6406C11.1293 23.4076 9.88396 22.8668 10.0078 21.876L10.8672 15H3C2.15216 15 1.68867 14.0107 2.23145 13.3594L6.64648 8.06055L0.292969 1.70703C-0.0975555 1.31651 -0.0975555 0.683493 0.292969 0.292969ZM12.415 18.7393L14.6465 16.0605L12.96 14.374L12.415 18.7393ZM21 9C21.8482 9 22.311 9.98948 21.7676 10.6406L19.3379 13.5508C18.9839 13.9747 18.3526 14.0317 17.9287 13.6777C17.5049 13.3237 17.4488 12.6924 17.8027 12.2686L18.8623 11H15.6602C15.1079 11 14.6602 10.5523 14.6602 10C14.6602 9.44772 15.1079 9 15.6602 9H21ZM5.13477 13H11.5859L8.06738 9.48145L5.13477 13ZM12.2314 1.36035C12.8701 0.592963 14.1151 1.13231 13.9922 2.12305L13.4023 6.87305C13.3343 7.42101 12.835 7.81006 12.2871 7.74219C11.7391 7.67412 11.35 7.17496 11.418 6.62695L11.5869 5.26074L11.3389 5.55957C10.9856 5.98405 10.3552 6.04165 9.93066 5.68848C9.50615 5.3352 9.44848 4.70479 9.80176 4.28027L12.2314 1.36035Z" fill="black"/>
</svg>
