<svg width="24" height="24" viewBox="0 0 24 24" fill="none" xmlns="http://www.w3.org/2000/svg">
<rect width="24" height="24" fill="white" fill-opacity="0.01"/>
<path fill-rule="evenodd" clip-rule="evenodd" d="M10.8672 14.9993H2.99996C2.15212 14.9993 1.68896 14.0105 2.23174 13.3591L12.2317 1.35915C12.871 0.592044 14.1161 1.13253 13.9922 2.12337L13.1327 8.99933H21C21.8478 8.99933 22.311 9.98819 21.7682 10.6395L11.7682 22.6395C11.1289 23.4066 9.88383 22.8661 10.0077 21.8753L10.8672 14.9993ZM11.5846 5.25979L5.135 12.9993H12C12.6015 12.9993 13.0668 13.5265 12.9922 14.1234L12.4153 18.7389L18.8649 10.9993H12C11.3985 10.9993 10.9331 10.4722 11.0077 9.8753L11.5846 5.25979Z" fill="black"/>
</svg>
