<svg width="579" height="177" viewBox="0 0 579 177" fill="none" xmlns="http://www.w3.org/2000/svg">
<path fill-rule="evenodd" clip-rule="evenodd" d="M302.142 96.655C300.436 97.8877 299.365 97.4801 298.473 95.8796C296.985 93.2155 295.885 90.6508 297.333 87.3803C301.22 78.6027 306.049 70.4812 312.901 63.7016C313.892 62.7076 314.735 61.7135 315.737 60.7791C316.527 60.1652 317.358 59.6072 318.225 59.109C318.751 59.7254 319.445 60.1826 319.544 60.7493C319.578 61.4946 319.414 62.2356 319.068 62.8964C315.647 71.1373 312.286 79.4079 308.696 87.5692C307.189 90.9988 305.364 94.319 302.142 96.655ZM526.927 96.655C525.221 97.8877 524.15 97.4801 523.258 95.8796C521.77 93.2155 520.67 90.6508 522.117 87.3803C526.004 78.6027 530.833 70.4812 537.685 63.7016C538.677 62.7076 539.52 61.7135 540.521 60.7791C541.311 60.1653 542.143 59.6073 543.01 59.109C543.536 59.7254 544.23 60.1826 544.329 60.7493C544.363 61.4946 544.199 62.2356 543.853 62.8964C540.422 71.1273 537.071 79.398 533.481 87.5593C531.974 90.9988 530.149 94.319 526.927 96.655ZM452.478 30.0524C453.128 31.2082 454.014 32.213 455.08 33.0007C456.145 33.7885 457.364 34.3413 458.657 34.623C459.951 34.9047 461.289 34.9088 462.584 34.635C463.879 34.3613 465.102 33.8158 466.172 33.0346C470.604 29.543 474.069 24.9705 476.236 19.7539C477.952 15.9068 477.307 13.2527 473.985 10.4394C470.771 7.63231 466.71 5.98718 462.453 5.76732C460.212 5.54862 458.487 6.30412 457.604 8.39166C455.224 14.2865 452.646 20.1415 451.952 26.5533C451.798 27.7437 451.983 28.9537 452.488 30.0425L452.478 30.0524ZM384.057 118.465C379.764 121.884 374.399 120.95 370.81 116.278C369.332 114.349 368.569 112.381 369.719 110.174C372.545 104.737 375.054 99.0905 378.157 93.8319C382.699 86.1378 387.3 78.4337 392.546 71.2466C395.748 66.8429 400.102 63.2941 404.137 59.5763C405.129 58.7015 407.191 58.0255 408.233 58.5822C409.274 59.1389 409.611 61.1966 410.355 62.797C409.68 67.6481 409.363 72.5886 408.262 77.3204C407.143 82.8237 405.558 88.2212 403.523 93.4541C401.718 97.828 398.763 101.635 396.403 105.751C393.349 110.97 388.708 114.737 384.057 118.455V118.465ZM118.25 121.447C116.267 122.56 115.276 122.123 114.205 119.936C113.949 119.522 113.752 119.073 113.62 118.604C113.471 117.67 113.441 116.725 113.362 115.781L112.955 115.711C113.144 113.547 113.442 111.394 113.848 109.26C115.633 101.814 119.014 95.2335 122.951 88.8516C127.013 81.9539 131.778 75.4976 137.17 69.5865C141.315 65.2126 145.698 61.0972 150.963 58.0752C153.591 56.5642 156.823 57.4092 158.737 60.1429C159.311 60.787 159.634 61.6171 159.647 62.4809C159.66 63.3446 159.361 64.1839 158.807 64.8448C153.293 72.6184 147.899 80.4815 142.564 88.3844C137.229 96.2872 132.252 104.031 126.976 111.765C125.131 114.341 123.145 116.814 121.027 119.171C120.245 120.097 119.309 120.88 118.26 121.487L118.25 121.447ZM210.469 97.2216C211.579 105.691 208.486 112.689 202.229 118.236C199.888 120.314 196.557 120.095 193.552 120.413C192.792 120.452 192.031 120.452 191.271 120.413L191.192 120.9C188.673 120.433 186.105 120.145 183.656 119.439C180.552 118.544 179.938 116.407 182.139 113.942C183.893 112.049 185.811 110.316 187.87 108.763C193.711 104.19 199.611 99.7068 205.521 95.2236C208.238 93.2255 210.062 93.8816 210.499 97.2614L210.469 97.2216ZM157.319 15.3104C160.135 15.3104 161.9 16.3044 163.08 18.8592C164.488 21.6187 165.103 24.7163 164.855 27.8058C164.568 30.5693 163.537 31.8517 160.73 32.4282C157.251 33.2498 153.719 33.8278 150.16 34.1579C143.992 34.5022 137.846 35.1658 131.746 36.1461C124.041 37.4383 116.337 38.6909 108.642 39.9832C107.204 40.2217 105.786 40.6194 104.348 40.9176C99.0729 42.0011 99.063 41.9912 96.5146 46.3551C95.8453 47.4714 95.2362 48.6229 94.69 49.8046C91.626 56.6239 88.7999 63.5625 85.488 70.2625C82.3843 76.545 79.826 83.0263 77.347 89.5474C75.3638 94.7066 73.5591 99.9354 71.7346 105.154C70.4554 108.832 69.3052 112.56 68.0558 116.248C66.4916 120.346 65.4295 124.618 64.8926 128.972C64.7141 131.06 64.0299 133.108 63.6531 135.185C62.5653 140.308 62.9084 145.633 64.6447 150.573C64.7722 150.871 64.8815 151.177 64.9719 151.488C65.4875 153.575 64.4563 155.305 62.4037 155.285C59.6569 155.285 56.7912 155.086 54.4213 153.635C51.8354 151.955 49.3702 150.094 47.0439 148.068C46.1489 147.356 45.4276 146.449 44.9345 145.415C44.4414 144.382 44.1895 143.249 44.198 142.104C44.198 139.668 43.9798 137.233 43.8509 134.797C44.0968 128.282 45.1732 121.824 47.0538 115.582C50.1178 104.647 54.1734 93.981 58.0803 83.3047C61.4319 74.1592 64.7538 64.984 68.8887 56.1368C69.7811 54.2282 70.6835 52.3195 71.5263 50.3911C71.5646 50.2379 71.566 50.0779 71.5304 49.9241C71.4947 49.7704 71.423 49.6274 71.3213 49.5069C71.2195 49.3864 71.0906 49.292 70.9452 49.2314C70.7998 49.1708 70.6421 49.1458 70.4852 49.1584C67.8178 49.8642 65.1206 50.4706 62.5524 51.3553C55.4625 53.7808 48.3131 56.0672 41.3918 58.8903C33.5383 62.0813 25.8336 65.6102 18.8429 70.5806C16.1267 72.3905 13.8084 74.7382 12.0306 77.4794C10.8209 79.4676 9.72019 81.4557 9.89868 83.8415C9.91955 84.3288 9.87621 84.8168 9.76977 85.2928C9.71878 85.6589 9.57309 86.0052 9.3472 86.2973C9.1213 86.5894 8.82307 86.8171 8.48215 86.9579C8.14123 87.0986 7.7695 87.1474 7.40392 87.0994C7.03835 87.0515 6.69167 86.9084 6.39834 86.6845C3.27482 83.9607 0.607425 80.9189 0.260366 76.545C0.260366 76.3859 0.260366 76.217 0.210786 76.0579C-0.63207 69.3082 0.994147 63.6221 6.15044 58.7909C9.38425 55.8196 12.9831 53.2741 16.8597 51.2161C24.6584 47.1688 32.6953 43.6002 40.9257 40.5299C54.2726 35.2514 68.026 31.3745 81.8389 27.6666C89.2263 25.6785 96.7724 24.3465 104.229 22.6267C112.162 20.8109 120.144 19.3032 128.176 18.1037C131.548 17.6067 134.939 17.1096 138.33 16.8114C144.657 16.1852 150.933 15.2706 157.319 15.3104ZM254.972 38.2634C248.437 38.2634 242.021 39.3668 235.576 40.1422C235.775 40.3619 235.952 40.6017 236.102 40.8579C236.317 41.1309 236.462 41.4531 236.523 41.7957C236.584 42.1384 236.559 42.4909 236.451 42.8217C236.343 43.1525 236.155 43.4514 235.904 43.6915C235.652 43.9317 235.346 44.1057 235.011 44.198C234.731 44.3191 234.438 44.4059 234.138 44.4565C228.189 45.3014 223.845 49.1684 219.79 52.8464C213.84 58.1846 210.231 64.9939 212.026 73.5131C212.968 77.9566 214.415 78.6524 218.253 76.3661C222.279 73.9704 226.126 71.2665 230.152 68.9404C236.726 65.1828 243.41 61.624 250.053 58.0056C251.511 57.2104 252.969 56.4052 254.456 55.6596L253.792 55.9976C255.448 51.7828 257.143 47.5878 258.75 43.3531C260.267 39.4662 259.186 38.2734 254.972 38.2634ZM495.176 13.7497C496.604 9.49508 497.347 8.77935 501.641 9.98217C504.973 10.8868 508.423 11.5429 511.051 14.2368C513.679 16.9307 515.196 20.0223 514.115 24.0482C513.243 27.2988 514.115 28.2233 517.308 28.3029C519.43 28.3625 521.562 28.3029 523.684 28.3029V27.5971C528.384 27.5971 533.084 27.4877 537.775 27.6666C539.253 27.6832 540.679 28.2217 541.801 29.1876C544.587 32.1698 543.119 35.8081 538.925 36.4045C535.95 36.832 532.876 36.8717 529.842 37.0507C524.705 37.3489 519.569 37.6869 514.423 37.8956C511.071 38.0348 508.79 39.2873 507.422 42.5777C501.383 57.111 494.214 71.1671 490.168 86.5056C488.592 92.47 486.013 98.166 484.119 104.061C481.905 110.973 479.829 117.931 477.892 124.936C475.711 132.819 473.727 140.762 471.724 148.694C470.941 151.776 470.217 154.878 469.741 158.019C469.563 159.092 470.108 160.285 470.316 161.419C471.308 160.902 472.597 160.623 473.291 159.828C475.293 157.553 477.113 155.123 478.735 152.561C483.838 144.158 488.849 135.695 493.768 127.173C496.99 121.606 500.124 116 503.277 110.393C501.224 104.618 501.006 98.1859 502.365 91.297C504.864 78.6027 510.05 66.9324 518.924 57.3694C523.218 52.7371 528.434 48.9298 533.372 44.9237C535.782 42.9355 538.687 43.025 541.602 43.9296C544.369 44.7447 547.215 45.2915 549.912 46.2756C552.609 47.2597 555.435 48.2638 557.617 49.9537C561.583 53.0949 562.168 57.4986 561.028 62.3199C558.806 71.6939 554.89 80.402 550.794 89.0305C549.051 92.901 547.064 96.6563 544.845 100.273C543.048 102.893 540.929 105.274 538.538 107.361C536.674 109.081 534.433 109.349 531.776 108.355C528.456 107.26 525.443 105.393 522.98 102.908C521.899 101.765 520.59 100.393 519.123 101.367C518.011 102.322 517.302 103.665 517.14 105.124C516.664 107.959 516.571 110.844 516.862 113.703C517.625 119.061 520.68 123.714 527.581 122.56C533.275 121.558 538.57 118.959 542.852 115.065C550.219 108.683 556.466 101.258 562.614 93.7324C566.64 88.7621 570.894 84.0701 575.118 79.3085C575.771 78.7899 576.504 78.3834 577.29 78.1057C577.577 79.0401 578.281 80.0938 578.083 80.8891C576.1 87.3903 574.186 93.9213 570.081 99.5179C565.609 105.622 561.385 111.914 556.694 117.849C553.845 121.386 550.668 124.645 547.205 127.58C543.238 131.02 538.28 131.815 533.233 131.557C526.004 131.954 519.976 129.012 514.561 125.046C511.132 122.6 508.2 119.519 505.925 115.97C505.563 117.342 505.126 118.692 504.616 120.016C500.828 129.748 496.614 139.34 492.181 148.844C489.395 154.552 486.3 160.104 482.91 165.474C479.935 170.345 475.968 174.202 470.257 175.972C468.617 176.572 466.865 176.803 465.125 176.649C463.386 176.494 461.702 175.957 460.192 175.077C451.337 169.928 447.539 162.045 449.652 151.518C451.536 142.154 453.618 132.819 456.018 123.574C454.869 124.866 453.64 126.085 452.339 127.223C446.925 131.974 439.151 131.865 433.27 127.62C429.076 124.638 425.338 120.95 423.424 115.94C422.816 114.092 422.303 112.214 421.887 110.314C422.422 103.454 424.406 97.0626 426.389 90.7105C429.007 82.6685 431.575 74.5966 434.44 66.6341C436.136 61.9421 438.407 57.4489 440.39 52.8663C441.382 50.5103 442.512 48.1942 443.464 45.8084C444.694 42.7367 445.844 41.8321 449.007 42.7566C451.932 43.5111 454.736 44.6757 457.336 46.216C461.739 49.0093 462.503 52.9856 460.609 57.7571C456.375 68.4433 451.684 78.9606 447.718 89.7462C444.803 97.6988 442.76 105.979 440.35 114.121C440.229 114.403 440.175 114.709 440.192 115.015C440.45 116.268 440.767 117.501 441.054 118.753C442.046 118.316 443.365 118.127 444.109 117.391C449.741 111.894 455.78 106.775 460.222 100.164C460.474 99.7846 460.759 99.4286 461.075 99.1004C462.017 98.1064 462.76 97.9871 463.316 98.6829C467.143 87.2412 471.249 75.879 475.314 64.5267C477.892 57.4092 480.837 50.4308 483.515 43.3531C484.982 39.4861 483.901 38.2932 479.687 38.2833C470.763 38.2833 461.957 40.3708 453.043 40.8082C450.623 40.9275 448.194 40.9076 445.784 40.8082C444.456 40.7387 442.691 40.5895 442.72 38.8201C442.72 37.2594 444.416 37.4284 445.586 37.2495C454.421 35.9472 463.256 34.6152 472.101 33.3627C475.707 32.7121 479.35 32.2937 483.009 32.1101C484.537 32.1659 486.043 31.7326 487.308 30.8729C488.574 30.0132 489.534 28.7719 490.049 27.3287C491.953 22.8653 493.639 18.3423 495.176 13.7497ZM377.384 3.48096C378.633 0.0812465 380.012 -0.574839 383.75 0.429171C387.488 1.43318 390.354 3.95811 392.774 6.82103C393.709 7.80421 394.341 9.03797 394.593 10.3733C394.845 11.7087 394.705 13.0885 394.192 14.3461C392.476 18.5013 390.691 22.6665 389.065 26.8416C388.133 29.2273 387.597 31.8119 386.536 34.1182C382.818 42.2894 378.713 50.2618 375.222 58.5524C371.732 66.8429 368.876 75.1931 365.842 83.5532C364.93 86.0483 364.275 88.6627 363.502 91.2274L364.414 91.466C369.927 82.7977 375.322 74.0698 380.984 65.491C385.198 59.0792 390.899 54.089 397.166 49.6853C398.537 48.7843 400.083 48.1847 401.701 47.926C403.32 47.6672 404.975 47.7553 406.557 48.1842C409.836 48.9173 413.027 50.0004 416.076 51.4149C423.414 54.8544 425.199 61.634 426.607 68.3936C427.757 73.9008 426.418 79.2091 425.615 84.4975C423.914 94.9612 420.16 104.983 414.569 113.982C413.685 115.536 412.583 116.956 411.297 118.196C407.558 121.596 403.84 125.036 399.784 128.058C394.549 131.974 388.242 131.507 381.935 129.519C377.394 128.087 372.684 127.044 368.866 123.465C367.359 122.053 365.644 122.093 364.007 123.843C361.36 126.686 358.157 129.26 353.556 127.441C350.365 126.161 347.539 124.113 345.326 121.477C341.161 116.636 340.189 111.536 340.368 106.288C337.601 110.184 334.825 114.071 331.87 117.819C329.021 121.356 325.843 124.615 322.38 127.551C318.414 130.99 313.456 131.785 308.409 131.527C301.18 131.925 295.151 128.982 289.737 125.016C286.307 122.57 283.376 119.489 281.1 115.94C280.739 117.312 280.302 118.662 279.791 119.986C276.003 129.718 271.789 139.31 267.357 148.814C264.562 154.537 261.457 160.102 258.055 165.484C255.081 170.355 251.114 174.212 245.403 175.982C243.762 176.582 242.01 176.813 240.271 176.658C238.531 176.504 236.847 175.967 235.338 175.087C226.483 169.938 222.685 162.055 224.797 151.528C228.101 134.418 232.446 117.527 237.807 100.949C241.863 88.7422 246.196 76.6245 250.569 64.5267C250.919 63.5525 251.28 62.5783 251.65 61.6042L251.243 61.9024L250.093 62.6777C246.95 64.7454 243.588 66.3459 240.712 68.9603C237.837 71.5747 234.178 73.2348 230.886 75.3621C228.218 77.0818 225.531 78.7817 222.953 80.6505C218.798 83.6327 218.431 85.263 220.543 89.8158C221.307 91.466 222.189 93.0565 222.953 94.7066C228.377 106.397 225.601 116.894 217.995 126.517C214.762 130.602 209.953 131.716 204.955 131.944H203.894H201.763C193.83 131.239 186.294 129.221 180.007 123.992L180.076 124.052L179.789 124.519C175.822 130.652 168.723 131.964 162.119 128.107L161.662 127.829C154.592 123.425 150.309 117.073 149.644 108.614C149.537 107.186 149.311 105.769 148.97 104.379C148.801 103.713 148.197 102.649 147.81 102.639C147.447 102.67 147.096 102.78 146.78 102.962C146.465 103.144 146.194 103.394 145.985 103.693C141.493 110.125 137.299 116.795 132.539 122.998C129.802 126.567 126.233 129.439 121.037 129.022C117.07 128.704 113.015 129.201 109.366 126.457C103.059 121.725 99.2117 115.701 98.7655 106.506C98.2904 99.1499 100.177 91.8343 104.15 85.6308C108.285 79.0898 111.825 72.0916 116.366 65.8886C119.986 60.9182 124.706 56.8624 128.969 52.4388C130.199 50.9317 131.623 49.5946 133.204 48.4626C135.728 47.0444 138.605 46.382 141.493 46.554C149.438 46.7385 157.08 49.651 163.14 54.8047C166.035 57.1905 166.799 56.9917 168.247 53.8107C168.564 53.1148 168.881 52.419 169.189 51.7132C171.241 47.0112 171.787 46.7428 176.804 47.4486C182.833 48.3433 188.128 55.1427 186.72 61.0375C185.53 65.9582 183.289 70.5408 181.504 75.2627C179.303 81.1376 177.151 87.0324 174.87 92.8775C173.482 96.4562 171.707 99.836 170.438 103.484C169.226 106.976 168.265 110.551 167.562 114.18C167.334 115.334 168.237 116.805 168.623 118.157C169.843 117.809 171.35 117.799 172.233 117.043L172.491 116.825C171.628 115.254 171.836 113.703 173.254 111.805C175.146 109.247 177.355 106.942 179.828 104.946C186.343 99.7565 193.056 94.816 199.66 89.786C200.503 89.1398 201.415 88.5832 202.239 87.9072C204.807 85.7898 205.213 84.1297 203.756 81.1376C202.298 78.1455 200.989 75.4018 199.432 72.6284C197.46 69.286 196.292 65.5291 196.02 61.6554C195.748 57.7818 196.38 53.8978 197.866 50.3115C199.779 45.4903 203.637 41.8421 207.464 38.3827C208.255 37.6715 209.108 37.0327 210.013 36.4741C213.285 34.4363 216.597 33.0147 220.722 33.8995C223.425 34.4413 226.079 35.2094 228.655 36.1958C234.852 35.2812 241.059 34.3567 247.267 33.472C250.857 32.8402 254.484 32.4385 258.125 32.2692C259.653 32.325 261.159 31.8916 262.425 31.0319C263.69 30.1723 264.65 28.9309 265.165 27.4877C267.059 23.0442 268.755 18.5411 270.292 13.9087C271.72 9.65413 272.463 8.9384 276.757 10.1412C280.089 11.0458 283.539 11.7019 286.167 14.3958C288.795 17.0898 290.312 20.1813 289.231 24.2073C288.359 27.4579 289.231 28.3824 292.424 28.4619C294.546 28.5215 296.678 28.4619 298.8 28.4619V27.7561C303.5 27.7561 308.2 27.6468 312.891 27.8257C314.369 27.8422 315.795 28.3808 316.917 29.3466C319.703 32.3288 318.235 35.9671 314.041 36.5636C311.066 36.991 307.992 37.0308 304.958 37.2097C299.821 37.5079 294.685 37.8459 289.539 38.0547C286.187 38.1938 283.906 39.4464 282.538 42.7367C276.658 57.1308 269.439 71.187 265.383 86.4857C263.807 92.4501 261.229 98.1461 259.335 104.041C257.12 110.953 255.044 117.912 253.107 124.916C250.926 132.799 248.943 140.742 246.94 148.675C246.156 151.756 245.423 154.858 244.956 157.999C244.778 159.073 245.323 160.265 245.532 161.399C246.523 160.882 247.812 160.603 248.506 159.808C250.508 157.533 252.329 155.103 253.95 152.542C259.054 144.138 264.064 135.676 268.983 127.153C272.205 121.586 275.339 115.98 278.492 110.373C276.44 104.598 276.221 98.166 277.58 91.2771C280.089 78.5828 285.265 66.9125 294.14 57.3495C298.433 52.7172 303.649 48.9099 308.587 44.9038C310.997 42.9157 313.902 43.0051 316.817 43.9097C319.584 44.7249 322.43 45.2716 325.127 46.2557C327.824 47.2399 330.65 48.2439 332.832 49.9338C336.798 53.075 337.383 57.4788 336.243 62.3C334.022 71.6741 330.105 80.3821 326.009 89.0106C324.267 92.8812 322.279 96.6364 320.06 100.254C318.273 102.871 316.164 105.252 313.783 107.341C311.919 109.061 309.678 109.329 307.02 108.335C303.701 107.24 300.688 105.373 298.225 102.888C297.144 101.745 295.835 100.373 294.368 101.347C293.256 102.302 292.547 103.645 292.384 105.105C291.909 107.939 291.815 110.824 292.107 113.683C292.87 119.041 295.924 123.694 302.826 122.541C308.52 121.538 313.815 118.939 318.097 115.045C325.464 108.663 331.711 101.238 337.859 93.7126C339.842 91.2473 341.954 88.8217 344.057 86.4161C346.623 77.1812 349.722 68.1034 353.338 59.2283C356.319 51.6602 359.469 44.1715 362.788 36.7624C365.663 30.3308 368.995 24.1377 371.871 17.716C373.348 14.4058 374.657 10.9961 375.916 7.57652L377.384 3.48096Z" fill="black"/>
</svg>
